<svg xmlns="http://www.w3.org/2000/svg" xmlns:xlink="http://www.w3.org/1999/xlink" width="500" zoomAndPan="magnify" viewBox="0 0 375 374.999991" height="500" preserveAspectRatio="xMidYMid meet" version="1.0"><defs><filter x="0%" y="0%" width="100%" height="100%" id="98140813ed"><feColorMatrix values="0 0 0 0 1 0 0 0 0 1 0 0 0 0 1 0 0 0 1 0" color-interpolation-filters="sRGB"/></filter><g/><mask id="9b7378877d"><g filter="url(#98140813ed)"><rect x="-37.5" width="450" fill="#000000" y="-37.499999" height="449.999989" fill-opacity="0.7"/></g></mask><clipPath id="59890e1c2e"><rect x="0" width="116" y="0" height="95"/></clipPath><clipPath id="596b7c82f0"><path d="M 228.011719 141.269531 L 259 141.269531 L 259 173.519531 L 228.011719 173.519531 Z M 228.011719 141.269531 " clip-rule="nonzero"/></clipPath><clipPath id="59edce28c8"><path d="M 250 141.269531 L 259.511719 141.269531 L 259.511719 143 L 250 143 Z M 250 141.269531 " clip-rule="nonzero"/></clipPath><clipPath id="af5a83001b"><path d="M 249 141.269531 L 259.511719 141.269531 L 259.511719 144 L 249 144 Z M 249 141.269531 " clip-rule="nonzero"/></clipPath><clipPath id="4c93629b36"><path d="M 216 131 L 237 131 L 237 152 L 216 152 Z M 216 131 " clip-rule="nonzero"/></clipPath><clipPath id="4db138cf10"><path d="M 211.722656 144.105469 L 224.222656 126.304688 L 242.023438 138.808594 L 229.523438 156.605469 Z M 211.722656 144.105469 " clip-rule="nonzero"/></clipPath><clipPath id="cc8d2403af"><path d="M 211.722656 144.105469 L 233.707031 112.804688 L 258.257812 130.046875 L 236.273438 161.347656 Z M 211.722656 144.105469 " clip-rule="nonzero"/></clipPath><clipPath id="0fc13a6c41"><path d="M 215 130 L 237 130 L 237 152 L 215 152 Z M 215 130 " clip-rule="nonzero"/></clipPath><clipPath id="f2dab4417e"><path d="M 211.722656 144.105469 L 224.222656 126.304688 L 242.023438 138.808594 L 229.523438 156.605469 Z M 211.722656 144.105469 " clip-rule="nonzero"/></clipPath><clipPath id="76e1746f88"><path d="M 211.722656 144.105469 L 233.707031 112.804688 L 258.257812 130.046875 L 236.273438 161.347656 Z M 211.722656 144.105469 " clip-rule="nonzero"/></clipPath><clipPath id="75adb47eec"><path d="M 239 126 L 243 126 L 243 141 L 239 141 Z M 239 126 " clip-rule="nonzero"/></clipPath><clipPath id="a0347a062a"><path d="M 211.722656 144.105469 L 224.222656 126.304688 L 242.023438 138.808594 L 229.523438 156.605469 Z M 211.722656 144.105469 " clip-rule="nonzero"/></clipPath><clipPath id="8e9375c27f"><path d="M 211.722656 144.105469 L 233.707031 112.804688 L 258.257812 130.046875 L 236.273438 161.347656 Z M 211.722656 144.105469 " clip-rule="nonzero"/></clipPath><clipPath id="d7b5de661a"><path d="M 238 126 L 243 126 L 243 141 L 238 141 Z M 238 126 " clip-rule="nonzero"/></clipPath><clipPath id="713542f108"><path d="M 211.722656 144.105469 L 224.222656 126.304688 L 242.023438 138.808594 L 229.523438 156.605469 Z M 211.722656 144.105469 " clip-rule="nonzero"/></clipPath><clipPath id="04c66c67c2"><path d="M 211.722656 144.105469 L 233.707031 112.804688 L 258.257812 130.046875 L 236.273438 161.347656 Z M 211.722656 144.105469 " clip-rule="nonzero"/></clipPath><clipPath id="021fc2d8fb"><path d="M 224 140 L 229 140 L 229 144 L 224 144 Z M 224 140 " clip-rule="nonzero"/></clipPath><clipPath id="f219679784"><path d="M 211.722656 144.105469 L 224.222656 126.304688 L 242.023438 138.808594 L 229.523438 156.605469 Z M 211.722656 144.105469 " clip-rule="nonzero"/></clipPath><clipPath id="59ed38126c"><path d="M 211.722656 144.105469 L 233.707031 112.804688 L 258.257812 130.046875 L 236.273438 161.347656 Z M 211.722656 144.105469 " clip-rule="nonzero"/></clipPath><clipPath id="e9fd0e56fe"><path d="M 224 139 L 229 139 L 229 145 L 224 145 Z M 224 139 " clip-rule="nonzero"/></clipPath><clipPath id="a8ce173a5a"><path d="M 211.722656 144.105469 L 224.222656 126.304688 L 242.023438 138.808594 L 229.523438 156.605469 Z M 211.722656 144.105469 " clip-rule="nonzero"/></clipPath><clipPath id="23ddf2b1b7"><path d="M 211.722656 144.105469 L 233.707031 112.804688 L 258.257812 130.046875 L 236.273438 161.347656 Z M 211.722656 144.105469 " clip-rule="nonzero"/></clipPath></defs><g fill="#ae7b37" fill-opacity="1"><g transform="translate(168.318488, 247.295614)"><g><path d="M 23.742188 -49.203125 C 26.027344 -50.367188 24.40625 -54.015625 22.042969 -52.839844 C 18.582031 -51.011719 15.136719 -49.105469 11.804688 -46.976562 C 11.953125 -47.558594 12.007812 -48.207031 12.15625 -48.789062 C 12.546875 -51.324219 8.574219 -51.726562 8.179688 -49.191406 C 7.898438 -47.46875 7.546875 -45.65625 7.1875 -43.921875 C 5.675781 -42.882812 4.179688 -41.765625 2.683594 -40.648438 C 0.613281 -39.121094 3.183594 -36.019531 5.164062 -37.613281 C 5.449219 -37.820312 5.746094 -37.949219 5.957031 -38.140625 C 4.699219 -32.511719 3.445312 -26.886719 2.769531 -21.113281 C 2.230469 -16 0.824219 -6.835938 5.722656 -3.148438 C 13.25 2.511719 24.804688 -10.585938 28.777344 -15.691406 C 30.292969 -17.6875 27.25 -19.757812 25.628906 -17.902344 C 22.730469 -14.566406 8.792969 0.589844 6.683594 -9.605469 C 6.070312 -12.460938 5.996094 -15.402344 6.082031 -18.371094 C 6.316406 -18.40625 6.460938 -18.507812 6.679688 -18.625 C 11.25 -21.988281 16.140625 -24.84375 20.710938 -28.207031 C 22.859375 -29.75 20.289062 -32.847656 18.21875 -31.320312 C 14.429688 -28.5625 10.511719 -26.101562 6.621094 -23.484375 C 7.492188 -29.527344 9.230469 -35.632812 10.617188 -41.4375 C 14.792969 -44.261719 19.242188 -46.886719 23.742188 -49.203125 Z M 23.742188 -49.203125 "/></g></g></g><g fill="#ae7b37" fill-opacity="1"><g transform="translate(201.388409, 242.011377)"><g><path d="M 21.800781 -63.335938 C 13.835938 -46.261719 10.382812 -27.914062 6.347656 -9.714844 C 4.332031 -21.839844 2.199219 -34.1875 -5.25 -44.332031 C -6.761719 -46.324219 -9.796875 -43.84375 -8.269531 -41.773438 C 0.535156 -29.613281 1.230469 -13.761719 4.078125 0.546875 C 4.363281 2.335938 7.351562 3.054688 7.894531 0.972656 C 13.128906 -20.214844 16.28125 -41.945312 25.546875 -61.859375 C 26.601562 -64.261719 22.867188 -65.660156 21.800781 -63.335938 Z M 21.800781 -63.335938 "/></g></g></g><g fill="#ae7b37" fill-opacity="1"><g transform="translate(232.046174, 237.112579)"><g><path d="M 23.742188 -49.203125 C 26.027344 -50.367188 24.40625 -54.015625 22.042969 -52.839844 C 18.582031 -51.011719 15.136719 -49.105469 11.804688 -46.976562 C 11.953125 -47.558594 12.007812 -48.207031 12.15625 -48.789062 C 12.546875 -51.324219 8.574219 -51.726562 8.179688 -49.191406 C 7.898438 -47.46875 7.546875 -45.65625 7.1875 -43.921875 C 5.675781 -42.882812 4.179688 -41.765625 2.683594 -40.648438 C 0.613281 -39.121094 3.183594 -36.019531 5.164062 -37.613281 C 5.449219 -37.820312 5.746094 -37.949219 5.957031 -38.140625 C 4.699219 -32.511719 3.445312 -26.886719 2.769531 -21.113281 C 2.230469 -16 0.824219 -6.835938 5.722656 -3.148438 C 13.25 2.511719 24.804688 -10.585938 28.777344 -15.691406 C 30.292969 -17.6875 27.25 -19.757812 25.628906 -17.902344 C 22.730469 -14.566406 8.792969 0.589844 6.683594 -9.605469 C 6.070312 -12.460938 5.996094 -15.402344 6.082031 -18.371094 C 6.316406 -18.40625 6.460938 -18.507812 6.679688 -18.625 C 11.25 -21.988281 16.140625 -24.84375 20.710938 -28.207031 C 22.859375 -29.75 20.289062 -32.847656 18.21875 -31.320312 C 14.429688 -28.5625 10.511719 -26.101562 6.621094 -23.484375 C 7.492188 -29.527344 9.230469 -35.632812 10.617188 -41.4375 C 14.792969 -44.261719 19.242188 -46.886719 23.742188 -49.203125 Z M 23.742188 -49.203125 "/></g></g></g><g fill="#ae7b37" fill-opacity="1"><g transform="translate(265.116095, 231.828342)"><g><path d="M 27.953125 -24.335938 C 26.644531 -20.539062 25 -16.84375 23.34375 -13.226562 C 22.621094 -11.753906 18.46875 -1.277344 16.28125 -1.484375 C 14.820312 -1.648438 17.84375 -20.167969 17.90625 -21.296875 C 18.523438 -26.902344 20.109375 -34.976562 17.644531 -40.40625 C 13.148438 -50.0625 5.484375 -39.101562 3.289062 -34.363281 C 2.105469 -31.777344 1.089844 -29.144531 0.242188 -26.453125 C 0.261719 -31.324219 0.0351562 -36.238281 -0.734375 -41.0625 C -1.132812 -43.550781 -5.023438 -42.929688 -4.625 -40.441406 C -2.378906 -25.875 -4.746094 -11.210938 -5.515625 3.433594 C -5.675781 5.933594 -1.84375 6.441406 -1.542969 3.835938 C -0.105469 -9.160156 1.714844 -22.21875 7.5625 -34.085938 C 8.691406 -36.503906 11.964844 -43.488281 14.449219 -37.421875 C 15.660156 -34.34375 14.640625 -29.234375 14.4375 -26.007812 C 13.808594 -18.964844 12.296875 -11.941406 11.824219 -4.921875 C 11.269531 2.109375 17.007812 4.542969 21.136719 -1.0625 C 25.804688 -7.316406 29.214844 -15.441406 31.621094 -22.847656 C 32.429688 -25.292969 28.757812 -26.78125 27.953125 -24.335938 Z M 27.953125 -24.335938 "/></g></g></g><g fill="#ae7b37" fill-opacity="1"><g transform="translate(296.707605, 226.78034)"><g><path d="M 25.496094 -58.179688 C 14.265625 -56.546875 3.164062 -54.613281 -8.042969 -52.820312 C -10.609375 -52.410156 -9.988281 -48.519531 -7.417969 -48.929688 C -2.363281 -49.738281 2.773438 -50.558594 7.898438 -51.457031 C 6.980469 -32.71875 5.082031 -14.140625 3.273438 4.503906 C 3.035156 7.015625 6.945312 7.507812 7.183594 4.996094 C 9.007812 -14.046875 10.921875 -33.027344 11.789062 -52.082031 C 16.535156 -52.839844 21.359375 -53.609375 26.121094 -54.289062 C 28.621094 -54.609375 28 -58.5 25.496094 -58.179688 Z M 25.496094 -58.179688 "/></g></g></g><g fill="#e1ad37" fill-opacity="1"><g transform="translate(165.765618, 245.446188)"><g><path d="M 23.742188 -49.203125 C 26.027344 -50.367188 24.40625 -54.015625 22.042969 -52.839844 C 18.582031 -51.011719 15.136719 -49.105469 11.804688 -46.976562 C 11.953125 -47.558594 12.007812 -48.207031 12.15625 -48.789062 C 12.546875 -51.324219 8.574219 -51.726562 8.179688 -49.191406 C 7.898438 -47.46875 7.546875 -45.65625 7.1875 -43.921875 C 5.675781 -42.882812 4.179688 -41.765625 2.683594 -40.648438 C 0.613281 -39.121094 3.183594 -36.019531 5.164062 -37.613281 C 5.449219 -37.820312 5.746094 -37.949219 5.957031 -38.140625 C 4.699219 -32.511719 3.445312 -26.886719 2.769531 -21.113281 C 2.230469 -16 0.824219 -6.835938 5.722656 -3.148438 C 13.25 2.511719 24.804688 -10.585938 28.777344 -15.691406 C 30.292969 -17.6875 27.25 -19.757812 25.628906 -17.902344 C 22.730469 -14.566406 8.792969 0.589844 6.683594 -9.605469 C 6.070312 -12.460938 5.996094 -15.402344 6.082031 -18.371094 C 6.316406 -18.40625 6.460938 -18.507812 6.679688 -18.625 C 11.25 -21.988281 16.140625 -24.84375 20.710938 -28.207031 C 22.859375 -29.75 20.289062 -32.847656 18.21875 -31.320312 C 14.429688 -28.5625 10.511719 -26.101562 6.621094 -23.484375 C 7.492188 -29.527344 9.230469 -35.632812 10.617188 -41.4375 C 14.792969 -44.261719 19.242188 -46.886719 23.742188 -49.203125 Z M 23.742188 -49.203125 "/></g></g></g><g fill="#e1ad37" fill-opacity="1"><g transform="translate(198.835539, 240.161952)"><g><path d="M 21.800781 -63.335938 C 13.835938 -46.261719 10.382812 -27.914062 6.347656 -9.714844 C 4.332031 -21.839844 2.199219 -34.1875 -5.25 -44.332031 C -6.761719 -46.324219 -9.796875 -43.84375 -8.269531 -41.773438 C 0.535156 -29.613281 1.230469 -13.761719 4.078125 0.546875 C 4.363281 2.335938 7.351562 3.054688 7.894531 0.972656 C 13.128906 -20.214844 16.28125 -41.945312 25.546875 -61.859375 C 26.601562 -64.261719 22.867188 -65.660156 21.800781 -63.335938 Z M 21.800781 -63.335938 "/></g></g></g><g fill="#e1ad37" fill-opacity="1"><g transform="translate(229.493303, 235.263153)"><g><path d="M 23.742188 -49.203125 C 26.027344 -50.367188 24.40625 -54.015625 22.042969 -52.839844 C 18.582031 -51.011719 15.136719 -49.105469 11.804688 -46.976562 C 11.953125 -47.558594 12.007812 -48.207031 12.15625 -48.789062 C 12.546875 -51.324219 8.574219 -51.726562 8.179688 -49.191406 C 7.898438 -47.46875 7.546875 -45.65625 7.1875 -43.921875 C 5.675781 -42.882812 4.179688 -41.765625 2.683594 -40.648438 C 0.613281 -39.121094 3.183594 -36.019531 5.164062 -37.613281 C 5.449219 -37.820312 5.746094 -37.949219 5.957031 -38.140625 C 4.699219 -32.511719 3.445312 -26.886719 2.769531 -21.113281 C 2.230469 -16 0.824219 -6.835938 5.722656 -3.148438 C 13.25 2.511719 24.804688 -10.585938 28.777344 -15.691406 C 30.292969 -17.6875 27.25 -19.757812 25.628906 -17.902344 C 22.730469 -14.566406 8.792969 0.589844 6.683594 -9.605469 C 6.070312 -12.460938 5.996094 -15.402344 6.082031 -18.371094 C 6.316406 -18.40625 6.460938 -18.507812 6.679688 -18.625 C 11.25 -21.988281 16.140625 -24.84375 20.710938 -28.207031 C 22.859375 -29.75 20.289062 -32.847656 18.21875 -31.320312 C 14.429688 -28.5625 10.511719 -26.101562 6.621094 -23.484375 C 7.492188 -29.527344 9.230469 -35.632812 10.617188 -41.4375 C 14.792969 -44.261719 19.242188 -46.886719 23.742188 -49.203125 Z M 23.742188 -49.203125 "/></g></g></g><g fill="#e1ad37" fill-opacity="1"><g transform="translate(262.563225, 229.978917)"><g><path d="M 27.953125 -24.335938 C 26.644531 -20.539062 25 -16.84375 23.34375 -13.226562 C 22.621094 -11.753906 18.46875 -1.277344 16.28125 -1.484375 C 14.820312 -1.648438 17.84375 -20.167969 17.90625 -21.296875 C 18.523438 -26.902344 20.109375 -34.976562 17.644531 -40.40625 C 13.148438 -50.0625 5.484375 -39.101562 3.289062 -34.363281 C 2.105469 -31.777344 1.089844 -29.144531 0.242188 -26.453125 C 0.261719 -31.324219 0.0351562 -36.238281 -0.734375 -41.0625 C -1.132812 -43.550781 -5.023438 -42.929688 -4.625 -40.441406 C -2.378906 -25.875 -4.746094 -11.210938 -5.515625 3.433594 C -5.675781 5.933594 -1.84375 6.441406 -1.542969 3.835938 C -0.105469 -9.160156 1.714844 -22.21875 7.5625 -34.085938 C 8.691406 -36.503906 11.964844 -43.488281 14.449219 -37.421875 C 15.660156 -34.34375 14.640625 -29.234375 14.4375 -26.007812 C 13.808594 -18.964844 12.296875 -11.941406 11.824219 -4.921875 C 11.269531 2.109375 17.007812 4.542969 21.136719 -1.0625 C 25.804688 -7.316406 29.214844 -15.441406 31.621094 -22.847656 C 32.429688 -25.292969 28.757812 -26.78125 27.953125 -24.335938 Z M 27.953125 -24.335938 "/></g></g></g><g fill="#e1ad37" fill-opacity="1"><g transform="translate(294.154734, 224.930915)"><g><path d="M 25.496094 -58.179688 C 14.265625 -56.546875 3.164062 -54.613281 -8.042969 -52.820312 C -10.609375 -52.410156 -9.988281 -48.519531 -7.417969 -48.929688 C -2.363281 -49.738281 2.773438 -50.558594 7.898438 -51.457031 C 6.980469 -32.71875 5.082031 -14.140625 3.273438 4.503906 C 3.035156 7.015625 6.945312 7.507812 7.183594 4.996094 C 9.007812 -14.046875 10.921875 -33.027344 11.789062 -52.082031 C 16.535156 -52.839844 21.359375 -53.609375 26.121094 -54.289062 C 28.621094 -54.609375 28 -58.5 25.496094 -58.179688 Z M 25.496094 -58.179688 "/></g></g></g><g mask="url(#9b7378877d)"><g transform="matrix(1, 0, 0, 1, 188, 85)"><g clip-path="url(#59890e1c2e)"><g fill="#ae7b37" fill-opacity="1"><g transform="translate(11.886083, 49.903115)"><g><path d="M 0.703125 -0.84375 L -7.34375 -7.578125 L -4.890625 -10.5 C -4.347656 -11.15625 -3.765625 -11.640625 -3.140625 -11.953125 C -2.515625 -12.273438 -1.878906 -12.453125 -1.234375 -12.484375 C -0.585938 -12.515625 0.046875 -12.40625 0.671875 -12.15625 C 1.296875 -11.914062 1.882812 -11.5625 2.4375 -11.09375 C 3.050781 -10.582031 3.53125 -10.023438 3.875 -9.421875 C 4.21875 -8.828125 4.414062 -8.210938 4.46875 -7.578125 C 4.53125 -6.941406 4.453125 -6.296875 4.234375 -5.640625 C 4.015625 -4.992188 3.65625 -4.367188 3.15625 -3.765625 Z M 1.125 -9.53125 C 0.738281 -9.851562 0.34375 -10.09375 -0.0625 -10.25 C -0.476562 -10.414062 -0.890625 -10.492188 -1.296875 -10.484375 C -1.703125 -10.484375 -2.09375 -10.390625 -2.46875 -10.203125 C -2.851562 -10.015625 -3.203125 -9.734375 -3.515625 -9.359375 L -4.65625 -8 L 0.65625 -3.546875 L 1.796875 -4.90625 C 2.109375 -5.289062 2.320312 -5.691406 2.4375 -6.109375 C 2.550781 -6.523438 2.570312 -6.929688 2.5 -7.328125 C 2.4375 -7.722656 2.285156 -8.109375 2.046875 -8.484375 C 1.804688 -8.867188 1.5 -9.21875 1.125 -9.53125 Z M 1.125 -9.53125 "/></g></g></g><g fill="#ae7b37" fill-opacity="1"><g transform="translate(18.887943, 41.738674)"><g><path d="M 5.796875 -6.296875 L 6.828125 -4.84375 L 0.890625 -0.640625 L -5.1875 -9.203125 L 0.65625 -13.34375 L 1.703125 -11.875 L -2.46875 -8.90625 L -1.015625 -6.84375 L 2.578125 -9.40625 L 3.546875 -8.0625 L -0.046875 -5.5 L 1.53125 -3.265625 Z M 5.796875 -6.296875 "/></g></g></g><g fill="#ae7b37" fill-opacity="1"><g transform="translate(26.271258, 36.436507)"><g><path d="M -1.484375 -5.125 C -1.710938 -5.71875 -1.828125 -6.347656 -1.828125 -7.015625 C -1.835938 -7.679688 -1.722656 -8.328125 -1.484375 -8.953125 C -1.253906 -9.578125 -0.894531 -10.144531 -0.40625 -10.65625 C 0.0820312 -11.164062 0.707031 -11.566406 1.46875 -11.859375 C 2.375 -12.203125 3.226562 -12.300781 4.03125 -12.15625 C 4.84375 -12.019531 5.539062 -11.703125 6.125 -11.203125 L 5.015625 -9.625 C 4.785156 -9.851562 4.539062 -10.023438 4.28125 -10.140625 C 4.03125 -10.253906 3.78125 -10.328125 3.53125 -10.359375 C 3.28125 -10.398438 3.03125 -10.398438 2.78125 -10.359375 C 2.53125 -10.316406 2.296875 -10.253906 2.078125 -10.171875 C 1.597656 -9.984375 1.21875 -9.722656 0.9375 -9.390625 C 0.65625 -9.066406 0.453125 -8.707031 0.328125 -8.3125 C 0.210938 -7.914062 0.171875 -7.5 0.203125 -7.0625 C 0.234375 -6.625 0.320312 -6.210938 0.46875 -5.828125 C 0.632812 -5.390625 0.863281 -4.992188 1.15625 -4.640625 C 1.445312 -4.296875 1.773438 -4.019531 2.140625 -3.8125 C 2.515625 -3.613281 2.914062 -3.488281 3.34375 -3.4375 C 3.769531 -3.394531 4.195312 -3.457031 4.625 -3.625 C 4.84375 -3.695312 5.0625 -3.804688 5.28125 -3.953125 C 5.5 -4.097656 5.691406 -4.269531 5.859375 -4.46875 C 6.035156 -4.675781 6.175781 -4.910156 6.28125 -5.171875 C 6.394531 -5.429688 6.453125 -5.71875 6.453125 -6.03125 L 8.359375 -5.71875 C 8.347656 -5.300781 8.25 -4.894531 8.0625 -4.5 C 7.875 -4.101562 7.640625 -3.738281 7.359375 -3.40625 C 7.078125 -3.070312 6.742188 -2.769531 6.359375 -2.5 C 5.984375 -2.238281 5.597656 -2.035156 5.203125 -1.890625 C 4.503906 -1.617188 3.804688 -1.519531 3.109375 -1.59375 C 2.421875 -1.675781 1.78125 -1.875 1.1875 -2.1875 C 0.59375 -2.5 0.0625 -2.910156 -0.40625 -3.421875 C -0.882812 -3.929688 -1.242188 -4.5 -1.484375 -5.125 Z M -1.484375 -5.125 "/></g></g></g><g fill="#ae7b37" fill-opacity="1"><g transform="translate(35.829946, 32.710954)"><g><path d="M 5.5625 -0.40625 C 4.789062 -0.34375 4.078125 -0.429688 3.421875 -0.671875 C 2.773438 -0.921875 2.207031 -1.273438 1.71875 -1.734375 C 1.238281 -2.191406 0.84375 -2.726562 0.53125 -3.34375 C 0.226562 -3.96875 0.046875 -4.613281 -0.015625 -5.28125 C -0.0664062 -5.96875 0.00390625 -6.640625 0.203125 -7.296875 C 0.410156 -7.960938 0.71875 -8.5625 1.125 -9.09375 C 1.53125 -9.632812 2.039062 -10.070312 2.65625 -10.40625 C 3.269531 -10.738281 3.941406 -10.941406 4.671875 -11.015625 C 5.421875 -11.078125 6.117188 -10.984375 6.765625 -10.734375 C 7.421875 -10.492188 7.992188 -10.140625 8.484375 -9.671875 C 8.972656 -9.203125 9.363281 -8.65625 9.65625 -8.03125 C 9.957031 -7.414062 10.140625 -6.785156 10.203125 -6.140625 C 10.265625 -5.441406 10.195312 -4.765625 10 -4.109375 C 9.800781 -3.453125 9.5 -2.859375 9.09375 -2.328125 C 8.6875 -1.804688 8.175781 -1.375 7.5625 -1.03125 C 6.957031 -0.6875 6.289062 -0.476562 5.5625 -0.40625 Z M 2.046875 -5.453125 C 2.085938 -4.992188 2.191406 -4.5625 2.359375 -4.15625 C 2.535156 -3.75 2.769531 -3.394531 3.0625 -3.09375 C 3.351562 -2.789062 3.695312 -2.554688 4.09375 -2.390625 C 4.488281 -2.234375 4.929688 -2.175781 5.421875 -2.21875 C 5.898438 -2.269531 6.320312 -2.40625 6.6875 -2.625 C 7.050781 -2.851562 7.347656 -3.144531 7.578125 -3.5 C 7.804688 -3.863281 7.96875 -4.257812 8.0625 -4.6875 C 8.15625 -5.125 8.179688 -5.5625 8.140625 -6 C 8.109375 -6.445312 8 -6.875 7.8125 -7.28125 C 7.632812 -7.6875 7.398438 -8.039062 7.109375 -8.34375 C 6.828125 -8.644531 6.488281 -8.875 6.09375 -9.03125 C 5.695312 -9.1875 5.269531 -9.242188 4.8125 -9.203125 C 4.3125 -9.160156 3.875 -9.019531 3.5 -8.78125 C 3.132812 -8.550781 2.835938 -8.257812 2.609375 -7.90625 C 2.390625 -7.550781 2.234375 -7.160156 2.140625 -6.734375 C 2.046875 -6.304688 2.015625 -5.878906 2.046875 -5.453125 Z M 2.046875 -5.453125 "/></g></g></g><g fill="#ae7b37" fill-opacity="1"><g transform="translate(47.079212, 31.824689)"><g><path d="M 1.078125 0.203125 L 3.03125 -10.109375 L 7.59375 -9.25 C 8.0625 -9.15625 8.472656 -8.972656 8.828125 -8.703125 C 9.191406 -8.429688 9.488281 -8.101562 9.71875 -7.71875 C 9.945312 -7.332031 10.109375 -6.921875 10.203125 -6.484375 C 10.296875 -6.046875 10.300781 -5.613281 10.21875 -5.1875 C 10.09375 -4.519531 9.8125 -3.941406 9.375 -3.453125 C 8.9375 -2.972656 8.410156 -2.675781 7.796875 -2.5625 L 9.40625 1.78125 L 7.15625 1.34375 L 5.703125 -2.5 L 3.75 -2.875 L 3.09375 0.578125 Z M 4.078125 -4.640625 L 6.578125 -4.171875 C 6.753906 -4.128906 6.929688 -4.132812 7.109375 -4.1875 C 7.285156 -4.25 7.445312 -4.34375 7.59375 -4.46875 C 7.738281 -4.59375 7.863281 -4.753906 7.96875 -4.953125 C 8.070312 -5.148438 8.144531 -5.359375 8.1875 -5.578125 C 8.226562 -5.828125 8.226562 -6.0625 8.1875 -6.28125 C 8.15625 -6.5 8.085938 -6.691406 7.984375 -6.859375 C 7.890625 -7.035156 7.765625 -7.175781 7.609375 -7.28125 C 7.453125 -7.394531 7.289062 -7.46875 7.125 -7.5 L 4.703125 -7.96875 Z M 4.078125 -4.640625 "/></g></g></g><g fill="#ae7b37" fill-opacity="1"><g transform="translate(56.903574, 33.69171)"><g><path d="M 8.203125 -7.703125 L 9.84375 -6.921875 L 8.90625 4.265625 L 7.015625 3.359375 L 7.25 0.578125 L 3.953125 -1 L 1.953125 0.9375 L 0.078125 0.03125 Z M 7.5625 -0.875 L 8.03125 -5.21875 L 4.875 -2.15625 Z M 7.5625 -0.875 "/></g></g></g><g fill="#ae7b37" fill-opacity="1"><g transform="translate(66.004746, 38.053175)"><g><path d="M 3.8125 -3.75 C 4.226562 -4.226562 4.726562 -4.628906 5.3125 -4.953125 C 5.894531 -5.273438 6.515625 -5.476562 7.171875 -5.5625 C 7.835938 -5.644531 8.507812 -5.59375 9.1875 -5.40625 C 9.875 -5.21875 10.523438 -4.859375 11.140625 -4.328125 C 11.878906 -3.703125 12.375 -3 12.625 -2.21875 C 12.882812 -1.445312 12.929688 -0.6875 12.765625 0.0625 L 10.859375 -0.140625 C 10.941406 -0.453125 10.972656 -0.75 10.953125 -1.03125 C 10.929688 -1.320312 10.875 -1.582031 10.78125 -1.8125 C 10.695312 -2.050781 10.578125 -2.269531 10.421875 -2.46875 C 10.265625 -2.675781 10.101562 -2.851562 9.9375 -3 C 9.539062 -3.34375 9.128906 -3.554688 8.703125 -3.640625 C 8.285156 -3.722656 7.875 -3.722656 7.46875 -3.640625 C 7.0625 -3.566406 6.675781 -3.410156 6.3125 -3.171875 C 5.945312 -2.929688 5.628906 -2.65625 5.359375 -2.34375 C 5.046875 -1.976562 4.804688 -1.585938 4.640625 -1.171875 C 4.472656 -0.753906 4.382812 -0.335938 4.375 0.078125 C 4.375 0.503906 4.453125 0.914062 4.609375 1.3125 C 4.773438 1.707031 5.03125 2.054688 5.375 2.359375 C 5.550781 2.503906 5.753906 2.632812 5.984375 2.75 C 6.210938 2.875 6.457031 2.960938 6.71875 3.015625 C 6.976562 3.078125 7.25 3.09375 7.53125 3.0625 C 7.8125 3.039062 8.085938 2.957031 8.359375 2.8125 L 9.015625 4.640625 C 8.628906 4.828125 8.21875 4.929688 7.78125 4.953125 C 7.351562 4.984375 6.925781 4.953125 6.5 4.859375 C 6.070312 4.765625 5.648438 4.613281 5.234375 4.40625 C 4.828125 4.195312 4.460938 3.957031 4.140625 3.6875 C 3.578125 3.195312 3.160156 2.628906 2.890625 1.984375 C 2.628906 1.335938 2.492188 0.675781 2.484375 0 C 2.472656 -0.664062 2.582031 -1.328125 2.8125 -1.984375 C 3.039062 -2.640625 3.375 -3.226562 3.8125 -3.75 Z M 3.8125 -3.75 "/></g></g></g><g fill="#ae7b37" fill-opacity="1"><g transform="translate(73.761056, 45.146273)"><g><path d="M 0.671875 0.859375 L 8.9375 -5.609375 L 10.203125 -4 L 1.9375 2.46875 Z M 0.671875 0.859375 "/></g></g></g><g fill="#ae7b37" fill-opacity="1"><g transform="translate(76.861692, 48.577569)"><g><path d="M 2.390625 5.046875 C 2.054688 4.347656 1.882812 3.648438 1.875 2.953125 C 1.875 2.265625 2 1.609375 2.25 0.984375 C 2.5 0.359375 2.851562 -0.203125 3.3125 -0.703125 C 3.78125 -1.210938 4.316406 -1.613281 4.921875 -1.90625 C 5.546875 -2.207031 6.203125 -2.382812 6.890625 -2.4375 C 7.578125 -2.488281 8.242188 -2.414062 8.890625 -2.21875 C 9.546875 -2.019531 10.140625 -1.703125 10.671875 -1.265625 C 11.203125 -0.828125 11.628906 -0.28125 11.953125 0.375 C 12.285156 1.0625 12.453125 1.753906 12.453125 2.453125 C 12.453125 3.148438 12.320312 3.8125 12.0625 4.4375 C 11.8125 5.0625 11.453125 5.625 10.984375 6.125 C 10.515625 6.625 9.988281 7.019531 9.40625 7.3125 C 8.78125 7.613281 8.125 7.789062 7.4375 7.84375 C 6.75 7.894531 6.085938 7.828125 5.453125 7.640625 C 4.816406 7.453125 4.226562 7.132812 3.6875 6.6875 C 3.144531 6.25 2.710938 5.703125 2.390625 5.046875 Z M 5.828125 -0.046875 C 5.410156 0.148438 5.039062 0.40625 4.71875 0.71875 C 4.40625 1.03125 4.160156 1.375 3.984375 1.75 C 3.816406 2.125 3.726562 2.523438 3.71875 2.953125 C 3.707031 3.378906 3.8125 3.8125 4.03125 4.25 C 4.238281 4.695312 4.515625 5.046875 4.859375 5.296875 C 5.210938 5.546875 5.597656 5.710938 6.015625 5.796875 C 6.429688 5.890625 6.851562 5.898438 7.28125 5.828125 C 7.71875 5.765625 8.132812 5.632812 8.53125 5.4375 C 8.925781 5.238281 9.285156 4.984375 9.609375 4.671875 C 9.929688 4.359375 10.179688 4.015625 10.359375 3.640625 C 10.535156 3.265625 10.625 2.863281 10.625 2.4375 C 10.625 2.007812 10.523438 1.582031 10.328125 1.15625 C 10.109375 0.707031 9.820312 0.359375 9.46875 0.109375 C 9.113281 -0.140625 8.726562 -0.304688 8.3125 -0.390625 C 7.90625 -0.484375 7.484375 -0.492188 7.046875 -0.421875 C 6.609375 -0.359375 6.203125 -0.234375 5.828125 -0.046875 Z M 5.828125 -0.046875 "/></g></g></g><g fill="#ae7b37" fill-opacity="1"><g transform="translate(81.809261, 58.673368)"><g><path d="M 7.140625 2 L 0.515625 3.09375 L 0.171875 1.078125 L 10.53125 -0.640625 L 10.796875 0.921875 L 4.890625 7.4375 L 11.671875 6.3125 L 12.015625 8.328125 L 1.671875 10.046875 L 1.390625 8.421875 Z M 7.140625 2 "/></g></g></g><g fill="#ae7b37" fill-opacity="1"><g transform="translate(83.503848, 69.959926)"><g><path d="M 0.9375 8.5 L -0.828125 8.328125 L -0.109375 1.09375 L 10.34375 2.140625 L 9.625 9.25 L 7.828125 9.078125 L 8.34375 4 L 5.828125 3.734375 L 5.390625 8.125 L 3.75 7.96875 L 4.1875 3.578125 L 1.453125 3.296875 Z M 0.9375 8.5 "/></g></g></g><g fill="#ae7b37" fill-opacity="1"><g transform="translate(82.581434, 79.037379)"><g><path d="M 4.875 9.5 C 4.957031 9.46875 5.082031 9.382812 5.25 9.25 C 5.425781 9.113281 5.609375 8.941406 5.796875 8.734375 C 5.992188 8.523438 6.179688 8.289062 6.359375 8.03125 C 6.535156 7.769531 6.675781 7.488281 6.78125 7.1875 C 6.96875 6.664062 7.003906 6.238281 6.890625 5.90625 C 6.785156 5.570312 6.554688 5.34375 6.203125 5.21875 C 6.003906 5.144531 5.820312 5.128906 5.65625 5.171875 C 5.488281 5.222656 5.316406 5.320312 5.140625 5.46875 C 4.972656 5.613281 4.796875 5.816406 4.609375 6.078125 C 4.429688 6.335938 4.234375 6.640625 4.015625 6.984375 C 3.710938 7.410156 3.414062 7.796875 3.125 8.140625 C 2.84375 8.484375 2.539062 8.75 2.21875 8.9375 C 1.90625 9.132812 1.5625 9.253906 1.1875 9.296875 C 0.820312 9.347656 0.414062 9.296875 -0.03125 9.140625 C -0.5625 8.953125 -0.976562 8.6875 -1.28125 8.34375 C -1.59375 8.007812 -1.804688 7.632812 -1.921875 7.21875 C -2.035156 6.800781 -2.066406 6.347656 -2.015625 5.859375 C -1.972656 5.378906 -1.867188 4.898438 -1.703125 4.421875 C -1.429688 3.671875 -1.050781 2.972656 -0.5625 2.328125 C -0.0820312 1.691406 0.457031 1.15625 1.0625 0.71875 L 2.421875 2.171875 C 2.316406 2.210938 2.15625 2.316406 1.9375 2.484375 C 1.726562 2.660156 1.503906 2.875 1.265625 3.125 C 1.023438 3.375 0.796875 3.664062 0.578125 4 C 0.359375 4.332031 0.179688 4.691406 0.046875 5.078125 C -0.328125 6.128906 -0.175781 6.769531 0.5 7 C 0.71875 7.082031 0.921875 7.085938 1.109375 7.015625 C 1.296875 6.953125 1.484375 6.828125 1.671875 6.640625 C 1.867188 6.453125 2.066406 6.210938 2.265625 5.921875 C 2.472656 5.640625 2.703125 5.320312 2.953125 4.96875 C 3.242188 4.550781 3.523438 4.191406 3.796875 3.890625 C 4.066406 3.597656 4.347656 3.375 4.640625 3.21875 C 4.941406 3.0625 5.25 2.972656 5.5625 2.953125 C 5.882812 2.929688 6.234375 2.984375 6.609375 3.109375 C 7.117188 3.296875 7.53125 3.550781 7.84375 3.875 C 8.164062 4.195312 8.398438 4.566406 8.546875 4.984375 C 8.691406 5.398438 8.753906 5.847656 8.734375 6.328125 C 8.722656 6.816406 8.628906 7.3125 8.453125 7.8125 C 8.203125 8.507812 7.863281 9.113281 7.4375 9.625 C 7.019531 10.144531 6.585938 10.570312 6.140625 10.90625 Z M 4.875 9.5 "/></g></g></g></g></g></g><path fill="#e6cfc8" d="M 244.480469 158.707031 C 244.671875 158.824219 244.355469 159.5 244.296875 159.648438 C 243.902344 160.667969 243.453125 161.703125 242.9375 162.671875 C 242.5 163.492188 242.210938 164.488281 241.667969 165.253906 C 240.035156 167.566406 234.53125 170.925781 232.382812 167.707031 C 230.582031 165 235.574219 162.074219 237.289062 161.09375 C 237.964844 160.707031 238.601562 160.40625 239.347656 160.171875 C 240.398438 159.84375 241.449219 159.472656 242.5 159.121094 C 242.832031 159.011719 243.164062 158.777344 243.507812 158.726562 C 243.691406 158.703125 244.199219 158.636719 244.035156 158.550781 C 243.902344 158.484375 243.132812 158.738281 242.984375 158.773438 C 242.101562 158.960938 241.171875 159.039062 240.265625 159.121094 C 239.453125 159.195312 238.632812 159.164062 237.816406 159.164062 C 235.203125 159.164062 228.351562 158.085938 229.1875 153.910156 C 229.507812 152.308594 231.390625 152.171875 232.691406 152.246094 C 235.714844 152.414062 238.542969 154.679688 241.101562 156.054688 C 241.796875 156.429688 242.453125 156.84375 243.160156 157.195312 C 243.503906 157.367188 243.828125 157.597656 244.164062 157.765625 C 244.25 157.804688 244.382812 157.941406 244.382812 157.941406 C 244.382812 157.941406 244.199219 157.867188 244.121094 157.808594 C 243.753906 157.53125 243.269531 157.316406 242.984375 156.933594 C 242.316406 156.046875 241.558594 155.136719 240.878906 154.214844 C 240.410156 153.578125 240.050781 152.910156 239.699219 152.203125 C 238.453125 149.707031 236.195312 143.574219 240.398438 142.523438 C 241.714844 142.191406 242.648438 143.183594 243.464844 144.054688 C 245.902344 146.65625 245.421875 150.609375 245.171875 153.867188 C 245.09375 154.898438 245.203125 156.066406 244.953125 157.0625 C 244.851562 157.476562 244.949219 157.953125 244.867188 158.378906 C 244.855469 158.421875 244.824219 158.507812 244.824219 158.507812 L 244.824219 158.289062 C 244.824219 157.933594 244.992188 157.488281 245.085938 157.152344 C 245.28125 156.453125 245.519531 155.683594 245.875 155.046875 C 247.234375 152.601562 248.507812 147.242188 252.269531 147.777344 C 255.378906 148.222656 255.679688 151.660156 254.238281 153.824219 C 252.921875 155.800781 247.59375 158.859375 244.996094 158.859375 C 244.867188 158.859375 245.261719 158.882812 245.390625 158.859375 C 245.691406 158.808594 246.015625 158.746094 246.3125 158.683594 C 247.257812 158.480469 248.191406 158.300781 249.160156 158.203125 C 251.679688 157.949219 254.949219 158.035156 256.867188 159.953125 C 257.539062 160.625 258.472656 161.5625 258.183594 162.625 C 257.890625 163.6875 256.507812 164.105469 255.554688 164.160156 C 252.574219 164.324219 250.546875 162.667969 248.109375 161.179688 C 247.347656 160.71875 246.675781 160.160156 245.917969 159.691406 C 245.832031 159.636719 244.996094 159.246094 244.996094 159.035156 C 244.996094 158.828125 245.332031 159.28125 245.480469 159.429688 C 245.71875 159.667969 245.9375 159.933594 246.179688 160.171875 C 246.867188 160.863281 247.367188 161.617188 247.933594 162.40625 C 249.359375 164.402344 250.566406 167.511719 249.945312 169.984375 C 249.699219 170.96875 249.257812 172.136719 248.238281 172.570312 C 246.03125 173.507812 244.597656 172.003906 243.597656 170.246094 C 241.996094 167.449219 244.480469 161.796875 244.480469 158.707031 Z M 244.480469 158.707031 " fill-opacity="1" fill-rule="evenodd"/><g clip-path="url(#596b7c82f0)"><path fill="#e6cfc8" d="M 238.003906 159.894531 L 237.988281 159.902344 C 237.628906 160.0625 237.28125 160.246094 236.921875 160.449219 C 235.679688 161.15625 232.847656 162.851562 231.757812 164.75 C 231.128906 165.839844 231.007812 166.996094 231.757812 168.125 C 232.84375 169.753906 234.617188 170.0625 236.484375 169.585938 C 238.8125 168.996094 241.261719 167.152344 242.292969 165.695312 C 242.480469 165.429688 242.640625 165.140625 242.789062 164.84375 C 242.8125 164.796875 242.832031 164.75 242.855469 164.703125 C 242.71875 165.402344 242.609375 166.09375 242.550781 166.757812 C 242.421875 168.210938 242.542969 169.53125 243.109375 170.527344 C 243.785156 171.714844 244.664062 172.777344 245.78125 173.207031 C 246.550781 173.503906 247.433594 173.527344 248.460938 173.089844 C 248.96875 172.875 249.367188 172.519531 249.675781 172.082031 C 250.085938 171.503906 250.335938 170.777344 250.5 170.125 C 250.773438 169.042969 250.726562 167.847656 250.46875 166.664062 C 250.097656 164.976562 249.292969 163.316406 248.40625 162.070312 L 248.390625 162.050781 C 249.65625 162.847656 250.84375 163.648438 252.136719 164.167969 C 253.183594 164.585938 254.304688 164.828125 255.585938 164.757812 C 256.246094 164.71875 257.078125 164.527344 257.71875 164.121094 C 258.21875 163.804688 258.605469 163.359375 258.761719 162.785156 C 258.921875 162.207031 258.824219 161.660156 258.578125 161.148438 C 258.277344 160.527344 257.738281 159.972656 257.296875 159.527344 C 256.445312 158.675781 255.359375 158.144531 254.175781 157.839844 C 253.035156 157.546875 251.808594 157.464844 250.640625 157.492188 C 252.46875 156.449219 254.097656 155.171875 254.765625 154.171875 C 255.582031 152.945312 255.898438 151.355469 255.578125 150.007812 C 255.238281 148.585938 254.222656 147.414062 252.359375 147.144531 C 250.976562 146.945312 249.875 147.414062 248.96875 148.25 C 247.550781 149.558594 246.65625 151.875 245.855469 153.625 C 246.007812 151.699219 246.199219 149.5625 245.851562 147.601562 C 245.589844 146.121094 245.027344 144.742188 243.953125 143.597656 C 243.40625 143.011719 242.800781 142.394531 242.097656 142.058594 C 241.542969 141.796875 240.929688 141.695312 240.234375 141.867188 C 238.152344 142.386719 237.363281 143.929688 237.292969 145.792969 C 237.203125 148.113281 238.316406 150.972656 239.082031 152.507812 C 239.304688 152.949219 239.527344 153.375 239.773438 153.789062 C 239.941406 154.074219 240.125 154.351562 240.324219 154.625 L 240.585938 154.960938 C 239.300781 154.207031 237.957031 153.316406 236.554688 152.640625 C 235.320312 152.042969 234.039062 151.613281 232.730469 151.539062 C 231.835938 151.488281 230.707031 151.542969 229.863281 151.972656 C 229.183594 152.320312 228.664062 152.882812 228.484375 153.769531 C 228.074219 155.820312 229.15625 157.277344 230.855469 158.25 C 233.007812 159.480469 236.191406 159.890625 237.816406 159.890625 Z M 246.382812 159.300781 L 246.441406 159.289062 C 247 159.167969 247.554688 159.054688 248.113281 158.960938 C 248.476562 158.902344 248.847656 158.851562 249.21875 158.8125 C 250.65625 158.667969 252.351562 158.628906 253.875 159.019531 C 254.84375 159.265625 255.742188 159.6875 256.441406 160.382812 C 256.796875 160.738281 257.25 161.175781 257.492188 161.675781 C 257.609375 161.921875 257.675781 162.1875 257.601562 162.46875 C 257.503906 162.832031 257.195312 163.066406 256.851562 163.230469 C 256.425781 163.441406 255.925781 163.539062 255.519531 163.5625 C 254.425781 163.625 253.472656 163.417969 252.578125 163.0625 C 251.140625 162.492188 249.851562 161.550781 248.414062 160.675781 Z M 245.605469 158.1875 L 245.65625 158.179688 L 245.914062 158.132812 C 247.035156 157.894531 248.425781 157.292969 249.734375 156.570312 C 251.476562 155.605469 253.085938 154.417969 253.714844 153.472656 C 254.335938 152.539062 254.589844 151.328125 254.34375 150.304688 C 254.117188 149.355469 253.425781 148.585938 252.179688 148.410156 C 250.886719 148.226562 249.960938 148.914062 249.222656 149.886719 C 247.976562 151.523438 247.230469 153.945312 246.441406 155.363281 C 246.316406 155.59375 246.203125 155.84375 246.105469 156.101562 C 245.949219 156.503906 245.824219 156.925781 245.714844 157.324219 C 245.667969 157.488281 245.605469 157.675781 245.554688 157.867188 C 245.554688 157.964844 245.558594 158.058594 245.550781 158.152344 L 245.550781 158.195312 Z M 244.886719 160.25 C 244.578125 162.230469 243.847656 164.695312 243.660156 166.855469 C 243.558594 168.054688 243.613281 169.148438 244.082031 169.96875 C 244.539062 170.761719 245.082031 171.507812 245.769531 171.941406 C 246.386719 172.328125 247.125 172.425781 248.015625 172.046875 C 248.410156 171.878906 248.683594 171.5625 248.890625 171.199219 C 249.128906 170.777344 249.28125 170.289062 249.394531 169.847656 C 249.675781 168.703125 249.527344 167.410156 249.152344 166.175781 C 248.765625 164.90625 248.140625 163.691406 247.460938 162.746094 C 247.125 162.277344 246.816406 161.824219 246.472656 161.386719 C 246.253906 161.109375 246.027344 160.84375 245.769531 160.585938 L 245.160156 159.941406 C 245.121094 159.917969 245.078125 159.894531 245.039062 159.867188 L 245.015625 159.925781 C 244.972656 160.03125 244.929688 160.140625 244.886719 160.25 Z M 244.289062 157.035156 L 243.804688 156.761719 C 243.707031 156.691406 243.609375 156.613281 243.539062 156.515625 L 241.4375 153.808594 C 241.214844 153.511719 241.023438 153.207031 240.84375 152.890625 C 240.65625 152.570312 240.484375 152.234375 240.3125 151.894531 C 239.617188 150.507812 238.574219 147.9375 238.648438 145.84375 C 238.695312 144.59375 239.167969 143.527344 240.5625 143.175781 C 241.023438 143.0625 241.414062 143.191406 241.765625 143.410156 C 242.214844 143.695312 242.605469 144.121094 242.976562 144.515625 C 243.867188 145.460938 244.320312 146.609375 244.539062 147.835938 C 244.890625 149.785156 244.660156 151.921875 244.515625 153.816406 C 244.460938 154.53125 244.496094 155.316406 244.441406 156.0625 C 244.421875 156.351562 244.382812 156.636719 244.316406 156.90625 C 244.308594 156.949219 244.296875 156.992188 244.289062 157.035156 Z M 243.535156 159.488281 C 243.355469 159.949219 243.164062 160.410156 242.960938 160.867188 C 242.746094 161.359375 242.511719 161.839844 242.261719 162.308594 C 241.953125 162.890625 241.714844 163.554688 241.417969 164.167969 C 241.304688 164.394531 241.1875 164.613281 241.046875 164.8125 C 240.171875 166.054688 238.085938 167.617188 236.113281 168.121094 C 234.898438 168.433594 233.714844 168.347656 233.007812 167.289062 C 232.457031 166.464844 232.863281 165.625 233.503906 164.855469 C 234.675781 163.453125 236.703125 162.285156 237.65625 161.738281 C 237.972656 161.554688 238.28125 161.394531 238.597656 161.25 C 238.90625 161.109375 239.226562 160.984375 239.566406 160.878906 L 242.734375 159.820312 Z M 243.109375 157.964844 L 243.125 157.976562 C 242.988281 158.011719 242.878906 158.046875 242.828125 158.054688 C 242.496094 158.128906 242.152344 158.183594 241.808594 158.230469 C 241.273438 158.300781 240.734375 158.347656 240.203125 158.394531 C 239.894531 158.425781 239.585938 158.4375 239.277344 158.441406 C 238.789062 158.449219 238.300781 158.4375 237.816406 158.4375 C 236.359375 158.441406 233.5 158.101562 231.570312 157 C 230.429688 156.351562 229.613281 155.425781 229.886719 154.050781 C 229.988281 153.53125 230.367188 153.265625 230.804688 153.121094 C 231.390625 152.925781 232.085938 152.921875 232.652344 152.953125 C 233.78125 153.015625 234.878906 153.398438 235.941406 153.910156 C 237.636719 154.726562 239.25 155.855469 240.769531 156.671875 L 242.847656 157.816406 Z M 243.109375 157.964844 " fill-opacity="1" fill-rule="evenodd"/></g><g clip-path="url(#59edce28c8)"><path fill="#e6cfc8" d="M 260.96875 131.144531 C 261.101562 131.238281 260.875 131.777344 260.835938 131.894531 C 260.554688 132.714844 260.234375 133.539062 259.867188 134.3125 C 259.554688 134.96875 259.351562 135.765625 258.964844 136.378906 C 257.804688 138.226562 253.882812 140.914062 252.355469 138.339844 C 251.074219 136.175781 254.625 133.835938 255.847656 133.050781 C 256.328125 132.742188 256.78125 132.503906 257.3125 132.316406 C 258.058594 132.054688 258.808594 131.757812 259.558594 131.476562 C 259.792969 131.386719 260.03125 131.199219 260.273438 131.160156 C 260.40625 131.140625 260.765625 131.085938 260.648438 131.019531 C 260.554688 130.964844 260.007812 131.167969 259.898438 131.195312 C 259.273438 131.347656 258.609375 131.410156 257.96875 131.476562 C 257.386719 131.535156 256.804688 131.511719 256.222656 131.511719 C 254.363281 131.511719 249.484375 130.648438 250.082031 127.308594 C 250.308594 126.027344 251.648438 125.917969 252.574219 125.976562 C 254.726562 126.113281 256.742188 127.921875 258.558594 129.023438 C 259.054688 129.324219 259.523438 129.652344 260.023438 129.933594 C 260.269531 130.074219 260.503906 130.253906 260.742188 130.390625 C 260.800781 130.421875 260.898438 130.53125 260.898438 130.53125 C 260.898438 130.53125 260.765625 130.472656 260.710938 130.425781 C 260.449219 130.203125 260.105469 130.03125 259.898438 129.722656 C 259.425781 129.015625 258.886719 128.289062 258.402344 127.554688 C 258.070312 127.042969 257.8125 126.507812 257.5625 125.941406 C 256.675781 123.949219 255.070312 119.042969 258.0625 118.203125 C 258.996094 117.941406 259.664062 118.734375 260.242188 119.429688 C 261.980469 121.507812 261.636719 124.667969 261.457031 127.273438 C 261.402344 128.097656 261.480469 129.03125 261.304688 129.828125 C 261.230469 130.160156 261.300781 130.542969 261.242188 130.878906 C 261.234375 130.917969 261.210938 130.984375 261.210938 130.984375 L 261.210938 130.808594 C 261.210938 130.523438 261.328125 130.167969 261.398438 129.898438 C 261.535156 129.339844 261.707031 128.726562 261.957031 128.21875 C 262.925781 126.261719 263.832031 121.976562 266.507812 122.40625 C 268.722656 122.761719 268.9375 125.507812 267.910156 127.238281 C 266.972656 128.820312 263.179688 131.265625 261.335938 131.265625 C 261.242188 131.265625 261.523438 131.28125 261.613281 131.265625 C 261.828125 131.226562 262.058594 131.175781 262.269531 131.125 C 262.945312 130.960938 263.605469 130.816406 264.296875 130.738281 C 266.089844 130.539062 268.417969 130.605469 269.78125 132.140625 C 270.261719 132.679688 270.925781 133.425781 270.71875 134.277344 C 270.511719 135.125 269.527344 135.460938 268.847656 135.503906 C 266.726562 135.636719 265.285156 134.308594 263.546875 133.121094 C 263.007812 132.75 262.527344 132.304688 261.988281 131.929688 C 261.925781 131.886719 261.335938 131.574219 261.335938 131.40625 C 261.335938 131.238281 261.574219 131.601562 261.675781 131.71875 C 261.847656 131.914062 262.003906 132.121094 262.175781 132.316406 C 262.664062 132.867188 263.023438 133.472656 263.421875 134.101562 C 264.4375 135.699219 265.296875 138.183594 264.855469 140.160156 C 264.679688 140.949219 264.367188 141.878906 263.640625 142.226562 C 262.070312 142.976562 261.050781 141.773438 260.335938 140.371094 C 259.199219 138.132812 260.96875 133.613281 260.96875 131.144531 Z M 260.96875 131.144531 " fill-opacity="1" fill-rule="evenodd"/></g><g clip-path="url(#af5a83001b)"><path fill="#e6cfc8" d="M 255.777344 132.222656 C 255.667969 132.289062 255.558594 132.355469 255.445312 132.425781 C 254.53125 133.015625 252.425781 134.4375 251.660156 136.019531 C 251.238281 136.898438 251.175781 137.820312 251.710938 138.722656 C 252.550781 140.148438 253.933594 140.398438 255.390625 139.972656 C 257 139.5 258.6875 138.117188 259.496094 136.960938 C 259.46875 137.167969 259.445312 137.371094 259.429688 137.574219 C 259.335938 138.75 259.425781 139.820312 259.835938 140.625 C 260.320312 141.582031 260.953125 142.433594 261.746094 142.804688 C 262.355469 143.09375 263.0625 143.132812 263.886719 142.738281 C 264.285156 142.550781 264.59375 142.234375 264.832031 141.847656 C 265.121094 141.382812 265.296875 140.808594 265.414062 140.285156 C 265.652344 139.21875 265.554688 138.015625 265.25 136.863281 C 265.007812 135.953125 264.640625 135.074219 264.230469 134.324219 C 264.914062 134.8125 265.578125 135.269531 266.292969 135.59375 C 267.078125 135.953125 267.917969 136.160156 268.882812 136.101562 C 269.398438 136.070312 270.054688 135.894531 270.546875 135.53125 C 270.910156 135.261719 271.1875 134.894531 271.304688 134.417969 C 271.417969 133.953125 271.351562 133.507812 271.179688 133.09375 C 270.960938 132.574219 270.5625 132.109375 270.234375 131.738281 C 269.617188 131.042969 268.828125 130.605469 267.972656 130.347656 C 267.273438 130.140625 266.523438 130.058594 265.796875 130.046875 C 266.984375 129.242188 268.011719 128.304688 268.453125 127.558594 C 269.160156 126.375 269.347656 124.773438 268.867188 123.578125 C 268.5 122.664062 267.769531 121.960938 266.609375 121.773438 C 265.503906 121.59375 264.628906 122.03125 263.917969 122.8125 C 263.195312 123.605469 262.667969 124.804688 262.214844 125.929688 C 262.289062 124.726562 262.320312 123.472656 262.140625 122.296875 C 261.953125 121.078125 261.542969 119.941406 260.757812 118.996094 C 260.363281 118.523438 259.921875 118.023438 259.414062 117.742188 C 258.957031 117.492188 258.453125 117.390625 257.878906 117.550781 C 256.300781 117.992188 255.683594 119.300781 255.648438 120.898438 C 255.609375 122.75 256.394531 125.003906 256.933594 126.222656 C 257.089844 126.578125 257.25 126.917969 257.425781 127.25 C 257.480469 127.351562 257.535156 127.453125 257.59375 127.550781 C 256.707031 126.945312 255.78125 126.308594 254.824219 125.867188 C 254.105469 125.539062 253.367188 125.316406 252.617188 125.269531 C 251.917969 125.222656 251.027344 125.285156 250.375 125.6875 C 249.886719 125.988281 249.507812 126.453125 249.375 127.183594 C 249.082031 128.816406 249.820312 129.984375 250.988281 130.789062 C 252.394531 131.753906 254.476562 132.148438 255.777344 132.222656 Z M 262.621094 131.675781 C 262.882812 131.613281 263.136719 131.554688 263.394531 131.503906 C 263.714844 131.441406 264.035156 131.386719 264.363281 131.351562 C 265.371094 131.234375 266.5625 131.203125 267.625 131.515625 C 268.269531 131.707031 268.867188 132.023438 269.328125 132.542969 C 269.546875 132.785156 269.808594 133.070312 269.984375 133.398438 C 270.109375 133.621094 270.195312 133.867188 270.132812 134.136719 C 270.074219 134.378906 269.894531 134.539062 269.691406 134.65625 C 269.410156 134.8125 269.078125 134.886719 268.808594 134.90625 C 268.054688 134.953125 267.402344 134.789062 266.785156 134.507812 C 265.785156 134.054688 264.886719 133.320312 263.878906 132.632812 Z M 261.917969 130.570312 L 262.03125 130.054688 C 262.109375 129.742188 262.195312 129.40625 262.304688 129.085938 C 262.375 128.882812 262.453125 128.6875 262.539062 128.507812 C 263.085938 127.398438 263.605469 125.535156 264.453125 124.226562 C 264.941406 123.472656 265.535156 122.898438 266.40625 123.035156 C 267.242188 123.167969 267.679688 123.777344 267.816406 124.5 C 267.96875 125.289062 267.792969 126.203125 267.371094 126.917969 C 266.9375 127.644531 265.835938 128.558594 264.644531 129.308594 C 263.742188 129.875 262.785156 130.355469 262.003906 130.550781 Z M 261.367188 132.703125 L 261.453125 132.460938 L 261.476562 132.394531 L 261.738281 132.703125 C 261.921875 132.90625 262.082031 133.117188 262.234375 133.335938 C 262.476562 133.683594 262.695312 134.042969 262.933594 134.414062 C 263.414062 135.171875 263.863281 136.144531 264.132812 137.160156 C 264.394531 138.128906 264.496094 139.140625 264.296875 140.035156 C 264.222656 140.378906 264.121094 140.75 263.957031 141.078125 C 263.824219 141.347656 263.652344 141.589844 263.394531 141.714844 C 262.820312 141.988281 262.347656 141.910156 261.957031 141.617188 C 261.5 141.277344 261.144531 140.714844 260.835938 140.117188 C 260.507812 139.46875 260.472656 138.605469 260.542969 137.660156 C 260.667969 136.046875 261.125 134.222656 261.367188 132.703125 Z M 260.691406 129.53125 L 260.625 129.492188 C 260.570312 129.445312 260.519531 129.398438 260.476562 129.339844 L 258.980469 127.175781 C 258.828125 126.9375 258.691406 126.699219 258.5625 126.453125 C 258.433594 126.195312 258.3125 125.933594 258.191406 125.664062 C 257.707031 124.578125 256.980469 122.574219 257.011719 120.925781 C 257.027344 119.964844 257.296875 119.121094 258.242188 118.851562 C 258.503906 118.78125 258.71875 118.878906 258.917969 119.019531 C 259.21875 119.242188 259.480469 119.5625 259.726562 119.859375 C 260.355469 120.609375 260.671875 121.527344 260.824219 122.5 C 261.0625 124.042969 260.902344 125.730469 260.800781 127.226562 C 260.761719 127.800781 260.789062 128.425781 260.75 129.023438 C 260.738281 129.195312 260.71875 129.367188 260.691406 129.53125 Z M 259.949219 132.101562 C 259.859375 132.347656 259.769531 132.589844 259.671875 132.835938 C 259.519531 133.226562 259.351562 133.609375 259.175781 133.984375 C 258.957031 134.449219 258.789062 134.980469 258.574219 135.472656 C 258.5 135.648438 258.417969 135.816406 258.320312 135.972656 C 257.722656 136.921875 256.308594 138.121094 254.960938 138.523438 C 254.199219 138.75 253.445312 138.703125 253.003906 137.957031 C 252.644531 137.355469 252.898438 136.746094 253.300781 136.183594 C 254.109375 135.058594 255.570312 134.113281 256.25 133.675781 C 256.464844 133.535156 256.675781 133.410156 256.894531 133.300781 C 257.105469 133.191406 257.324219 133.097656 257.558594 133.011719 L 259.816406 132.164062 Z M 259.625 130.507812 C 259.429688 130.550781 259.226562 130.585938 259.027344 130.617188 C 258.648438 130.671875 258.269531 130.710938 257.894531 130.75 C 257.683594 130.769531 257.46875 130.78125 257.257812 130.785156 C 256.914062 130.789062 256.566406 130.78125 256.222656 130.785156 C 255.191406 130.785156 253.132812 130.511719 251.804688 129.601562 C 251.09375 129.113281 250.609375 128.425781 250.785156 127.433594 C 250.84375 127.097656 251.046875 126.914062 251.292969 126.816406 C 251.679688 126.660156 252.148438 126.664062 252.53125 126.6875 C 253.308594 126.734375 254.0625 127.039062 254.796875 127.4375 C 255.992188 128.085938 257.128906 128.976562 258.195312 129.625 Z M 259.625 130.507812 " fill-opacity="1" fill-rule="evenodd"/></g><path fill="#d8990b" d="M 243.675781 156.332031 C 244.011719 156.332031 244.335938 156.390625 244.644531 156.507812 C 244.953125 156.625 245.226562 156.792969 245.464844 157.011719 C 245.703125 157.230469 245.886719 157.484375 246.015625 157.769531 C 246.144531 158.054688 246.207031 158.351562 246.207031 158.660156 C 246.207031 158.96875 246.144531 159.265625 246.015625 159.550781 C 245.886719 159.835938 245.703125 160.089844 245.464844 160.308594 C 245.226562 160.527344 244.953125 160.695312 244.644531 160.8125 C 244.335938 160.929688 244.011719 160.988281 243.675781 160.988281 C 243.339844 160.988281 243.015625 160.929688 242.707031 160.8125 C 242.398438 160.695312 242.125 160.527344 241.886719 160.308594 C 241.648438 160.089844 241.464844 159.835938 241.335938 159.550781 C 241.210938 159.265625 241.144531 158.96875 241.144531 158.660156 C 241.144531 158.351562 241.210938 158.054688 241.335938 157.769531 C 241.464844 157.484375 241.648438 157.230469 241.886719 157.011719 C 242.125 156.792969 242.398438 156.625 242.707031 156.507812 C 243.015625 156.390625 243.339844 156.332031 243.675781 156.332031 Z M 243.675781 156.332031 " fill-opacity="1" fill-rule="nonzero"/><path fill="#d8990b" d="M 240.597656 158.660156 C 240.585938 159.484375 240.949219 160.234375 241.542969 160.773438 C 242.089844 161.273438 242.84375 161.582031 243.675781 161.59375 C 244.515625 161.605469 245.277344 161.300781 245.847656 160.816406 C 246.472656 160.277344 246.855469 159.507812 246.867188 158.660156 C 246.878906 157.800781 246.5 157.023438 245.882812 156.464844 C 245.316406 155.945312 244.535156 155.628906 243.675781 155.613281 C 242.808594 155.601562 242.019531 155.917969 241.433594 156.421875 C 240.78125 156.980469 240.386719 157.777344 240.375 158.660156 Z M 241.917969 158.660156 C 241.910156 158.222656 242.101562 157.824219 242.417969 157.535156 C 242.742188 157.242188 243.183594 157.054688 243.675781 157.046875 C 244.175781 157.039062 244.632812 157.203125 244.972656 157.496094 C 245.3125 157.789062 245.539062 158.195312 245.546875 158.660156 C 245.554688 159.132812 245.347656 159.558594 245.007812 159.867188 C 244.664062 160.179688 244.195312 160.378906 243.675781 160.386719 C 243.148438 160.394531 242.664062 160.214844 242.304688 159.910156 C 241.941406 159.597656 241.699219 159.15625 241.695312 158.660156 Z M 241.917969 158.660156 " fill-opacity="1" fill-rule="evenodd"/><g fill="#ae7b37" fill-opacity="1"><g transform="translate(54.587841, 187.363777)"><g><path d="M 5.59375 0.191406 C 6.886719 0.191406 9.085938 0.144531 10.234375 0 C 10.808594 -0.09375 11.335938 -0.476562 11.335938 -1.195312 C 11.191406 -2.964844 11.382812 -4.925781 11.71875 -6.359375 C 12.242188 -7.746094 13.726562 -8.5625 15.734375 -8.609375 L 19.128906 -8.609375 C 21.140625 -8.5625 22.667969 -7.84375 23.148438 -6.359375 C 23.484375 -4.832031 23.675781 -2.917969 23.578125 -1.195312 C 23.53125 -0.476562 24.054688 -0.09375 24.628906 0 C 25.730469 0.144531 27.976562 0.191406 28.886719 0.191406 C 29.746094 0.191406 32.1875 0.144531 33.191406 0.046875 C 34.003906 -0.046875 34.484375 -0.621094 34.242188 -1.433594 C 31.660156 -12.863281 27.214844 -25.253906 23.578125 -32.664062 C 23.339844 -33.09375 22.910156 -33.382812 22.382812 -33.476562 C 20.949219 -33.667969 18.699219 -33.667969 17.410156 -33.667969 C 16.117188 -33.667969 13.871094 -33.667969 12.484375 -33.476562 C 11.957031 -33.382812 11.527344 -33.09375 11.335938 -32.664062 C 7.652344 -25.203125 3.203125 -12.914062 0.621094 -1.433594 C 0.382812 -0.667969 0.859375 -0.09375 1.722656 0 C 2.679688 0.09375 4.496094 0.191406 5.59375 0.191406 Z M 16.691406 -12.769531 C 14.777344 -12.863281 13.964844 -13.679688 14.394531 -15.113281 C 14.875 -17.742188 15.589844 -20.613281 16.453125 -23.339844 C 17.027344 -25.011719 17.792969 -25.011719 18.414062 -23.339844 C 19.226562 -20.613281 20.039062 -17.742188 20.46875 -15.113281 C 20.949219 -13.726562 20.085938 -12.863281 18.175781 -12.769531 Z M 16.691406 -12.769531 "/></g></g></g><g fill="#ae7b37" fill-opacity="1"><g transform="translate(90.551453, 187.363777)"><g><path d="M 15.351562 0.191406 C 19.417969 0.191406 26.878906 0.191406 30.128906 0 C 30.847656 -0.046875 31.277344 -0.527344 31.230469 -1.195312 C 31.132812 -3.585938 30.847656 -9.996094 30.5625 -12.433594 C 30.464844 -13.773438 29.03125 -13.964844 28.410156 -12.863281 C 26.160156 -9.039062 23.675781 -7.605469 18.222656 -7.605469 C 13.390625 -7.605469 10.808594 -9.375 10.761719 -13.152344 C 10.761719 -20.324219 11.957031 -25.875 13.246094 -31.996094 C 13.4375 -32.761719 12.816406 -33.382812 12.003906 -33.476562 C 10.855469 -33.621094 9.566406 -33.667969 8.371094 -33.667969 C 6.601562 -33.667969 5.261719 -33.667969 3.585938 -33.476562 C 2.871094 -33.382812 2.296875 -33.046875 2.246094 -32.332031 C 1.625 -24.4375 1.242188 -11.476562 1.148438 -1.292969 C 1.148438 -0.527344 1.722656 -0.046875 2.488281 0 C 4.734375 0.144531 11.910156 0.191406 15.351562 0.191406 Z M 15.351562 0.191406 "/></g></g></g><g fill="#ae7b37" fill-opacity="1"><g transform="translate(123.693459, 187.363777)"><g><path d="M 15.351562 0.191406 C 19.417969 0.191406 26.878906 0.191406 30.128906 0 C 30.847656 -0.046875 31.277344 -0.527344 31.230469 -1.195312 C 31.132812 -3.585938 30.847656 -9.996094 30.5625 -12.433594 C 30.464844 -13.773438 29.03125 -13.964844 28.410156 -12.863281 C 26.160156 -9.039062 23.675781 -7.605469 18.222656 -7.605469 C 13.390625 -7.605469 10.808594 -9.375 10.761719 -13.152344 C 10.761719 -20.324219 11.957031 -25.875 13.246094 -31.996094 C 13.4375 -32.761719 12.816406 -33.382812 12.003906 -33.476562 C 10.855469 -33.621094 9.566406 -33.667969 8.371094 -33.667969 C 6.601562 -33.667969 5.261719 -33.667969 3.585938 -33.476562 C 2.871094 -33.382812 2.296875 -33.046875 2.246094 -32.332031 C 1.625 -24.4375 1.242188 -11.476562 1.148438 -1.292969 C 1.148438 -0.527344 1.722656 -0.046875 2.488281 0 C 4.734375 0.144531 11.910156 0.191406 15.351562 0.191406 Z M 15.351562 0.191406 "/></g></g></g><g fill="#ae7b37" fill-opacity="1"><g transform="translate(156.835468, 187.363777)"><g><path d="M 15.878906 0.191406 C 16.835938 0.191406 19.082031 0.144531 20.132812 0 C 20.804688 -0.09375 21.425781 -0.574219 21.378906 -1.292969 C 21.1875 -4.640625 20.757812 -8.5625 20.039062 -13.628906 C 19.945312 -14.203125 20.039062 -14.585938 20.613281 -14.730469 C 26.066406 -16.117188 30.65625 -25.0625 31.039062 -31.949219 C 31.085938 -32.761719 30.609375 -33.382812 29.746094 -33.476562 C 28.550781 -33.667969 26.878906 -33.667969 25.875 -33.667969 C 24.871094 -33.667969 22.910156 -33.667969 21.714844 -33.476562 C 20.996094 -33.335938 20.515625 -32.902344 20.515625 -32.1875 C 20.183594 -27.117188 18.078125 -19.179688 15.78125 -19.128906 C 13.488281 -19.128906 11.527344 -26.925781 11.046875 -32.1875 C 11 -32.902344 10.523438 -33.382812 9.804688 -33.476562 C 8.5625 -33.667969 6.550781 -33.667969 5.59375 -33.667969 C 4.589844 -33.667969 2.964844 -33.621094 1.769531 -33.476562 C 0.910156 -33.335938 0.429688 -32.761719 0.476562 -31.949219 C 0.859375 -25.0625 5.546875 -16.308594 11 -14.777344 C 11.527344 -14.585938 11.667969 -14.253906 11.574219 -13.679688 C 10.855469 -8.609375 10.378906 -4.589844 10.140625 -1.292969 C 10.089844 -0.621094 10.664062 -0.09375 11.382812 0 C 12.53125 0.144531 14.824219 0.191406 15.878906 0.191406 Z M 15.878906 0.191406 "/></g></g></g><g fill="#ae7b37" fill-opacity="1"><g transform="translate(189.499226, 187.363777)"><g><path d="M 15.6875 0.191406 C 19.5625 0.191406 26.78125 0.238281 30.179688 0 C 30.847656 -0.046875 31.375 -0.527344 31.324219 -1.195312 C 31.230469 -3.394531 30.945312 -10.042969 30.800781 -12.050781 C 30.753906 -13.488281 29.363281 -13.773438 28.648438 -12.578125 C 26.496094 -9.085938 23.675781 -7.460938 18.363281 -7.460938 C 14.777344 -7.460938 13.820312 -8.753906 16.164062 -10.617188 C 19.945312 -14.921875 24.964844 -21.472656 28.21875 -25.539062 C 29.507812 -26.734375 30.082031 -27.835938 30.035156 -29.316406 C 29.988281 -30.417969 29.9375 -31.277344 29.84375 -32.28125 C 29.796875 -33 29.269531 -33.429688 28.503906 -33.476562 C 26.304688 -33.621094 19.464844 -33.667969 16.117188 -33.667969 C 12.53125 -33.667969 7.03125 -33.667969 3.875 -33.476562 C 3.203125 -33.429688 2.679688 -32.953125 2.582031 -32.234375 C 2.4375 -30.371094 2.199219 -24.535156 2.152344 -22.910156 C 2.152344 -21.664062 3.347656 -21.28125 4.113281 -22.335938 C 5.976562 -24.820312 8.894531 -26.257812 13.679688 -26.257812 C 16.117188 -26.257812 18.363281 -25.253906 15.351562 -22.957031 C 11.382812 -18.507812 6.601562 -12.484375 3.109375 -8.320312 C 1.722656 -7.03125 0.957031 -6.167969 0.910156 -4.542969 C 0.910156 -3.253906 0.910156 -2.582031 0.859375 -1.292969 C 0.859375 -0.574219 1.433594 -0.046875 2.246094 0 C 4.6875 0.144531 12.101562 0.191406 15.6875 0.191406 Z M 15.6875 0.191406 "/></g></g></g><g fill="#e6cfc8" fill-opacity="1"><g transform="translate(52.121223, 185.571673)"><g><path d="M 5.59375 0.191406 C 6.886719 0.191406 9.085938 0.144531 10.234375 0 C 10.808594 -0.09375 11.335938 -0.476562 11.335938 -1.195312 C 11.191406 -2.964844 11.382812 -4.925781 11.71875 -6.359375 C 12.242188 -7.746094 13.726562 -8.5625 15.734375 -8.609375 L 19.128906 -8.609375 C 21.140625 -8.5625 22.667969 -7.84375 23.148438 -6.359375 C 23.484375 -4.832031 23.675781 -2.917969 23.578125 -1.195312 C 23.53125 -0.476562 24.054688 -0.09375 24.628906 0 C 25.730469 0.144531 27.976562 0.191406 28.886719 0.191406 C 29.746094 0.191406 32.1875 0.144531 33.191406 0.046875 C 34.003906 -0.046875 34.484375 -0.621094 34.242188 -1.433594 C 31.660156 -12.863281 27.214844 -25.253906 23.578125 -32.664062 C 23.339844 -33.09375 22.910156 -33.382812 22.382812 -33.476562 C 20.949219 -33.667969 18.699219 -33.667969 17.410156 -33.667969 C 16.117188 -33.667969 13.871094 -33.667969 12.484375 -33.476562 C 11.957031 -33.382812 11.527344 -33.09375 11.335938 -32.664062 C 7.652344 -25.203125 3.203125 -12.914062 0.621094 -1.433594 C 0.382812 -0.667969 0.859375 -0.09375 1.722656 0 C 2.679688 0.09375 4.496094 0.191406 5.59375 0.191406 Z M 16.691406 -12.769531 C 14.777344 -12.863281 13.964844 -13.679688 14.394531 -15.113281 C 14.875 -17.742188 15.589844 -20.613281 16.453125 -23.339844 C 17.027344 -25.011719 17.792969 -25.011719 18.414062 -23.339844 C 19.226562 -20.613281 20.039062 -17.742188 20.46875 -15.113281 C 20.949219 -13.726562 20.085938 -12.863281 18.175781 -12.769531 Z M 16.691406 -12.769531 "/></g></g></g><g fill="#e6cfc8" fill-opacity="1"><g transform="translate(88.084835, 185.571673)"><g><path d="M 15.351562 0.191406 C 19.417969 0.191406 26.878906 0.191406 30.128906 0 C 30.847656 -0.046875 31.277344 -0.527344 31.230469 -1.195312 C 31.132812 -3.585938 30.847656 -9.996094 30.5625 -12.433594 C 30.464844 -13.773438 29.03125 -13.964844 28.410156 -12.863281 C 26.160156 -9.039062 23.675781 -7.605469 18.222656 -7.605469 C 13.390625 -7.605469 10.808594 -9.375 10.761719 -13.152344 C 10.761719 -20.324219 11.957031 -25.875 13.246094 -31.996094 C 13.4375 -32.761719 12.816406 -33.382812 12.003906 -33.476562 C 10.855469 -33.621094 9.566406 -33.667969 8.371094 -33.667969 C 6.601562 -33.667969 5.261719 -33.667969 3.585938 -33.476562 C 2.871094 -33.382812 2.296875 -33.046875 2.246094 -32.332031 C 1.625 -24.4375 1.242188 -11.476562 1.148438 -1.292969 C 1.148438 -0.527344 1.722656 -0.046875 2.488281 0 C 4.734375 0.144531 11.910156 0.191406 15.351562 0.191406 Z M 15.351562 0.191406 "/></g></g></g><g fill="#e6cfc8" fill-opacity="1"><g transform="translate(121.226841, 185.571673)"><g><path d="M 15.351562 0.191406 C 19.417969 0.191406 26.878906 0.191406 30.128906 0 C 30.847656 -0.046875 31.277344 -0.527344 31.230469 -1.195312 C 31.132812 -3.585938 30.847656 -9.996094 30.5625 -12.433594 C 30.464844 -13.773438 29.03125 -13.964844 28.410156 -12.863281 C 26.160156 -9.039062 23.675781 -7.605469 18.222656 -7.605469 C 13.390625 -7.605469 10.808594 -9.375 10.761719 -13.152344 C 10.761719 -20.324219 11.957031 -25.875 13.246094 -31.996094 C 13.4375 -32.761719 12.816406 -33.382812 12.003906 -33.476562 C 10.855469 -33.621094 9.566406 -33.667969 8.371094 -33.667969 C 6.601562 -33.667969 5.261719 -33.667969 3.585938 -33.476562 C 2.871094 -33.382812 2.296875 -33.046875 2.246094 -32.332031 C 1.625 -24.4375 1.242188 -11.476562 1.148438 -1.292969 C 1.148438 -0.527344 1.722656 -0.046875 2.488281 0 C 4.734375 0.144531 11.910156 0.191406 15.351562 0.191406 Z M 15.351562 0.191406 "/></g></g></g><g fill="#e6cfc8" fill-opacity="1"><g transform="translate(154.36885, 185.571673)"><g><path d="M 15.878906 0.191406 C 16.835938 0.191406 19.082031 0.144531 20.132812 0 C 20.804688 -0.09375 21.425781 -0.574219 21.378906 -1.292969 C 21.1875 -4.640625 20.757812 -8.5625 20.039062 -13.628906 C 19.945312 -14.203125 20.039062 -14.585938 20.613281 -14.730469 C 26.066406 -16.117188 30.65625 -25.0625 31.039062 -31.949219 C 31.085938 -32.761719 30.609375 -33.382812 29.746094 -33.476562 C 28.550781 -33.667969 26.878906 -33.667969 25.875 -33.667969 C 24.871094 -33.667969 22.910156 -33.667969 21.714844 -33.476562 C 20.996094 -33.335938 20.515625 -32.902344 20.515625 -32.1875 C 20.183594 -27.117188 18.078125 -19.179688 15.78125 -19.128906 C 13.488281 -19.128906 11.527344 -26.925781 11.046875 -32.1875 C 11 -32.902344 10.523438 -33.382812 9.804688 -33.476562 C 8.5625 -33.667969 6.550781 -33.667969 5.59375 -33.667969 C 4.589844 -33.667969 2.964844 -33.621094 1.769531 -33.476562 C 0.910156 -33.335938 0.429688 -32.761719 0.476562 -31.949219 C 0.859375 -25.0625 5.546875 -16.308594 11 -14.777344 C 11.527344 -14.585938 11.667969 -14.253906 11.574219 -13.679688 C 10.855469 -8.609375 10.378906 -4.589844 10.140625 -1.292969 C 10.089844 -0.621094 10.664062 -0.09375 11.382812 0 C 12.53125 0.144531 14.824219 0.191406 15.878906 0.191406 Z M 15.878906 0.191406 "/></g></g></g><g fill="#e6cfc8" fill-opacity="1"><g transform="translate(187.032608, 185.571673)"><g><path d="M 15.6875 0.191406 C 19.5625 0.191406 26.78125 0.238281 30.179688 0 C 30.847656 -0.046875 31.375 -0.527344 31.324219 -1.195312 C 31.230469 -3.394531 30.945312 -10.042969 30.800781 -12.050781 C 30.753906 -13.488281 29.363281 -13.773438 28.648438 -12.578125 C 26.496094 -9.085938 23.675781 -7.460938 18.363281 -7.460938 C 14.777344 -7.460938 13.820312 -8.753906 16.164062 -10.617188 C 19.945312 -14.921875 24.964844 -21.472656 28.21875 -25.539062 C 29.507812 -26.734375 30.082031 -27.835938 30.035156 -29.316406 C 29.988281 -30.417969 29.9375 -31.277344 29.84375 -32.28125 C 29.796875 -33 29.269531 -33.429688 28.503906 -33.476562 C 26.304688 -33.621094 19.464844 -33.667969 16.117188 -33.667969 C 12.53125 -33.667969 7.03125 -33.667969 3.875 -33.476562 C 3.203125 -33.429688 2.679688 -32.953125 2.582031 -32.234375 C 2.4375 -30.371094 2.199219 -24.535156 2.152344 -22.910156 C 2.152344 -21.664062 3.347656 -21.28125 4.113281 -22.335938 C 5.976562 -24.820312 8.894531 -26.257812 13.679688 -26.257812 C 16.117188 -26.257812 18.363281 -25.253906 15.351562 -22.957031 C 11.382812 -18.507812 6.601562 -12.484375 3.109375 -8.320312 C 1.722656 -7.03125 0.957031 -6.167969 0.910156 -4.542969 C 0.910156 -3.253906 0.910156 -2.582031 0.859375 -1.292969 C 0.859375 -0.574219 1.433594 -0.046875 2.246094 0 C 4.6875 0.144531 12.101562 0.191406 15.6875 0.191406 Z M 15.6875 0.191406 "/></g></g></g><g clip-path="url(#4c93629b36)"><g clip-path="url(#4db138cf10)"><g clip-path="url(#cc8d2403af)"><path fill="#e1ad37" d="M 226.796875 142.285156 C 226.859375 142.425781 226.414062 142.679688 226.324219 142.742188 C 225.699219 143.160156 225.042969 143.5625 224.371094 143.902344 C 223.800781 144.191406 223.246094 144.632812 222.640625 144.851562 C 220.816406 145.503906 216.402344 145.21875 216.46875 142.566406 C 216.519531 140.339844 220.476562 140.664062 221.824219 140.789062 C 222.355469 140.839844 222.832031 140.921875 223.339844 141.085938 C 224.058594 141.316406 224.796875 141.519531 225.523438 141.738281 C 225.75 141.804688 226.03125 141.804688 226.246094 141.914062 C 226.355469 141.972656 226.667969 142.132812 226.609375 142.023438 C 226.558594 141.933594 226.027344 141.773438 225.933594 141.730469 C 225.363281 141.488281 224.808594 141.167969 224.269531 140.859375 C 223.785156 140.578125 223.335938 140.238281 222.878906 139.917969 C 221.414062 138.886719 217.996094 135.582031 220.109375 133.570312 C 220.921875 132.796875 222.027344 133.464844 222.730469 134.015625 C 224.359375 135.300781 225.054688 137.6875 225.945312 139.464844 C 226.1875 139.953125 226.394531 140.441406 226.652344 140.917969 C 226.777344 141.148438 226.871094 141.40625 226.992188 141.632812 C 227.023438 141.6875 227.046875 141.816406 227.046875 141.816406 C 227.046875 141.816406 226.972656 141.703125 226.949219 141.640625 C 226.851562 141.339844 226.667969 141.027344 226.65625 140.699219 C 226.632812 139.941406 226.566406 139.128906 226.546875 138.347656 C 226.535156 137.804688 226.597656 137.289062 226.679688 136.753906 C 226.960938 134.863281 228.113281 130.535156 230.882812 131.597656 C 231.75 131.933594 231.886719 132.859375 232 133.667969 C 232.34375 136.085938 230.515625 138.113281 229.09375 139.84375 C 228.640625 140.390625 228.242188 141.089844 227.710938 141.550781 C 227.488281 141.742188 227.359375 142.046875 227.144531 142.253906 C 227.121094 142.273438 227.066406 142.308594 227.066406 142.308594 L 227.152344 142.1875 C 227.292969 141.984375 227.5625 141.804688 227.75 141.652344 C 228.132812 141.335938 228.570312 141 229.019531 140.78125 C 230.746094 139.945312 233.574219 137.441406 235.472656 139.222656 C 237.039062 140.699219 235.855469 142.746094 234.195312 143.390625 C 232.675781 143.980469 228.484375 143.597656 227.027344 142.574219 C 226.953125 142.523438 227.167969 142.691406 227.25 142.730469 C 227.4375 142.820312 227.640625 142.914062 227.832031 142.992188 C 228.445312 143.253906 229.039062 143.519531 229.621094 143.84375 C 231.132812 144.695312 232.933594 146.03125 233.253906 147.863281 C 233.367188 148.507812 233.519531 149.398438 232.9375 149.878906 C 232.359375 150.359375 231.417969 150.050781 230.859375 149.703125 C 229.125 148.625 228.640625 146.894531 227.855469 145.101562 C 227.613281 144.542969 227.457031 143.964844 227.214844 143.402344 C 227.1875 143.339844 226.875 142.792969 226.957031 142.671875 C 227.039062 142.554688 227.050781 142.945312 227.074219 143.082031 C 227.113281 143.3125 227.132812 143.546875 227.171875 143.777344 C 227.289062 144.433594 227.269531 145.054688 227.277344 145.71875 C 227.289062 147.402344 226.742188 149.621094 225.421875 150.765625 C 224.894531 151.21875 224.1875 151.699219 223.445312 151.539062 C 221.835938 151.199219 221.625 149.789062 221.753906 148.410156 C 221.960938 146.210938 225.582031 144.019531 226.796875 142.285156 Z M 226.796875 142.285156 " fill-opacity="1" fill-rule="evenodd"/></g></g></g><g clip-path="url(#0fc13a6c41)"><g clip-path="url(#f2dab4417e)"><g clip-path="url(#76e1746f88)"><path fill="#e1ad37" d="M 222.699219 140.398438 L 222.683594 140.398438 C 222.421875 140.347656 222.152344 140.3125 221.871094 140.285156 C 220.898438 140.191406 218.640625 140.027344 217.28125 140.660156 C 216.496094 141.027344 215.976562 141.628906 215.953125 142.554688 C 215.917969 143.898438 216.792969 144.769531 218.027344 145.238281 C 219.566406 145.824219 221.667969 145.753906 222.816406 145.34375 C 223.027344 145.269531 223.230469 145.171875 223.429688 145.058594 C 223.460938 145.042969 223.492188 145.027344 223.523438 145.007812 C 223.171875 145.347656 222.835938 145.691406 222.542969 146.039062 C 221.898438 146.804688 221.445312 147.589844 221.371094 148.375 C 221.285156 149.304688 221.359375 150.246094 221.816406 150.929688 C 222.128906 151.398438 222.617188 151.761719 223.363281 151.921875 C 223.734375 152 224.097656 151.957031 224.441406 151.832031 C 224.902344 151.671875 225.328125 151.363281 225.675781 151.058594 C 226.253906 150.558594 226.703125 149.871094 227.023438 149.109375 C 227.476562 148.015625 227.679688 146.765625 227.671875 145.71875 L 227.671875 145.699219 C 228.070312 146.648438 228.417969 147.5625 228.941406 148.363281 C 229.363281 149.011719 229.898438 149.585938 230.644531 150.054688 C 231.027344 150.292969 231.570312 150.511719 232.089844 150.535156 C 232.496094 150.554688 232.886719 150.457031 233.203125 150.199219 C 233.515625 149.9375 233.679688 149.589844 233.742188 149.207031 C 233.820312 148.742188 233.734375 148.21875 233.664062 147.792969 C 233.519531 146.980469 233.121094 146.253906 232.578125 145.617188 C 232.054688 145.003906 231.394531 144.476562 230.730469 144.03125 C 232.167969 144.164062 233.582031 144.089844 234.351562 143.792969 C 235.292969 143.425781 236.097656 142.660156 236.449219 141.777344 C 236.820312 140.847656 236.710938 139.789062 235.769531 138.902344 C 235.074219 138.25 234.273438 138.078125 233.433594 138.1875 C 232.125 138.363281 230.710938 139.308594 229.570312 139.976562 C 230.414062 138.957031 231.363281 137.835938 231.941406 136.597656 C 232.375 135.664062 232.605469 134.667969 232.453125 133.601562 C 232.378906 133.058594 232.28125 132.472656 232.019531 132.007812 C 231.808594 131.644531 231.507812 131.34375 231.050781 131.167969 C 229.675781 130.636719 228.625 131.191406 227.851562 132.210938 C 226.890625 133.476562 226.386719 135.519531 226.210938 136.683594 C 226.160156 137.015625 226.117188 137.34375 226.09375 137.671875 C 226.078125 137.898438 226.070312 138.128906 226.074219 138.359375 L 226.089844 138.648438 C 225.664062 137.722656 225.261719 136.691406 224.742188 135.761719 C 224.285156 134.9375 223.738281 134.191406 223.03125 133.636719 C 222.550781 133.253906 221.894531 132.84375 221.25 132.75 C 220.734375 132.675781 220.21875 132.789062 219.773438 133.214844 C 218.734375 134.203125 218.765625 135.445312 219.335938 136.660156 C 220.058594 138.199219 221.679688 139.683594 222.59375 140.324219 Z M 227.632812 143.367188 L 227.667969 143.382812 C 228.03125 143.535156 228.382812 143.691406 228.734375 143.859375 C 228.960938 143.96875 229.1875 144.085938 229.414062 144.210938 C 230.277344 144.695312 231.242188 145.34375 231.941406 146.160156 C 232.390625 146.679688 232.726562 147.269531 232.84375 147.9375 C 232.90625 148.277344 232.988281 148.699219 232.925781 149.074219 C 232.894531 149.261719 232.828125 149.4375 232.675781 149.5625 C 232.476562 149.726562 232.210938 149.738281 231.953125 149.695312 C 231.632812 149.644531 231.3125 149.503906 231.078125 149.355469 C 230.4375 148.960938 229.984375 148.46875 229.625 147.917969 C 229.042969 147.03125 228.691406 145.996094 228.226562 144.941406 Z M 227.632812 142.4375 L 227.664062 142.453125 L 227.828125 142.527344 C 228.550781 142.835938 229.566406 143.046875 230.585938 143.15625 C 231.941406 143.300781 233.3125 143.269531 234.039062 142.988281 C 234.757812 142.707031 235.375 142.128906 235.640625 141.457031 C 235.886719 140.835938 235.800781 140.132812 235.171875 139.542969 C 234.519531 138.929688 233.730469 138.953125 232.933594 139.207031 C 231.589844 139.632812 230.214844 140.695312 229.214844 141.183594 C 229.050781 141.261719 228.890625 141.359375 228.734375 141.464844 C 228.488281 141.628906 228.253906 141.816406 228.035156 141.996094 C 227.945312 142.070312 227.835938 142.152344 227.730469 142.238281 C 227.695312 142.292969 227.65625 142.347656 227.617188 142.398438 L 227.597656 142.417969 Z M 226.417969 143.3125 C 225.464844 144.296875 224.082031 145.394531 223.128906 146.535156 C 222.597656 147.164062 222.199219 147.800781 222.140625 148.445312 C 222.082031 149.070312 222.089844 149.703125 222.308594 150.214844 C 222.5 150.675781 222.875 151.023438 223.527344 151.160156 C 223.8125 151.21875 224.089844 151.148438 224.347656 151.027344 C 224.652344 150.886719 224.925781 150.671875 225.164062 150.46875 C 225.773438 149.9375 226.199219 149.15625 226.476562 148.3125 C 226.761719 147.449219 226.886719 146.523438 226.878906 145.722656 C 226.875 145.328125 226.878906 144.953125 226.859375 144.574219 C 226.847656 144.332031 226.824219 144.09375 226.78125 143.847656 L 226.691406 143.246094 C 226.679688 143.214844 226.664062 143.1875 226.652344 143.15625 L 226.617188 143.179688 C 226.550781 143.222656 226.484375 143.269531 226.417969 143.3125 Z M 227.347656 141.273438 L 227.183594 140.929688 C 227.15625 140.847656 227.132812 140.769531 227.132812 140.683594 L 227.019531 138.335938 C 227.015625 138.085938 227.023438 137.835938 227.046875 137.589844 C 227.070312 137.335938 227.105469 137.082031 227.144531 136.824219 C 227.300781 135.769531 227.726562 133.917969 228.59375 132.773438 C 229.109375 132.089844 229.796875 131.679688 230.71875 132.03125 C 231.023438 132.148438 231.191406 132.375 231.300781 132.636719 C 231.441406 132.976562 231.492188 133.367188 231.542969 133.730469 C 231.671875 134.613281 231.472656 135.4375 231.113281 136.210938 C 230.542969 137.445312 229.570312 138.550781 228.742188 139.554688 C 228.429688 139.9375 228.144531 140.390625 227.816406 140.785156 C 227.691406 140.941406 227.558594 141.085938 227.417969 141.210938 C 227.394531 141.230469 227.371094 141.25 227.347656 141.273438 Z M 225.957031 142.351562 C 225.675781 142.539062 225.386719 142.722656 225.09375 142.898438 C 224.78125 143.085938 224.457031 143.269531 224.132812 143.433594 C 223.730469 143.636719 223.335938 143.917969 222.925781 144.140625 C 222.777344 144.226562 222.621094 144.300781 222.464844 144.355469 C 221.488281 144.707031 219.703125 144.761719 218.394531 144.269531 C 217.59375 143.964844 216.960938 143.449219 216.980469 142.582031 C 216.996094 141.898438 217.554688 141.589844 218.21875 141.410156 C 219.429688 141.085938 221.027344 141.226562 221.777344 141.296875 C 222.027344 141.320312 222.261719 141.351562 222.496094 141.394531 C 222.726562 141.4375 222.953125 141.492188 223.1875 141.566406 L 225.378906 142.222656 Z M 226.320312 141.328125 L 226.324219 141.339844 C 226.234375 141.308594 226.160156 141.28125 226.128906 141.269531 C 225.910156 141.179688 225.699219 141.074219 225.488281 140.964844 C 225.160156 140.792969 224.835938 140.605469 224.519531 140.425781 C 224.335938 140.320312 224.160156 140.207031 223.984375 140.085938 C 223.707031 139.898438 223.4375 139.699219 223.164062 139.507812 C 222.347656 138.9375 220.878906 137.621094 220.226562 136.242188 C 219.84375 135.429688 219.75 134.585938 220.445312 133.925781 C 220.710938 133.671875 221.023438 133.675781 221.328125 133.765625 C 221.734375 133.886719 222.125 134.15625 222.429688 134.398438 C 223.039062 134.878906 223.5 135.527344 223.898438 136.230469 C 224.527344 137.355469 224.988281 138.625 225.515625 139.679688 L 226.230469 141.144531 Z M 226.320312 141.328125 " fill-opacity="1" fill-rule="evenodd"/></g></g></g><g clip-path="url(#75adb47eec)"><g clip-path="url(#a0347a062a)"><g clip-path="url(#8e9375c27f)"><path fill="#e1ad37" d="M 246.902344 133.320312 C 246.941406 133.425781 246.601562 133.640625 246.53125 133.691406 C 246.054688 134.039062 245.546875 134.375 245.039062 134.664062 C 244.605469 134.910156 244.175781 135.277344 243.71875 135.46875 C 242.335938 136.046875 239.082031 136.011719 239.238281 133.964844 C 239.371094 132.246094 242.285156 132.332031 243.28125 132.375 C 243.671875 132.390625 244.019531 132.433594 244.390625 132.539062 C 244.914062 132.683594 245.449219 132.8125 245.980469 132.949219 C 246.148438 132.992188 246.355469 132.984375 246.507812 133.058594 C 246.589844 133.097656 246.8125 133.207031 246.773438 133.125 C 246.738281 133.058594 246.355469 132.957031 246.285156 132.929688 C 245.871094 132.765625 245.476562 132.542969 245.089844 132.324219 C 244.742188 132.128906 244.421875 131.886719 244.097656 131.65625 C 243.054688 130.925781 240.65625 128.519531 242.308594 126.878906 C 242.941406 126.25 243.734375 126.71875 244.230469 127.117188 C 245.386719 128.039062 245.800781 129.847656 246.386719 131.183594 C 246.546875 131.546875 246.679688 131.914062 246.851562 132.269531 C 246.933594 132.445312 246.992188 132.640625 247.074219 132.808594 C 247.09375 132.851562 247.105469 132.949219 247.105469 132.949219 C 247.105469 132.949219 247.054688 132.863281 247.042969 132.816406 C 246.980469 132.589844 246.855469 132.355469 246.863281 132.105469 C 246.875 131.519531 246.859375 130.898438 246.878906 130.296875 C 246.890625 129.878906 246.960938 129.476562 247.042969 129.0625 C 247.328125 127.59375 248.363281 124.210938 250.371094 124.917969 C 251 125.136719 251.058594 125.84375 251.109375 126.464844 C 251.265625 128.3125 249.828125 129.953125 248.703125 131.34375 C 248.347656 131.785156 248.023438 132.339844 247.609375 132.714844 C 247.4375 132.871094 247.328125 133.113281 247.160156 133.28125 C 247.140625 133.296875 247.101562 133.328125 247.101562 133.328125 L 247.167969 133.230469 C 247.28125 133.066406 247.488281 132.917969 247.632812 132.792969 C 247.929688 132.53125 248.269531 132.257812 248.609375 132.070312 C 249.925781 131.351562 252.121094 129.308594 253.453125 130.601562 C 254.554688 131.671875 253.59375 133.300781 252.335938 133.867188 C 251.1875 134.382812 248.097656 134.261719 247.058594 133.53125 C 247.007812 133.496094 247.160156 133.617188 247.21875 133.644531 C 247.351562 133.707031 247.5 133.769531 247.640625 133.824219 C 248.082031 133.996094 248.511719 134.175781 248.929688 134.40625 C 250.011719 135 251.292969 135.953125 251.453125 137.351562 C 251.511719 137.84375 251.585938 138.523438 251.136719 138.917969 C 250.6875 139.3125 250.003906 139.113281 249.605469 138.871094 C 248.363281 138.109375 248.078125 136.796875 247.570312 135.445312 C 247.414062 135.023438 247.320312 134.585938 247.164062 134.164062 C 247.148438 134.117188 246.9375 133.707031 247.003906 133.613281 C 247.070312 133.519531 247.0625 133.816406 247.074219 133.921875 C 247.09375 134.097656 247.097656 134.277344 247.117188 134.453125 C 247.175781 134.957031 247.136719 135.433594 247.113281 135.945312 C 247.054688 137.242188 246.558594 138.976562 245.53125 139.910156 C 245.121094 140.28125 244.578125 140.679688 244.035156 140.589844 C 242.859375 140.390625 242.761719 139.316406 242.914062 138.246094 C 243.15625 136.542969 245.929688 134.707031 246.902344 133.320312 Z M 246.902344 133.320312 " fill-opacity="1" fill-rule="evenodd"/></g></g></g><g clip-path="url(#d7b5de661a)"><g clip-path="url(#713542f108)"><g clip-path="url(#04c66c67c2)"><path fill="#e1ad37" d="M 243.566406 131.882812 C 243.480469 131.875 243.390625 131.871094 243.300781 131.867188 C 242.554688 131.832031 240.8125 131.804688 239.761719 132.390625 C 239.179688 132.714844 238.78125 133.207031 238.726562 133.925781 C 238.636719 135.054688 239.3125 135.742188 240.296875 136.074219 C 241.386719 136.445312 242.878906 136.335938 243.785156 136 C 243.6875 136.109375 243.597656 136.214844 243.507812 136.320312 C 242.992188 136.945312 242.621094 137.578125 242.53125 138.191406 C 242.429688 138.917969 242.449219 139.644531 242.746094 140.167969 C 242.972656 140.566406 243.355469 140.871094 243.972656 140.972656 C 244.269531 141.023438 244.566406 140.96875 244.855469 140.847656 C 245.199219 140.699219 245.523438 140.445312 245.796875 140.199219 C 246.351562 139.695312 246.765625 138.980469 247.050781 138.214844 C 247.273438 137.609375 247.414062 136.972656 247.480469 136.390625 C 247.671875 136.929688 247.863281 137.449219 248.136719 137.914062 C 248.4375 138.425781 248.824219 138.871094 249.390625 139.21875 C 249.691406 139.40625 250.128906 139.5625 250.546875 139.554688 C 250.855469 139.546875 251.15625 139.449219 251.410156 139.230469 C 251.65625 139.011719 251.796875 138.734375 251.863281 138.4375 C 251.945312 138.058594 251.90625 137.640625 251.867188 137.304688 C 251.792969 136.671875 251.523438 136.113281 251.144531 135.632812 C 250.832031 135.242188 250.449219 134.898438 250.042969 134.609375 C 251.027344 134.625 251.96875 134.503906 252.511719 134.257812 C 253.375 133.871094 254.109375 133.046875 254.3125 132.1875 C 254.46875 131.53125 254.335938 130.851562 253.757812 130.289062 C 253.207031 129.753906 252.546875 129.652344 251.839844 129.808594 C 251.121094 129.96875 250.355469 130.433594 249.65625 130.886719 C 250.171875 130.242188 250.683594 129.550781 251.046875 128.820312 C 251.421875 128.0625 251.640625 127.265625 251.570312 126.425781 C 251.535156 126.003906 251.484375 125.550781 251.3125 125.191406 C 251.152344 124.871094 250.910156 124.617188 250.523438 124.480469 C 249.464844 124.105469 248.605469 124.597656 247.957031 125.480469 C 247.203125 126.5 246.757812 128.074219 246.578125 128.972656 C 246.527344 129.230469 246.480469 129.484375 246.449219 129.742188 C 246.441406 129.820312 246.429688 129.898438 246.425781 129.976562 C 246.167969 129.285156 245.898438 128.566406 245.535156 127.941406 C 245.261719 127.472656 244.9375 127.058594 244.535156 126.734375 C 244.15625 126.433594 243.632812 126.121094 243.109375 126.085938 C 242.71875 126.0625 242.324219 126.175781 241.960938 126.53125 C 241.15625 127.332031 241.109375 128.277344 241.445312 129.191406 C 241.851562 130.285156 242.867188 131.324219 243.566406 131.882812 Z M 247.621094 134.269531 C 247.789062 134.339844 247.957031 134.40625 248.121094 134.480469 C 248.328125 134.570312 248.527344 134.667969 248.726562 134.773438 C 249.335938 135.105469 250.015625 135.558594 250.488281 136.152344 C 250.777344 136.511719 250.984375 136.925781 251.042969 137.398438 C 251.066406 137.621094 251.101562 137.882812 251.074219 138.136719 C 251.054688 138.3125 251.003906 138.484375 250.863281 138.609375 C 250.734375 138.722656 250.570312 138.742188 250.410156 138.726562 C 250.191406 138.703125 249.976562 138.617188 249.820312 138.519531 C 249.378906 138.25 249.074219 137.898438 248.839844 137.5 C 248.457031 136.851562 248.242188 136.082031 247.949219 135.304688 Z M 247.660156 133.371094 L 247.925781 133.128906 C 248.09375 132.984375 248.277344 132.832031 248.464844 132.695312 C 248.582031 132.609375 248.703125 132.527344 248.824219 132.460938 C 249.566406 132.054688 250.589844 131.210938 251.582031 130.8125 C 252.152344 130.582031 252.710938 130.492188 253.148438 130.917969 C 253.5625 131.320312 253.570312 131.832031 253.359375 132.292969 C 253.136719 132.792969 252.675781 133.238281 252.160156 133.472656 C 251.628906 133.710938 250.652344 133.789062 249.6875 133.738281 C 248.957031 133.699219 248.230469 133.59375 247.71875 133.394531 Z M 246.511719 134.351562 L 246.65625 134.25 L 246.695312 134.222656 L 246.71875 134.5 C 246.742188 134.683594 246.75 134.867188 246.75 135.050781 C 246.75 135.339844 246.730469 135.628906 246.714844 135.929688 C 246.6875 136.542969 246.558594 137.265625 246.308594 137.941406 C 246.074219 138.585938 245.730469 139.195312 245.269531 139.621094 C 245.089844 139.78125 244.886719 139.953125 244.664062 140.070312 C 244.484375 140.167969 244.292969 140.238281 244.101562 140.207031 C 243.667969 140.132812 243.4375 139.902344 243.332031 139.585938 C 243.210938 139.214844 243.230469 138.757812 243.296875 138.300781 C 243.363281 137.808594 243.683594 137.308594 244.097656 136.808594 C 244.800781 135.953125 245.777344 135.109375 246.511719 134.351562 Z M 247.382812 132.308594 L 247.363281 132.257812 C 247.347656 132.210938 247.339844 132.164062 247.339844 132.117188 L 247.351562 130.3125 C 247.359375 130.117188 247.375 129.929688 247.402344 129.742188 C 247.429688 129.546875 247.464844 129.351562 247.503906 129.152344 C 247.660156 128.351562 248.042969 126.945312 248.710938 126.03125 C 249.097656 125.5 249.582031 125.132812 250.214844 125.355469 C 250.390625 125.414062 250.472656 125.554688 250.527344 125.714844 C 250.609375 125.957031 250.628906 126.238281 250.652344 126.503906 C 250.710938 127.171875 250.523438 127.808594 250.226562 128.414062 C 249.753906 129.375 248.996094 130.257812 248.351562 131.058594 C 248.105469 131.363281 247.871094 131.726562 247.617188 132.046875 C 247.539062 132.136719 247.464844 132.226562 247.382812 132.308594 Z M 245.953125 133.457031 C 245.808594 133.558594 245.660156 133.660156 245.511719 133.757812 C 245.269531 133.917969 245.023438 134.066406 244.78125 134.207031 C 244.472656 134.382812 244.167969 134.613281 243.855469 134.804688 C 243.742188 134.875 243.628906 134.9375 243.515625 134.984375 C 242.808594 135.285156 241.539062 135.398438 240.625 135.09375 C 240.109375 134.917969 239.707031 134.597656 239.75 134.003906 C 239.789062 133.527344 240.171875 133.285156 240.617188 133.128906 C 241.515625 132.8125 242.707031 132.859375 243.257812 132.882812 C 243.4375 132.886719 243.605469 132.902344 243.769531 132.925781 C 243.929688 132.949219 244.089844 132.980469 244.253906 133.027344 L 245.855469 133.4375 Z M 246.398438 132.433594 C 246.273438 132.382812 246.144531 132.324219 246.019531 132.261719 C 245.789062 132.144531 245.558594 132.015625 245.332031 131.886719 C 245.207031 131.816406 245.082031 131.738281 244.964844 131.65625 C 244.765625 131.523438 244.578125 131.382812 244.382812 131.25 C 243.804688 130.84375 242.757812 129.878906 242.371094 128.84375 C 242.164062 128.292969 242.164062 127.714844 242.652344 127.226562 C 242.816406 127.0625 243.003906 127.039062 243.179688 127.082031 C 243.460938 127.148438 243.722656 127.335938 243.925781 127.496094 C 244.34375 127.828125 244.648438 128.296875 244.902344 128.8125 C 245.316406 129.644531 245.601562 130.59375 245.949219 131.375 Z M 246.398438 132.433594 " fill-opacity="1" fill-rule="evenodd"/></g></g></g><g clip-path="url(#021fc2d8fb)"><g clip-path="url(#f219679784)"><g clip-path="url(#59ed38126c)"><path fill="#ae7b37" d="M 227.28125 140.636719 C 227.472656 140.765625 227.628906 140.929688 227.757812 141.117188 C 227.882812 141.304688 227.96875 141.507812 228.015625 141.722656 C 228.066406 141.9375 228.066406 142.152344 228.027344 142.363281 C 227.988281 142.574219 227.90625 142.765625 227.785156 142.9375 C 227.664062 143.113281 227.507812 143.253906 227.324219 143.363281 C 227.140625 143.472656 226.9375 143.542969 226.71875 143.570312 C 226.5 143.601562 226.28125 143.585938 226.058594 143.53125 C 225.839844 143.476562 225.636719 143.382812 225.445312 143.25 C 225.257812 143.117188 225.101562 142.957031 224.972656 142.769531 C 224.847656 142.578125 224.757812 142.375 224.710938 142.160156 C 224.664062 141.945312 224.660156 141.730469 224.703125 141.519531 C 224.742188 141.308594 224.824219 141.117188 224.945312 140.945312 C 225.066406 140.773438 225.21875 140.628906 225.40625 140.519531 C 225.589844 140.410156 225.789062 140.34375 226.011719 140.3125 C 226.230469 140.285156 226.449219 140.296875 226.667969 140.351562 C 226.890625 140.410156 227.09375 140.503906 227.28125 140.636719 Z M 227.28125 140.636719 " fill-opacity="1" fill-rule="nonzero"/></g></g></g><g clip-path="url(#e9fd0e56fe)"><g clip-path="url(#a8ce173a5a)"><g clip-path="url(#23ddf2b1b7)"><path fill="#ae7b37" d="M 224.636719 140.730469 C 224.304688 141.1875 224.214844 141.75 224.335938 142.285156 C 224.445312 142.785156 224.746094 143.253906 225.207031 143.585938 C 225.675781 143.925781 226.222656 144.054688 226.734375 144.003906 C 227.296875 143.949219 227.8125 143.671875 228.15625 143.199219 C 228.5 142.722656 228.59375 142.136719 228.46875 141.578125 C 228.351562 141.066406 228.042969 140.578125 227.5625 140.234375 C 227.082031 139.886719 226.515625 139.75 225.988281 139.800781 C 225.402344 139.859375 224.867188 140.152344 224.511719 140.640625 Z M 225.378906 141.25 C 225.546875 141 225.8125 140.851562 226.101562 140.816406 C 226.398438 140.777344 226.722656 140.847656 227 141.035156 C 227.285156 141.230469 227.476562 141.503906 227.550781 141.800781 C 227.628906 142.097656 227.59375 142.417969 227.414062 142.679688 C 227.234375 142.945312 226.949219 143.105469 226.636719 143.144531 C 226.320312 143.183594 225.980469 143.109375 225.683594 142.910156 C 225.386719 142.707031 225.183594 142.414062 225.105469 142.101562 C 225.023438 141.78125 225.0625 141.441406 225.253906 141.160156 Z M 225.378906 141.25 " fill-opacity="1" fill-rule="evenodd"/></g></g></g></svg>