<svg xmlns="http://www.w3.org/2000/svg" xmlns:xlink="http://www.w3.org/1999/xlink" width="500" zoomAndPan="magnify" viewBox="0 0 375 374.999991" height="500" preserveAspectRatio="xMidYMid meet" version="1.0"><defs><filter x="0%" y="0%" width="100%" height="100%" id="c37392196a"><feColorMatrix values="0 0 0 0 1 0 0 0 0 1 0 0 0 0 1 0 0 0 1 0" color-interpolation-filters="sRGB"/></filter><g/><mask id="1804c30959"><g filter="url(#c37392196a)"><rect x="-37.5" width="450" fill="#000000" y="-37.499999" height="449.999989" fill-opacity="0.7"/></g></mask><clipPath id="c6964104c2"><rect x="0" width="150" y="0" height="124"/></clipPath><clipPath id="2587eab259"><path d="M 237 129 L 277 129 L 277 170.6875 L 237 170.6875 Z M 237 129 " clip-rule="nonzero"/></clipPath><clipPath id="59ece704b3"><path d="M 265 128.6875 L 277.003906 128.6875 L 277.003906 131 L 265 131 Z M 265 128.6875 " clip-rule="nonzero"/></clipPath><clipPath id="81bc506cd0"><path d="M 264 128.6875 L 277.003906 128.6875 L 277.003906 132 L 264 132 Z M 264 128.6875 " clip-rule="nonzero"/></clipPath><clipPath id="7999b647b0"><path d="M 221 116 L 248 116 L 248 143 L 221 143 Z M 221 116 " clip-rule="nonzero"/></clipPath><clipPath id="60b44ec154"><path d="M 215.375 132.515625 L 231.753906 109.195312 L 254.460938 125.144531 L 238.082031 148.464844 Z M 215.375 132.515625 " clip-rule="nonzero"/></clipPath><clipPath id="b2f01dfa0f"><path d="M 215.375 132.515625 L 244.253906 91.394531 L 276.167969 113.808594 L 247.289062 154.929688 Z M 215.375 132.515625 " clip-rule="nonzero"/></clipPath><clipPath id="ca35cbfbac"><path d="M 220 115 L 248 115 L 248 143 L 220 143 Z M 220 115 " clip-rule="nonzero"/></clipPath><clipPath id="fc451f8021"><path d="M 215.375 132.515625 L 231.753906 109.195312 L 254.460938 125.144531 L 238.082031 148.464844 Z M 215.375 132.515625 " clip-rule="nonzero"/></clipPath><clipPath id="4cde6c639c"><path d="M 215.375 132.515625 L 244.253906 91.394531 L 276.167969 113.808594 L 247.289062 154.929688 Z M 215.375 132.515625 " clip-rule="nonzero"/></clipPath><clipPath id="ff3580fc15"><path d="M 251 109 L 255 109 L 255 128 L 251 128 Z M 251 109 " clip-rule="nonzero"/></clipPath><clipPath id="39e6a1db8c"><path d="M 215.375 132.515625 L 231.753906 109.195312 L 254.460938 125.144531 L 238.082031 148.464844 Z M 215.375 132.515625 " clip-rule="nonzero"/></clipPath><clipPath id="68a493f5f6"><path d="M 215.375 132.515625 L 244.253906 91.394531 L 276.167969 113.808594 L 247.289062 154.929688 Z M 215.375 132.515625 " clip-rule="nonzero"/></clipPath><clipPath id="eaf3eecfef"><path d="M 250 109 L 255 109 L 255 129 L 250 129 Z M 250 109 " clip-rule="nonzero"/></clipPath><clipPath id="9b2b7ef4ff"><path d="M 215.375 132.515625 L 231.753906 109.195312 L 254.460938 125.144531 L 238.082031 148.464844 Z M 215.375 132.515625 " clip-rule="nonzero"/></clipPath><clipPath id="c257853abd"><path d="M 215.375 132.515625 L 244.253906 91.394531 L 276.167969 113.808594 L 247.289062 154.929688 Z M 215.375 132.515625 " clip-rule="nonzero"/></clipPath><clipPath id="ea0b584fbe"><path d="M 232 127 L 237 127 L 237 132 L 232 132 Z M 232 127 " clip-rule="nonzero"/></clipPath><clipPath id="60d75063b9"><path d="M 215.375 132.515625 L 231.753906 109.195312 L 254.460938 125.144531 L 238.082031 148.464844 Z M 215.375 132.515625 " clip-rule="nonzero"/></clipPath><clipPath id="e26012d572"><path d="M 215.375 132.515625 L 244.253906 91.394531 L 276.167969 113.808594 L 247.289062 154.929688 Z M 215.375 132.515625 " clip-rule="nonzero"/></clipPath><clipPath id="e4bdb99748"><path d="M 231 126 L 238 126 L 238 133 L 231 133 Z M 231 126 " clip-rule="nonzero"/></clipPath><clipPath id="b543d613bf"><path d="M 215.375 132.515625 L 231.753906 109.195312 L 254.460938 125.144531 L 238.082031 148.464844 Z M 215.375 132.515625 " clip-rule="nonzero"/></clipPath><clipPath id="7c2bc5bb7f"><path d="M 215.375 132.515625 L 244.253906 91.394531 L 276.167969 113.808594 L 247.289062 154.929688 Z M 215.375 132.515625 " clip-rule="nonzero"/></clipPath></defs><g fill="#ae7b37" fill-opacity="1"><g transform="translate(159.054109, 266.411673)"><g><path d="M 30.804688 -63.839844 C 33.773438 -65.351562 31.667969 -70.089844 28.601562 -68.5625 C 24.113281 -66.1875 19.640625 -63.714844 15.320312 -60.953125 C 15.507812 -61.707031 15.582031 -62.546875 15.773438 -63.304688 C 16.28125 -66.59375 11.125 -67.117188 10.613281 -63.824219 C 10.246094 -61.589844 9.792969 -59.242188 9.324219 -56.992188 C 7.367188 -55.644531 5.421875 -54.195312 3.480469 -52.746094 C 0.792969 -50.761719 4.128906 -46.738281 6.699219 -48.804688 C 7.070312 -49.074219 7.457031 -49.238281 7.726562 -49.488281 C 6.097656 -42.1875 4.46875 -34.886719 3.597656 -27.394531 C 2.894531 -20.757812 1.066406 -8.867188 7.425781 -4.085938 C 17.191406 3.257812 32.183594 -13.738281 37.335938 -20.359375 C 39.304688 -22.953125 35.355469 -25.632812 33.253906 -23.226562 C 29.496094 -18.898438 11.410156 0.765625 8.671875 -12.464844 C 7.875 -16.167969 7.78125 -19.984375 7.890625 -23.835938 C 8.195312 -23.882812 8.382812 -24.015625 8.667969 -24.164062 C 14.597656 -28.53125 20.941406 -32.238281 26.871094 -36.601562 C 29.660156 -38.597656 26.324219 -42.621094 23.636719 -40.640625 C 18.722656 -37.058594 13.640625 -33.867188 8.59375 -30.46875 C 9.722656 -38.3125 11.976562 -46.230469 13.773438 -53.769531 C 19.195312 -57.429688 24.96875 -60.835938 30.804688 -63.839844 Z M 30.804688 -63.839844 "/></g></g></g><g fill="#ae7b37" fill-opacity="1"><g transform="translate(201.963373, 259.55521)"><g><path d="M 28.289062 -82.179688 C 17.953125 -60.027344 13.472656 -36.21875 8.238281 -12.601562 C 5.621094 -28.339844 2.851562 -44.359375 -6.808594 -57.519531 C -8.777344 -60.105469 -12.714844 -56.886719 -10.730469 -54.199219 C 0.695312 -38.421875 1.597656 -17.859375 5.289062 0.707031 C 5.660156 3.03125 9.539062 3.964844 10.246094 1.261719 C 17.035156 -26.226562 21.125 -54.425781 33.148438 -80.265625 C 34.515625 -83.382812 29.667969 -85.199219 28.289062 -82.179688 Z M 28.289062 -82.179688 "/></g></g></g><g fill="#ae7b37" fill-opacity="1"><g transform="translate(241.742787, 253.198865)"><g><path d="M 30.804688 -63.839844 C 33.773438 -65.351562 31.667969 -70.089844 28.601562 -68.5625 C 24.113281 -66.1875 19.640625 -63.714844 15.320312 -60.953125 C 15.507812 -61.707031 15.582031 -62.546875 15.773438 -63.304688 C 16.28125 -66.59375 11.125 -67.117188 10.613281 -63.824219 C 10.246094 -61.589844 9.792969 -59.242188 9.324219 -56.992188 C 7.367188 -55.644531 5.421875 -54.195312 3.480469 -52.746094 C 0.792969 -50.761719 4.128906 -46.738281 6.699219 -48.804688 C 7.070312 -49.074219 7.457031 -49.238281 7.726562 -49.488281 C 6.097656 -42.1875 4.46875 -34.886719 3.597656 -27.394531 C 2.894531 -20.757812 1.066406 -8.867188 7.425781 -4.085938 C 17.191406 3.257812 32.183594 -13.738281 37.335938 -20.359375 C 39.304688 -22.953125 35.355469 -25.632812 33.253906 -23.226562 C 29.496094 -18.898438 11.410156 0.765625 8.671875 -12.464844 C 7.875 -16.167969 7.78125 -19.984375 7.890625 -23.835938 C 8.195312 -23.882812 8.382812 -24.015625 8.667969 -24.164062 C 14.597656 -28.53125 20.941406 -32.238281 26.871094 -36.601562 C 29.660156 -38.597656 26.324219 -42.621094 23.636719 -40.640625 C 18.722656 -37.058594 13.640625 -33.867188 8.59375 -30.46875 C 9.722656 -38.3125 11.976562 -46.230469 13.773438 -53.769531 C 19.195312 -57.429688 24.96875 -60.835938 30.804688 -63.839844 Z M 30.804688 -63.839844 "/></g></g></g><g fill="#ae7b37" fill-opacity="1"><g transform="translate(284.652051, 246.342402)"><g><path d="M 36.269531 -31.578125 C 34.574219 -26.648438 32.4375 -21.855469 30.289062 -17.164062 C 29.351562 -15.253906 23.964844 -1.65625 21.125 -1.925781 C 19.230469 -2.140625 23.15625 -26.167969 23.230469 -27.632812 C 24.039062 -34.90625 26.089844 -45.382812 22.894531 -52.429688 C 17.058594 -64.957031 7.113281 -50.738281 4.265625 -44.585938 C 2.730469 -41.234375 1.414062 -37.8125 0.3125 -34.324219 C 0.339844 -40.644531 0.046875 -47.019531 -0.953125 -53.277344 C -1.46875 -56.507812 -6.519531 -55.703125 -6.003906 -52.472656 C -3.085938 -33.574219 -6.15625 -14.546875 -7.15625 4.457031 C -7.363281 7.699219 -2.394531 8.355469 -2 4.980469 C -0.140625 -11.886719 2.226562 -28.832031 9.8125 -44.230469 C 11.277344 -47.363281 15.523438 -56.429688 18.75 -48.558594 C 20.320312 -44.5625 18.996094 -37.929688 18.734375 -33.746094 C 17.917969 -24.609375 15.957031 -15.492188 15.339844 -6.386719 C 14.625 2.738281 22.066406 5.898438 27.425781 -1.378906 C 33.484375 -9.492188 37.90625 -20.035156 41.03125 -29.648438 C 42.078125 -32.816406 37.316406 -34.75 36.269531 -31.578125 Z M 36.269531 -31.578125 "/></g></g></g><g fill="#ae7b37" fill-opacity="1"><g transform="translate(325.643029, 239.792461)"><g><path d="M 33.085938 -75.492188 C 18.511719 -73.371094 4.105469 -70.863281 -10.433594 -68.539062 C -13.765625 -68.007812 -12.960938 -62.957031 -9.628906 -63.488281 C -3.0625 -64.539062 3.601562 -65.601562 10.246094 -66.769531 C 9.058594 -42.453125 6.59375 -18.347656 4.246094 5.84375 C 3.941406 9.105469 9.011719 9.742188 9.320312 6.484375 C 11.6875 -18.226562 14.171875 -42.855469 15.296875 -67.574219 C 21.457031 -68.558594 27.714844 -69.558594 33.890625 -70.445312 C 37.136719 -70.859375 36.332031 -75.90625 33.085938 -75.492188 Z M 33.085938 -75.492188 "/></g></g></g><g fill="#e1ad37" fill-opacity="1"><g transform="translate(155.741689, 264.011995)"><g><path d="M 30.804688 -63.839844 C 33.773438 -65.351562 31.667969 -70.089844 28.601562 -68.5625 C 24.113281 -66.1875 19.640625 -63.714844 15.320312 -60.953125 C 15.507812 -61.707031 15.582031 -62.546875 15.773438 -63.304688 C 16.28125 -66.59375 11.125 -67.117188 10.613281 -63.824219 C 10.246094 -61.589844 9.792969 -59.242188 9.324219 -56.992188 C 7.367188 -55.644531 5.421875 -54.195312 3.480469 -52.746094 C 0.792969 -50.761719 4.128906 -46.738281 6.699219 -48.804688 C 7.070312 -49.074219 7.457031 -49.238281 7.726562 -49.488281 C 6.097656 -42.1875 4.46875 -34.886719 3.597656 -27.394531 C 2.894531 -20.757812 1.066406 -8.867188 7.425781 -4.085938 C 17.191406 3.257812 32.183594 -13.738281 37.335938 -20.359375 C 39.304688 -22.953125 35.355469 -25.632812 33.253906 -23.226562 C 29.496094 -18.898438 11.410156 0.765625 8.671875 -12.464844 C 7.875 -16.167969 7.78125 -19.984375 7.890625 -23.835938 C 8.195312 -23.882812 8.382812 -24.015625 8.667969 -24.164062 C 14.597656 -28.53125 20.941406 -32.238281 26.871094 -36.601562 C 29.660156 -38.597656 26.324219 -42.621094 23.636719 -40.640625 C 18.722656 -37.058594 13.640625 -33.867188 8.59375 -30.46875 C 9.722656 -38.3125 11.976562 -46.230469 13.773438 -53.769531 C 19.195312 -57.429688 24.96875 -60.835938 30.804688 -63.839844 Z M 30.804688 -63.839844 "/></g></g></g><g fill="#e1ad37" fill-opacity="1"><g transform="translate(198.650953, 257.155532)"><g><path d="M 28.289062 -82.179688 C 17.953125 -60.027344 13.472656 -36.21875 8.238281 -12.601562 C 5.621094 -28.339844 2.851562 -44.359375 -6.808594 -57.519531 C -8.777344 -60.105469 -12.714844 -56.886719 -10.730469 -54.199219 C 0.695312 -38.421875 1.597656 -17.859375 5.289062 0.707031 C 5.660156 3.03125 9.539062 3.964844 10.246094 1.261719 C 17.035156 -26.226562 21.125 -54.425781 33.148438 -80.265625 C 34.515625 -83.382812 29.667969 -85.199219 28.289062 -82.179688 Z M 28.289062 -82.179688 "/></g></g></g><g fill="#e1ad37" fill-opacity="1"><g transform="translate(238.430367, 250.799186)"><g><path d="M 30.804688 -63.839844 C 33.773438 -65.351562 31.667969 -70.089844 28.601562 -68.5625 C 24.113281 -66.1875 19.640625 -63.714844 15.320312 -60.953125 C 15.507812 -61.707031 15.582031 -62.546875 15.773438 -63.304688 C 16.28125 -66.59375 11.125 -67.117188 10.613281 -63.824219 C 10.246094 -61.589844 9.792969 -59.242188 9.324219 -56.992188 C 7.367188 -55.644531 5.421875 -54.195312 3.480469 -52.746094 C 0.792969 -50.761719 4.128906 -46.738281 6.699219 -48.804688 C 7.070312 -49.074219 7.457031 -49.238281 7.726562 -49.488281 C 6.097656 -42.1875 4.46875 -34.886719 3.597656 -27.394531 C 2.894531 -20.757812 1.066406 -8.867188 7.425781 -4.085938 C 17.191406 3.257812 32.183594 -13.738281 37.335938 -20.359375 C 39.304688 -22.953125 35.355469 -25.632812 33.253906 -23.226562 C 29.496094 -18.898438 11.410156 0.765625 8.671875 -12.464844 C 7.875 -16.167969 7.78125 -19.984375 7.890625 -23.835938 C 8.195312 -23.882812 8.382812 -24.015625 8.667969 -24.164062 C 14.597656 -28.53125 20.941406 -32.238281 26.871094 -36.601562 C 29.660156 -38.597656 26.324219 -42.621094 23.636719 -40.640625 C 18.722656 -37.058594 13.640625 -33.867188 8.59375 -30.46875 C 9.722656 -38.3125 11.976562 -46.230469 13.773438 -53.769531 C 19.195312 -57.429688 24.96875 -60.835938 30.804688 -63.839844 Z M 30.804688 -63.839844 "/></g></g></g><g fill="#e1ad37" fill-opacity="1"><g transform="translate(281.339631, 243.942723)"><g><path d="M 36.269531 -31.578125 C 34.574219 -26.648438 32.4375 -21.855469 30.289062 -17.164062 C 29.351562 -15.253906 23.964844 -1.65625 21.125 -1.925781 C 19.230469 -2.140625 23.15625 -26.167969 23.230469 -27.632812 C 24.039062 -34.90625 26.089844 -45.382812 22.894531 -52.429688 C 17.058594 -64.957031 7.113281 -50.738281 4.265625 -44.585938 C 2.730469 -41.234375 1.414062 -37.8125 0.3125 -34.324219 C 0.339844 -40.644531 0.046875 -47.019531 -0.953125 -53.277344 C -1.46875 -56.507812 -6.519531 -55.703125 -6.003906 -52.472656 C -3.085938 -33.574219 -6.15625 -14.546875 -7.15625 4.457031 C -7.363281 7.699219 -2.394531 8.355469 -2 4.980469 C -0.140625 -11.886719 2.226562 -28.832031 9.8125 -44.230469 C 11.277344 -47.363281 15.523438 -56.429688 18.75 -48.558594 C 20.320312 -44.5625 18.996094 -37.929688 18.734375 -33.746094 C 17.917969 -24.609375 15.957031 -15.492188 15.339844 -6.386719 C 14.625 2.738281 22.066406 5.898438 27.425781 -1.378906 C 33.484375 -9.492188 37.90625 -20.035156 41.03125 -29.648438 C 42.078125 -32.816406 37.316406 -34.75 36.269531 -31.578125 Z M 36.269531 -31.578125 "/></g></g></g><g fill="#e1ad37" fill-opacity="1"><g transform="translate(322.33061, 237.392783)"><g><path d="M 33.085938 -75.492188 C 18.511719 -73.371094 4.105469 -70.863281 -10.433594 -68.539062 C -13.765625 -68.007812 -12.960938 -62.957031 -9.628906 -63.488281 C -3.0625 -64.539062 3.601562 -65.601562 10.246094 -66.769531 C 9.058594 -42.453125 6.59375 -18.347656 4.246094 5.84375 C 3.941406 9.105469 9.011719 9.742188 9.320312 6.484375 C 11.6875 -18.226562 14.171875 -42.855469 15.296875 -67.574219 C 21.457031 -68.558594 27.714844 -69.558594 33.890625 -70.445312 C 37.136719 -70.859375 36.332031 -75.90625 33.085938 -75.492188 Z M 33.085938 -75.492188 "/></g></g></g><g mask="url(#1804c30959)"><g transform="matrix(1, 0, 0, 1, 184, 56)"><g clip-path="url(#c6964104c2)"><g fill="#ae7b37" fill-opacity="1"><g transform="translate(16.013003, 64.577785)"><g><path d="M 0.90625 -1.09375 L -9.546875 -9.84375 L -6.359375 -13.640625 C -5.640625 -14.492188 -4.875 -15.125 -4.0625 -15.53125 C -3.257812 -15.9375 -2.4375 -16.15625 -1.59375 -16.1875 C -0.757812 -16.226562 0.0546875 -16.09375 0.859375 -15.78125 C 1.671875 -15.46875 2.4375 -15.015625 3.15625 -14.421875 C 3.945312 -13.753906 4.5625 -13.03125 5 -12.25 C 5.445312 -11.476562 5.707031 -10.671875 5.78125 -9.828125 C 5.863281 -8.992188 5.765625 -8.15625 5.484375 -7.3125 C 5.210938 -6.476562 4.75 -5.671875 4.09375 -4.890625 Z M 1.453125 -12.375 C 0.953125 -12.789062 0.4375 -13.101562 -0.09375 -13.3125 C -0.632812 -13.53125 -1.171875 -13.632812 -1.703125 -13.625 C -2.234375 -13.625 -2.738281 -13.5 -3.21875 -13.25 C -3.707031 -13 -4.15625 -12.628906 -4.5625 -12.140625 L -6.046875 -10.359375 L 0.828125 -4.609375 L 2.3125 -6.390625 C 2.726562 -6.878906 3.007812 -7.390625 3.15625 -7.921875 C 3.300781 -8.460938 3.328125 -8.988281 3.234375 -9.5 C 3.148438 -10.019531 2.953125 -10.523438 2.640625 -11.015625 C 2.335938 -11.503906 1.941406 -11.957031 1.453125 -12.375 Z M 1.453125 -12.375 "/></g></g></g><g fill="#ae7b37" fill-opacity="1"><g transform="translate(25.098149, 53.984172)"><g><path d="M 7.53125 -8.203125 L 8.875 -6.296875 L 1.15625 -0.828125 L -6.734375 -11.9375 L 0.84375 -17.296875 L 2.203125 -15.40625 L -3.21875 -11.5625 L -1.328125 -8.875 L 3.359375 -12.203125 L 4.59375 -10.46875 L -0.09375 -7.140625 L 1.96875 -4.25 Z M 7.53125 -8.203125 "/></g></g></g><g fill="#ae7b37" fill-opacity="1"><g transform="translate(34.678241, 47.104441)"><g><path d="M -1.921875 -6.671875 C -2.222656 -7.441406 -2.375 -8.257812 -2.375 -9.125 C -2.382812 -9.988281 -2.238281 -10.820312 -1.9375 -11.625 C -1.632812 -12.4375 -1.160156 -13.175781 -0.515625 -13.84375 C 0.117188 -14.507812 0.929688 -15.035156 1.921875 -15.421875 C 3.085938 -15.859375 4.195312 -15.984375 5.25 -15.796875 C 6.300781 -15.609375 7.195312 -15.1875 7.9375 -14.53125 L 6.53125 -12.484375 C 6.21875 -12.785156 5.894531 -13.007812 5.5625 -13.15625 C 5.238281 -13.3125 4.910156 -13.40625 4.578125 -13.4375 C 4.253906 -13.476562 3.925781 -13.472656 3.59375 -13.421875 C 3.269531 -13.378906 2.96875 -13.304688 2.6875 -13.203125 C 2.070312 -12.960938 1.582031 -12.625 1.21875 -12.1875 C 0.851562 -11.757812 0.59375 -11.289062 0.4375 -10.78125 C 0.289062 -10.269531 0.234375 -9.726562 0.265625 -9.15625 C 0.304688 -8.59375 0.425781 -8.054688 0.625 -7.546875 C 0.832031 -6.984375 1.125 -6.476562 1.5 -6.03125 C 1.882812 -5.582031 2.3125 -5.222656 2.78125 -4.953125 C 3.257812 -4.679688 3.773438 -4.515625 4.328125 -4.453125 C 4.890625 -4.390625 5.441406 -4.460938 5.984375 -4.671875 C 6.273438 -4.785156 6.5625 -4.9375 6.84375 -5.125 C 7.132812 -5.320312 7.382812 -5.550781 7.59375 -5.8125 C 7.8125 -6.070312 7.992188 -6.367188 8.140625 -6.703125 C 8.296875 -7.035156 8.378906 -7.40625 8.390625 -7.8125 L 10.859375 -7.421875 C 10.835938 -6.867188 10.707031 -6.335938 10.46875 -5.828125 C 10.238281 -5.316406 9.9375 -4.847656 9.5625 -4.421875 C 9.1875 -3.992188 8.753906 -3.609375 8.265625 -3.265625 C 7.773438 -2.929688 7.273438 -2.664062 6.765625 -2.46875 C 5.859375 -2.113281 4.953125 -1.984375 4.046875 -2.078125 C 3.148438 -2.171875 2.3125 -2.421875 1.53125 -2.828125 C 0.75 -3.242188 0.0546875 -3.785156 -0.546875 -4.453125 C -1.160156 -5.117188 -1.617188 -5.859375 -1.921875 -6.671875 Z M -1.921875 -6.671875 "/></g></g></g><g fill="#ae7b37" fill-opacity="1"><g transform="translate(47.080922, 42.270418)"><g><path d="M 7.21875 -0.546875 C 6.226562 -0.453125 5.304688 -0.566406 4.453125 -0.890625 C 3.609375 -1.210938 2.867188 -1.664062 2.234375 -2.25 C 1.597656 -2.84375 1.082031 -3.535156 0.6875 -4.328125 C 0.300781 -5.128906 0.0703125 -5.960938 0 -6.828125 C -0.0820312 -7.734375 0.00390625 -8.613281 0.265625 -9.46875 C 0.535156 -10.332031 0.9375 -11.109375 1.46875 -11.796875 C 2 -12.492188 2.660156 -13.066406 3.453125 -13.515625 C 4.242188 -13.960938 5.113281 -14.226562 6.0625 -14.3125 C 7.039062 -14.394531 7.953125 -14.269531 8.796875 -13.9375 C 9.640625 -13.613281 10.378906 -13.148438 11.015625 -12.546875 C 11.648438 -11.941406 12.160156 -11.238281 12.546875 -10.4375 C 12.941406 -9.644531 13.175781 -8.816406 13.25 -7.953125 C 13.332031 -7.054688 13.238281 -6.179688 12.96875 -5.328125 C 12.707031 -4.472656 12.3125 -3.707031 11.78125 -3.03125 C 11.25 -2.351562 10.59375 -1.789062 9.8125 -1.34375 C 9.039062 -0.894531 8.175781 -0.628906 7.21875 -0.546875 Z M 2.671875 -7.0625 C 2.722656 -6.476562 2.859375 -5.921875 3.078125 -5.390625 C 3.304688 -4.859375 3.609375 -4.394531 3.984375 -4 C 4.359375 -3.613281 4.800781 -3.316406 5.3125 -3.109375 C 5.820312 -2.898438 6.390625 -2.820312 7.015625 -2.875 C 7.660156 -2.925781 8.21875 -3.101562 8.6875 -3.40625 C 9.15625 -3.707031 9.535156 -4.09375 9.828125 -4.5625 C 10.128906 -5.03125 10.335938 -5.539062 10.453125 -6.09375 C 10.578125 -6.65625 10.617188 -7.210938 10.578125 -7.765625 C 10.523438 -8.347656 10.378906 -8.90625 10.140625 -9.4375 C 9.910156 -9.976562 9.609375 -10.441406 9.234375 -10.828125 C 8.867188 -11.210938 8.425781 -11.507812 7.90625 -11.71875 C 7.394531 -11.925781 6.832031 -12.003906 6.21875 -11.953125 C 5.582031 -11.890625 5.03125 -11.707031 4.5625 -11.40625 C 4.09375 -11.101562 3.707031 -10.722656 3.40625 -10.265625 C 3.113281 -9.804688 2.90625 -9.296875 2.78125 -8.734375 C 2.65625 -8.179688 2.617188 -7.625 2.671875 -7.0625 Z M 2.671875 -7.0625 "/></g></g></g><g fill="#ae7b37" fill-opacity="1"><g transform="translate(61.677202, 41.120467)"><g><path d="M 1.390625 0.265625 L 3.921875 -13.125 L 9.84375 -12.015625 C 10.46875 -11.890625 11.015625 -11.648438 11.484375 -11.296875 C 11.953125 -10.953125 12.332031 -10.53125 12.625 -10.03125 C 12.925781 -9.53125 13.132812 -8.992188 13.25 -8.421875 C 13.363281 -7.847656 13.367188 -7.289062 13.265625 -6.75 C 13.097656 -5.875 12.726562 -5.125 12.15625 -4.5 C 11.59375 -3.882812 10.914062 -3.484375 10.125 -3.296875 L 12.21875 2.3125 L 9.296875 1.75 L 7.40625 -3.25 L 4.828125 -3.734375 L 3.984375 0.75 Z M 5.265625 -6.015625 L 8.546875 -5.390625 C 8.773438 -5.347656 9.003906 -5.363281 9.234375 -5.4375 C 9.472656 -5.507812 9.679688 -5.628906 9.859375 -5.796875 C 10.046875 -5.960938 10.207031 -6.171875 10.34375 -6.421875 C 10.488281 -6.671875 10.585938 -6.945312 10.640625 -7.25 C 10.703125 -7.5625 10.707031 -7.851562 10.65625 -8.125 C 10.601562 -8.40625 10.507812 -8.660156 10.375 -8.890625 C 10.238281 -9.128906 10.070312 -9.320312 9.875 -9.46875 C 9.6875 -9.613281 9.472656 -9.707031 9.234375 -9.75 L 6.078125 -10.34375 Z M 5.265625 -6.015625 "/></g></g></g><g fill="#ae7b37" fill-opacity="1"><g transform="translate(74.424611, 43.542982)"><g><path d="M 10.65625 -10.015625 L 12.765625 -9 L 11.5625 5.53125 L 9.109375 4.359375 L 9.4375 0.75 L 5.140625 -1.3125 L 2.546875 1.21875 L 0.078125 0.046875 Z M 9.796875 -1.140625 L 10.40625 -6.765625 L 6.34375 -2.78125 Z M 9.796875 -1.140625 "/></g></g></g><g fill="#ae7b37" fill-opacity="1"><g transform="translate(86.233664, 49.202116)"><g><path d="M 4.953125 -4.84375 C 5.492188 -5.476562 6.144531 -6.003906 6.90625 -6.421875 C 7.664062 -6.835938 8.46875 -7.101562 9.3125 -7.21875 C 10.164062 -7.34375 11.039062 -7.28125 11.9375 -7.03125 C 12.832031 -6.78125 13.679688 -6.3125 14.484375 -5.625 C 15.429688 -4.8125 16.066406 -3.894531 16.390625 -2.875 C 16.722656 -1.863281 16.773438 -0.875 16.546875 0.09375 L 14.109375 -0.1875 C 14.210938 -0.601562 14.253906 -0.988281 14.234375 -1.34375 C 14.210938 -1.707031 14.140625 -2.039062 14.015625 -2.34375 C 13.890625 -2.65625 13.726562 -2.941406 13.53125 -3.203125 C 13.332031 -3.460938 13.117188 -3.691406 12.890625 -3.890625 C 12.390625 -4.328125 11.863281 -4.601562 11.3125 -4.71875 C 10.757812 -4.832031 10.21875 -4.832031 9.6875 -4.71875 C 9.164062 -4.613281 8.664062 -4.410156 8.1875 -4.109375 C 7.707031 -3.804688 7.289062 -3.445312 6.9375 -3.03125 C 6.539062 -2.570312 6.234375 -2.070312 6.015625 -1.53125 C 5.804688 -0.988281 5.695312 -0.445312 5.6875 0.09375 C 5.675781 0.644531 5.773438 1.179688 5.984375 1.703125 C 6.191406 2.222656 6.519531 2.671875 6.96875 3.046875 C 7.195312 3.253906 7.460938 3.4375 7.765625 3.59375 C 8.066406 3.75 8.382812 3.859375 8.71875 3.921875 C 9.050781 3.992188 9.398438 4.015625 9.765625 3.984375 C 10.140625 3.960938 10.503906 3.851562 10.859375 3.65625 L 11.6875 6.03125 C 11.1875 6.269531 10.65625 6.40625 10.09375 6.4375 C 9.539062 6.476562 8.984375 6.4375 8.421875 6.3125 C 7.867188 6.1875 7.328125 5.984375 6.796875 5.703125 C 6.265625 5.429688 5.789062 5.117188 5.375 4.765625 C 4.632812 4.128906 4.09375 3.394531 3.75 2.5625 C 3.40625 1.726562 3.226562 0.875 3.21875 0 C 3.21875 -0.875 3.363281 -1.734375 3.65625 -2.578125 C 3.957031 -3.429688 4.390625 -4.1875 4.953125 -4.84375 Z M 4.953125 -4.84375 "/></g></g></g><g fill="#ae7b37" fill-opacity="1"><g transform="translate(96.297732, 58.40564)"><g><path d="M 0.875 1.125 L 11.59375 -7.28125 L 13.21875 -5.203125 L 2.5 3.203125 Z M 0.875 1.125 "/></g></g></g><g fill="#ae7b37" fill-opacity="1"><g transform="translate(100.320922, 62.857848)"><g><path d="M 3.109375 6.546875 C 2.671875 5.640625 2.445312 4.734375 2.4375 3.828125 C 2.425781 2.929688 2.582031 2.078125 2.90625 1.265625 C 3.226562 0.460938 3.691406 -0.257812 4.296875 -0.90625 C 4.898438 -1.5625 5.59375 -2.082031 6.375 -2.46875 C 7.195312 -2.863281 8.050781 -3.09375 8.9375 -3.15625 C 9.832031 -3.226562 10.703125 -3.132812 11.546875 -2.875 C 12.390625 -2.625 13.15625 -2.210938 13.84375 -1.640625 C 14.539062 -1.066406 15.101562 -0.351562 15.53125 0.5 C 15.957031 1.382812 16.171875 2.28125 16.171875 3.1875 C 16.171875 4.09375 16.003906 4.945312 15.671875 5.75 C 15.335938 6.5625 14.867188 7.289062 14.265625 7.9375 C 13.660156 8.59375 12.972656 9.109375 12.203125 9.484375 C 11.390625 9.890625 10.535156 10.125 9.640625 10.1875 C 8.753906 10.25 7.894531 10.15625 7.0625 9.90625 C 6.238281 9.65625 5.476562 9.242188 4.78125 8.671875 C 4.082031 8.109375 3.523438 7.398438 3.109375 6.546875 Z M 7.546875 -0.046875 C 7.015625 0.210938 6.539062 0.539062 6.125 0.9375 C 5.71875 1.332031 5.398438 1.773438 5.171875 2.265625 C 4.941406 2.753906 4.820312 3.28125 4.8125 3.84375 C 4.800781 4.40625 4.929688 4.96875 5.203125 5.53125 C 5.492188 6.101562 5.863281 6.550781 6.3125 6.875 C 6.757812 7.207031 7.253906 7.425781 7.796875 7.53125 C 8.347656 7.644531 8.898438 7.660156 9.453125 7.578125 C 10.015625 7.492188 10.546875 7.328125 11.046875 7.078125 C 11.578125 6.816406 12.050781 6.484375 12.46875 6.078125 C 12.882812 5.671875 13.207031 5.222656 13.4375 4.734375 C 13.664062 4.242188 13.78125 3.722656 13.78125 3.171875 C 13.789062 2.617188 13.660156 2.066406 13.390625 1.515625 C 13.109375 0.941406 12.738281 0.488281 12.28125 0.15625 C 11.832031 -0.175781 11.335938 -0.398438 10.796875 -0.515625 C 10.265625 -0.628906 9.71875 -0.640625 9.15625 -0.546875 C 8.59375 -0.460938 8.054688 -0.296875 7.546875 -0.046875 Z M 7.546875 -0.046875 "/></g></g></g><g fill="#ae7b37" fill-opacity="1"><g transform="translate(106.74054, 75.957462)"><g><path d="M 9.28125 2.5625 L 0.671875 4 L 0.234375 1.40625 L 13.671875 -0.828125 L 14 1.1875 L 6.359375 9.671875 L 15.15625 8.203125 L 15.59375 10.8125 L 2.171875 13.046875 L 1.8125 10.921875 Z M 9.28125 2.5625 "/></g></g></g><g fill="#ae7b37" fill-opacity="1"><g transform="translate(108.939329, 90.602145)"><g><path d="M 1.234375 11.0625 L -1.078125 10.828125 L -0.140625 1.421875 L 13.421875 2.78125 L 12.5 12.015625 L 10.171875 11.78125 L 10.828125 5.171875 L 7.5625 4.84375 L 6.984375 10.5625 L 4.859375 10.359375 L 5.4375 4.640625 L 1.90625 4.28125 Z M 1.234375 11.0625 "/></g></g></g><g fill="#ae7b37" fill-opacity="1"><g transform="translate(107.742444, 102.380438)"><g><path d="M 6.3125 12.3125 C 6.425781 12.269531 6.59375 12.160156 6.8125 11.984375 C 7.039062 11.804688 7.28125 11.582031 7.53125 11.3125 C 7.789062 11.050781 8.03125 10.75 8.25 10.40625 C 8.476562 10.0625 8.660156 9.703125 8.796875 9.328125 C 9.035156 8.640625 9.085938 8.082031 8.953125 7.65625 C 8.828125 7.226562 8.53125 6.9375 8.0625 6.78125 C 7.800781 6.6875 7.5625 6.671875 7.34375 6.734375 C 7.132812 6.796875 6.914062 6.921875 6.6875 7.109375 C 6.46875 7.304688 6.238281 7.566406 6 7.890625 C 5.769531 8.222656 5.503906 8.609375 5.203125 9.046875 C 4.816406 9.628906 4.4375 10.140625 4.0625 10.578125 C 3.6875 11.023438 3.289062 11.375 2.875 11.625 C 2.46875 11.882812 2.023438 12.035156 1.546875 12.078125 C 1.066406 12.128906 0.535156 12.050781 -0.046875 11.84375 C -0.734375 11.59375 -1.273438 11.253906 -1.671875 10.828125 C -2.066406 10.398438 -2.335938 9.910156 -2.484375 9.359375 C -2.628906 8.804688 -2.671875 8.222656 -2.609375 7.609375 C -2.546875 6.992188 -2.398438 6.375 -2.171875 5.75 C -1.835938 4.78125 -1.359375 3.875 -0.734375 3.03125 C -0.117188 2.1875 0.582031 1.484375 1.375 0.921875 L 3.140625 2.796875 C 2.984375 2.867188 2.769531 3.015625 2.5 3.234375 C 2.226562 3.453125 1.9375 3.722656 1.625 4.046875 C 1.320312 4.367188 1.023438 4.742188 0.734375 5.171875 C 0.441406 5.597656 0.210938 6.0625 0.046875 6.5625 C -0.441406 7.9375 -0.242188 8.78125 0.640625 9.09375 C 0.910156 9.1875 1.171875 9.1875 1.421875 9.09375 C 1.679688 9.007812 1.929688 8.847656 2.171875 8.609375 C 2.410156 8.378906 2.664062 8.082031 2.9375 7.71875 C 3.207031 7.351562 3.5 6.929688 3.8125 6.453125 C 4.207031 5.910156 4.582031 5.445312 4.9375 5.0625 C 5.300781 4.675781 5.671875 4.378906 6.046875 4.171875 C 6.421875 3.972656 6.8125 3.859375 7.21875 3.828125 C 7.632812 3.804688 8.085938 3.882812 8.578125 4.0625 C 9.222656 4.28125 9.757812 4.601562 10.1875 5.03125 C 10.613281 5.457031 10.914062 5.941406 11.09375 6.484375 C 11.28125 7.035156 11.363281 7.625 11.34375 8.25 C 11.320312 8.875 11.195312 9.515625 10.96875 10.171875 C 10.644531 11.078125 10.203125 11.859375 9.640625 12.515625 C 9.085938 13.171875 8.53125 13.710938 7.96875 14.140625 Z M 6.3125 12.3125 "/></g></g></g></g></g></g><path fill="#e6cfc8" d="M 257.875 151.464844 C 258.121094 151.617188 257.710938 152.496094 257.636719 152.683594 C 257.125 154.011719 256.542969 155.355469 255.875 156.609375 C 255.304688 157.675781 254.925781 158.96875 254.226562 159.960938 C 252.105469 162.960938 244.960938 167.324219 242.175781 163.144531 C 239.835938 159.632812 246.316406 155.832031 248.542969 154.5625 C 249.417969 154.058594 250.242188 153.671875 251.210938 153.367188 C 252.574219 152.941406 253.9375 152.457031 255.304688 152.003906 C 255.734375 151.859375 256.167969 151.554688 256.613281 151.492188 C 256.851562 151.457031 257.507812 151.371094 257.292969 151.265625 C 257.121094 151.179688 256.125 151.507812 255.929688 151.546875 C 254.785156 151.792969 253.578125 151.898438 252.40625 152.003906 C 251.351562 152.097656 250.285156 152.058594 249.222656 152.058594 C 245.835938 152.058594 236.941406 150.660156 238.027344 145.238281 C 238.441406 143.160156 240.886719 142.984375 242.574219 143.078125 C 246.5 143.296875 250.167969 146.238281 253.488281 148.023438 C 254.390625 148.511719 255.242188 149.046875 256.15625 149.503906 C 256.605469 149.726562 257.027344 150.023438 257.464844 150.242188 C 257.574219 150.296875 257.75 150.46875 257.75 150.46875 C 257.75 150.46875 257.511719 150.375 257.410156 150.296875 C 256.929688 149.941406 256.304688 149.660156 255.929688 149.160156 C 255.066406 148.011719 254.082031 146.828125 253.203125 145.636719 C 252.59375 144.808594 252.125 143.941406 251.667969 143.023438 C 250.050781 139.789062 247.125 131.824219 252.578125 130.460938 C 254.285156 130.035156 255.496094 131.320312 256.554688 132.449219 C 259.71875 135.824219 259.097656 140.957031 258.773438 145.183594 C 258.667969 146.523438 258.8125 148.039062 258.488281 149.332031 C 258.355469 149.867188 258.484375 150.488281 258.375 151.039062 C 258.363281 151.097656 258.316406 151.207031 258.316406 151.207031 L 258.316406 150.921875 C 258.316406 150.460938 258.539062 149.882812 258.660156 149.445312 C 258.910156 148.539062 259.222656 147.542969 259.683594 146.71875 C 261.445312 143.539062 263.101562 136.585938 267.980469 137.28125 C 272.015625 137.859375 272.410156 142.320312 270.539062 145.125 C 268.828125 147.691406 261.910156 151.664062 258.546875 151.664062 C 258.375 151.664062 258.886719 151.691406 259.058594 151.664062 C 259.445312 151.597656 259.863281 151.519531 260.25 151.433594 C 261.480469 151.171875 262.6875 150.933594 263.945312 150.808594 C 267.214844 150.484375 271.457031 150.59375 273.949219 153.082031 C 274.820312 153.957031 276.03125 155.171875 275.652344 156.550781 C 275.277344 157.925781 273.484375 158.472656 272.242188 158.539062 C 268.378906 158.753906 265.746094 156.601562 262.582031 154.675781 C 261.59375 154.074219 260.722656 153.351562 259.738281 152.742188 C 259.625 152.671875 258.546875 152.164062 258.546875 151.890625 C 258.546875 151.621094 258.980469 152.210938 259.171875 152.402344 C 259.480469 152.714844 259.765625 153.054688 260.078125 153.367188 C 260.972656 154.261719 261.621094 155.242188 262.351562 156.265625 C 264.203125 158.855469 265.769531 162.890625 264.96875 166.097656 C 264.648438 167.378906 264.074219 168.890625 262.75 169.453125 C 259.886719 170.671875 258.027344 168.71875 256.726562 166.441406 C 254.652344 162.808594 257.875 155.472656 257.875 151.464844 Z M 257.875 151.464844 " fill-opacity="1" fill-rule="evenodd"/><g clip-path="url(#2587eab259)"><path fill="#e6cfc8" d="M 249.46875 153.003906 L 249.449219 153.015625 C 248.984375 153.222656 248.53125 153.460938 248.0625 153.726562 C 246.453125 154.644531 242.777344 156.84375 241.363281 159.304688 C 240.546875 160.722656 240.390625 162.222656 241.363281 163.683594 C 242.769531 165.800781 245.074219 166.199219 247.5 165.585938 C 250.519531 164.816406 253.699219 162.421875 255.035156 160.53125 C 255.277344 160.1875 255.488281 159.816406 255.679688 159.425781 C 255.707031 159.367188 255.738281 159.308594 255.765625 159.246094 C 255.589844 160.152344 255.445312 161.050781 255.367188 161.914062 C 255.199219 163.796875 255.355469 165.511719 256.09375 166.800781 C 256.972656 168.34375 258.109375 169.722656 259.5625 170.28125 C 260.558594 170.667969 261.707031 170.695312 263.039062 170.132812 C 263.699219 169.851562 264.214844 169.386719 264.613281 168.824219 C 265.148438 168.070312 265.472656 167.128906 265.6875 166.28125 C 266.039062 164.875 265.980469 163.324219 265.644531 161.792969 C 265.164062 159.601562 264.121094 157.445312 262.964844 155.828125 L 262.949219 155.804688 C 264.59375 156.839844 266.128906 157.875 267.808594 158.550781 C 269.171875 159.09375 270.621094 159.40625 272.285156 159.316406 C 273.140625 159.269531 274.222656 159.015625 275.050781 158.492188 C 275.703125 158.078125 276.203125 157.503906 276.40625 156.757812 C 276.613281 156.007812 276.484375 155.296875 276.167969 154.632812 C 275.777344 153.828125 275.082031 153.105469 274.503906 152.527344 C 273.402344 151.421875 271.988281 150.734375 270.457031 150.339844 C 268.976562 149.957031 267.382812 149.851562 265.867188 149.890625 C 268.238281 148.535156 270.351562 146.878906 271.21875 145.578125 C 272.28125 143.988281 272.691406 141.925781 272.277344 140.175781 C 271.835938 138.332031 270.519531 136.808594 268.097656 136.460938 C 266.304688 136.203125 264.875 136.808594 263.699219 137.894531 C 261.859375 139.589844 260.699219 142.597656 259.65625 144.871094 C 259.855469 142.371094 260.105469 139.597656 259.652344 137.050781 C 259.3125 135.132812 258.582031 133.34375 257.191406 131.855469 C 256.480469 131.097656 255.695312 130.292969 254.78125 129.859375 C 254.058594 129.519531 253.265625 129.386719 252.363281 129.613281 C 249.660156 130.285156 248.636719 132.285156 248.542969 134.707031 C 248.433594 137.71875 249.875 141.425781 250.871094 143.421875 C 251.15625 143.996094 251.445312 144.546875 251.765625 145.085938 C 251.984375 145.453125 252.222656 145.8125 252.480469 146.167969 L 252.816406 146.601562 C 251.152344 145.625 249.40625 144.46875 247.589844 143.59375 C 245.984375 142.816406 244.324219 142.257812 242.625 142.160156 C 241.464844 142.09375 240 142.167969 238.90625 142.726562 C 238.023438 143.175781 237.347656 143.90625 237.117188 145.058594 C 236.582031 147.71875 237.988281 149.609375 240.191406 150.871094 C 242.988281 152.46875 247.113281 153 249.222656 153.003906 Z M 260.34375 152.234375 L 260.417969 152.21875 C 261.144531 152.0625 261.863281 151.914062 262.585938 151.796875 C 263.0625 151.71875 263.539062 151.652344 264.023438 151.601562 C 265.890625 151.414062 268.089844 151.367188 270.066406 151.871094 C 271.320312 152.191406 272.488281 152.734375 273.394531 153.640625 C 273.859375 154.101562 274.441406 154.667969 274.757812 155.316406 C 274.914062 155.636719 275 155.980469 274.898438 156.34375 C 274.773438 156.816406 274.375 157.121094 273.925781 157.335938 C 273.375 157.605469 272.726562 157.734375 272.199219 157.765625 C 270.78125 157.84375 269.542969 157.578125 268.382812 157.117188 C 266.519531 156.375 264.84375 155.15625 262.976562 154.023438 Z M 259.335938 150.792969 L 259.402344 150.78125 L 259.734375 150.71875 C 261.191406 150.410156 262.992188 149.628906 264.695312 148.691406 C 266.953125 147.441406 269.042969 145.898438 269.855469 144.671875 C 270.664062 143.457031 270.992188 141.890625 270.671875 140.5625 C 270.375 139.328125 269.480469 138.332031 267.863281 138.101562 C 266.183594 137.863281 264.988281 138.753906 264.027344 140.015625 C 262.414062 142.144531 261.441406 145.285156 260.417969 147.128906 C 260.253906 147.425781 260.109375 147.75 259.984375 148.082031 C 259.78125 148.605469 259.617188 149.15625 259.476562 149.671875 C 259.417969 149.882812 259.335938 150.128906 259.265625 150.375 C 259.269531 150.5 259.273438 150.625 259.265625 150.746094 L 259.261719 150.800781 Z M 258.402344 153.46875 C 258 156.035156 257.054688 159.238281 256.808594 162.042969 C 256.675781 163.59375 256.75 165.015625 257.359375 166.078125 C 257.949219 167.109375 258.652344 168.078125 259.546875 168.640625 C 260.34375 169.140625 261.304688 169.269531 262.460938 168.773438 C 262.972656 168.558594 263.328125 168.144531 263.59375 167.675781 C 263.910156 167.128906 264.105469 166.496094 264.25 165.917969 C 264.617188 164.433594 264.421875 162.761719 263.9375 161.15625 C 263.4375 159.507812 262.621094 157.933594 261.742188 156.703125 C 261.308594 156.097656 260.902344 155.507812 260.457031 154.941406 C 260.175781 154.585938 259.878906 154.238281 259.542969 153.902344 L 258.757812 153.066406 C 258.703125 153.035156 258.648438 153.003906 258.597656 152.972656 L 258.570312 153.042969 C 258.515625 153.183594 258.457031 153.328125 258.402344 153.46875 Z M 257.625 149.296875 L 257 148.941406 C 256.867188 148.847656 256.746094 148.746094 256.648438 148.621094 L 253.921875 145.105469 C 253.636719 144.71875 253.386719 144.324219 253.152344 143.917969 C 252.910156 143.5 252.6875 143.066406 252.464844 142.625 C 251.5625 140.824219 250.210938 137.492188 250.308594 134.773438 C 250.363281 133.152344 250.980469 131.765625 252.789062 131.3125 C 253.386719 131.160156 253.894531 131.328125 254.351562 131.617188 C 254.9375 131.984375 255.441406 132.539062 255.921875 133.046875 C 257.074219 134.277344 257.664062 135.769531 257.953125 137.355469 C 258.40625 139.890625 258.105469 142.660156 257.917969 145.117188 C 257.847656 146.046875 257.898438 147.066406 257.824219 148.03125 C 257.796875 148.410156 257.75 148.777344 257.664062 149.125 C 257.648438 149.183594 257.636719 149.238281 257.625 149.296875 Z M 256.644531 152.476562 C 256.414062 153.074219 256.167969 153.675781 255.902344 154.265625 C 255.621094 154.90625 255.320312 155.53125 254.996094 156.140625 C 254.59375 156.894531 254.285156 157.757812 253.898438 158.554688 C 253.753906 158.847656 253.597656 159.128906 253.414062 159.390625 C 252.285156 160.996094 249.578125 163.023438 247.015625 163.683594 C 245.441406 164.085938 243.902344 163.976562 242.988281 162.601562 C 242.269531 161.53125 242.796875 160.441406 243.632812 159.445312 C 245.148438 157.625 247.78125 156.105469 249.019531 155.398438 C 249.429688 155.160156 249.828125 154.949219 250.238281 154.765625 C 250.640625 154.582031 251.054688 154.421875 251.5 154.28125 L 255.605469 152.910156 Z M 256.09375 150.503906 L 256.113281 150.515625 C 255.941406 150.566406 255.796875 150.605469 255.730469 150.621094 C 255.296875 150.714844 254.851562 150.785156 254.40625 150.84375 C 253.710938 150.9375 253.011719 150.996094 252.320312 151.0625 C 251.921875 151.097656 251.519531 151.113281 251.121094 151.121094 C 250.488281 151.128906 249.855469 151.117188 249.222656 151.117188 C 247.332031 151.121094 243.625 150.675781 241.117188 149.25 C 239.640625 148.40625 238.582031 147.207031 238.933594 145.421875 C 239.070312 144.746094 239.558594 144.40625 240.125 144.21875 C 240.886719 143.964844 241.789062 143.957031 242.523438 144 C 243.988281 144.078125 245.410156 144.578125 246.792969 145.242188 C 248.992188 146.296875 251.085938 147.765625 253.054688 148.824219 L 255.753906 150.3125 Z M 256.09375 150.503906 " fill-opacity="1" fill-rule="evenodd"/></g><g clip-path="url(#59ece704b3)"><path fill="#e6cfc8" d="M 279.269531 115.695312 C 279.441406 115.816406 279.148438 116.519531 279.097656 116.671875 C 278.734375 117.730469 278.320312 118.804688 277.84375 119.808594 C 277.4375 120.660156 277.167969 121.695312 276.671875 122.488281 C 275.164062 124.886719 270.078125 128.375 268.09375 125.035156 C 266.429688 122.226562 271.039062 119.1875 272.625 118.171875 C 273.25 117.769531 273.835938 117.460938 274.527344 117.21875 C 275.496094 116.875 276.46875 116.492188 277.4375 116.125 C 277.742188 116.011719 278.050781 115.769531 278.371094 115.71875 C 278.539062 115.691406 279.007812 115.621094 278.855469 115.535156 C 278.730469 115.464844 278.023438 115.730469 277.882812 115.761719 C 277.070312 115.957031 276.210938 116.042969 275.375 116.125 C 274.625 116.203125 273.867188 116.171875 273.109375 116.171875 C 270.699219 116.171875 264.371094 115.054688 265.140625 110.71875 C 265.4375 109.054688 267.175781 108.917969 268.378906 108.992188 C 271.171875 109.164062 273.785156 111.515625 276.144531 112.945312 C 276.789062 113.335938 277.394531 113.761719 278.046875 114.125 C 278.363281 114.304688 278.664062 114.542969 278.976562 114.71875 C 279.054688 114.761719 279.179688 114.898438 279.179688 114.898438 C 279.179688 114.898438 279.007812 114.824219 278.9375 114.761719 C 278.59375 114.476562 278.148438 114.25 277.882812 113.855469 C 277.269531 112.933594 276.566406 111.988281 275.941406 111.035156 C 275.507812 110.375 275.175781 109.679688 274.851562 108.945312 C 273.699219 106.359375 271.617188 99.992188 275.496094 98.902344 C 276.710938 98.5625 277.574219 99.589844 278.328125 100.492188 C 280.582031 103.191406 280.136719 107.292969 279.90625 110.671875 C 279.832031 111.742188 279.933594 112.957031 279.703125 113.988281 C 279.609375 114.417969 279.703125 114.914062 279.625 115.355469 C 279.613281 115.402344 279.582031 115.488281 279.582031 115.488281 L 279.582031 115.261719 C 279.582031 114.890625 279.738281 114.429688 279.824219 114.082031 C 280.003906 113.355469 280.226562 112.558594 280.554688 111.898438 C 281.808594 109.359375 282.988281 103.796875 286.460938 104.355469 C 289.332031 104.816406 289.613281 108.382812 288.28125 110.628906 C 287.0625 112.679688 282.140625 115.855469 279.746094 115.855469 C 279.625 115.855469 279.988281 115.875 280.109375 115.855469 C 280.386719 115.800781 280.683594 115.738281 280.957031 115.671875 C 281.832031 115.460938 282.695312 115.273438 283.589844 115.171875 C 285.914062 114.910156 288.933594 115 290.707031 116.988281 C 291.328125 117.6875 292.191406 118.660156 291.921875 119.761719 C 291.65625 120.863281 290.375 121.296875 289.496094 121.351562 C 286.742188 121.523438 284.871094 119.804688 282.617188 118.261719 C 281.914062 117.78125 281.296875 117.203125 280.59375 116.71875 C 280.515625 116.660156 279.746094 116.253906 279.746094 116.035156 C 279.746094 115.820312 280.054688 116.292969 280.191406 116.445312 C 280.410156 116.695312 280.613281 116.964844 280.835938 117.21875 C 281.472656 117.929688 281.933594 118.714844 282.457031 119.535156 C 283.773438 121.605469 284.886719 124.832031 284.316406 127.398438 C 284.089844 128.421875 283.679688 129.628906 282.738281 130.078125 C 280.699219 131.050781 279.375 129.492188 278.449219 127.667969 C 276.972656 124.765625 279.269531 118.902344 279.269531 115.695312 Z M 279.269531 115.695312 " fill-opacity="1" fill-rule="evenodd"/></g><g clip-path="url(#81bc506cd0)"><path fill="#e6cfc8" d="M 272.535156 117.097656 C 272.394531 117.179688 272.25 117.269531 272.105469 117.363281 C 270.914062 118.125 268.183594 119.96875 267.191406 122.023438 C 266.644531 123.164062 266.5625 124.359375 267.253906 125.53125 C 268.347656 127.378906 270.144531 127.707031 272.03125 127.152344 C 274.121094 126.539062 276.3125 124.746094 277.359375 123.242188 C 277.324219 123.511719 277.296875 123.777344 277.273438 124.039062 C 277.152344 125.566406 277.269531 126.953125 277.800781 128 C 278.429688 129.238281 279.25 130.34375 280.277344 130.828125 C 281.070312 131.203125 281.988281 131.253906 283.054688 130.742188 C 283.574219 130.5 283.976562 130.089844 284.285156 129.589844 C 284.660156 128.984375 284.890625 128.234375 285.039062 127.558594 C 285.351562 126.175781 285.21875 124.613281 284.824219 123.117188 C 284.511719 121.9375 284.035156 120.796875 283.5 119.824219 C 284.386719 120.453125 285.253906 121.046875 286.179688 121.46875 C 287.199219 121.9375 288.289062 122.203125 289.542969 122.128906 C 290.210938 122.085938 291.058594 121.859375 291.699219 121.386719 C 292.167969 121.039062 292.53125 120.5625 292.679688 119.945312 C 292.828125 119.339844 292.742188 118.761719 292.519531 118.226562 C 292.238281 117.550781 291.722656 116.949219 291.296875 116.46875 C 290.492188 115.5625 289.46875 114.996094 288.359375 114.664062 C 287.449219 114.394531 286.480469 114.285156 285.535156 114.273438 C 287.078125 113.230469 288.40625 112.011719 288.984375 111.042969 C 289.898438 109.507812 290.140625 107.429688 289.519531 105.875 C 289.042969 104.691406 288.097656 103.78125 286.589844 103.535156 C 285.15625 103.304688 284.019531 103.871094 283.09375 104.886719 C 282.160156 105.914062 281.476562 107.46875 280.886719 108.929688 C 280.980469 107.371094 281.023438 105.742188 280.792969 104.214844 C 280.550781 102.632812 280.015625 101.15625 279 99.933594 C 278.484375 99.316406 277.914062 98.667969 277.253906 98.304688 C 276.664062 97.976562 276.003906 97.851562 275.261719 98.058594 C 273.214844 98.628906 272.414062 100.328125 272.367188 102.398438 C 272.316406 104.800781 273.332031 107.726562 274.035156 109.308594 C 274.238281 109.769531 274.445312 110.210938 274.671875 110.644531 C 274.742188 110.773438 274.8125 110.902344 274.886719 111.03125 C 273.738281 110.246094 272.539062 109.421875 271.296875 108.851562 C 270.363281 108.421875 269.410156 108.132812 268.433594 108.070312 C 267.523438 108.011719 266.367188 108.09375 265.523438 108.613281 C 264.890625 109.003906 264.398438 109.609375 264.226562 110.554688 C 263.847656 112.671875 264.804688 114.1875 266.320312 115.234375 C 268.140625 116.488281 270.84375 117 272.535156 117.097656 Z M 281.417969 116.386719 C 281.753906 116.304688 282.085938 116.230469 282.421875 116.164062 C 282.835938 116.082031 283.253906 116.011719 283.675781 115.964844 C 284.984375 115.816406 286.527344 115.773438 287.910156 116.179688 C 288.742188 116.425781 289.519531 116.835938 290.121094 117.511719 C 290.398438 117.824219 290.738281 118.199219 290.972656 118.621094 C 291.132812 118.914062 291.246094 119.234375 291.160156 119.578125 C 291.085938 119.894531 290.851562 120.101562 290.589844 120.25 C 290.226562 120.457031 289.796875 120.554688 289.445312 120.578125 C 288.46875 120.640625 287.617188 120.425781 286.820312 120.0625 C 285.519531 119.476562 284.351562 118.519531 283.050781 117.628906 Z M 280.5 114.949219 L 280.648438 114.285156 C 280.75 113.875 280.863281 113.441406 281.003906 113.027344 C 281.09375 112.765625 281.195312 112.507812 281.3125 112.273438 C 282.019531 110.835938 282.691406 108.414062 283.789062 106.71875 C 284.425781 105.742188 285.195312 104.992188 286.328125 105.175781 C 287.414062 105.347656 287.980469 106.136719 288.15625 107.074219 C 288.351562 108.097656 288.125 109.285156 287.578125 110.210938 C 287.015625 111.15625 285.589844 112.339844 284.039062 113.3125 C 282.867188 114.046875 281.625 114.671875 280.617188 114.925781 Z M 279.785156 117.71875 L 279.902344 117.402344 L 279.929688 117.316406 L 280.269531 117.722656 C 280.507812 117.984375 280.714844 118.257812 280.914062 118.542969 C 281.226562 118.992188 281.511719 119.460938 281.820312 119.9375 C 282.445312 120.921875 283.027344 122.183594 283.378906 123.5 C 283.714844 124.757812 283.847656 126.070312 283.589844 127.234375 C 283.492188 127.679688 283.359375 128.164062 283.148438 128.589844 C 282.976562 128.9375 282.753906 129.253906 282.421875 129.414062 C 281.675781 129.769531 281.0625 129.664062 280.550781 129.289062 C 279.960938 128.847656 279.496094 128.113281 279.101562 127.339844 C 278.671875 126.5 278.625 125.378906 278.71875 124.152344 C 278.878906 122.0625 279.476562 119.691406 279.785156 117.71875 Z M 278.910156 113.605469 L 278.824219 113.550781 C 278.753906 113.492188 278.6875 113.429688 278.632812 113.351562 L 276.691406 110.542969 C 276.492188 110.238281 276.316406 109.925781 276.152344 109.605469 C 275.980469 109.273438 275.824219 108.933594 275.667969 108.582031 C 275.035156 107.171875 274.09375 104.574219 274.136719 102.433594 C 274.15625 101.191406 274.507812 100.09375 275.734375 99.746094 C 276.070312 99.652344 276.351562 99.777344 276.609375 99.964844 C 277 100.25 277.335938 100.667969 277.660156 101.050781 C 278.476562 102.027344 278.882812 103.214844 279.082031 104.476562 C 279.394531 106.484375 279.183594 108.671875 279.050781 110.613281 C 279.003906 111.359375 279.035156 112.171875 278.984375 112.945312 C 278.972656 113.167969 278.949219 113.390625 278.910156 113.605469 Z M 277.945312 116.9375 C 277.832031 117.253906 277.710938 117.574219 277.585938 117.890625 C 277.386719 118.398438 277.171875 118.898438 276.945312 119.382812 C 276.660156 119.984375 276.441406 120.675781 276.164062 121.3125 C 276.066406 121.539062 275.957031 121.761719 275.832031 121.960938 C 275.058594 123.195312 273.226562 124.753906 271.472656 125.273438 C 270.484375 125.566406 269.507812 125.503906 268.933594 124.535156 C 268.46875 123.757812 268.796875 122.964844 269.320312 122.238281 C 270.367188 120.773438 272.265625 119.546875 273.144531 118.980469 C 273.425781 118.796875 273.703125 118.636719 273.984375 118.492188 C 274.257812 118.351562 274.539062 118.230469 274.84375 118.121094 L 277.773438 117.019531 Z M 277.527344 114.871094 C 277.269531 114.925781 277.011719 114.972656 276.75 115.011719 C 276.261719 115.085938 275.765625 115.132812 275.28125 115.183594 C 275.003906 115.210938 274.730469 115.226562 274.453125 115.230469 C 274.007812 115.238281 273.558594 115.226562 273.109375 115.226562 C 271.769531 115.230469 269.105469 114.875 267.378906 113.695312 C 266.457031 113.0625 265.828125 112.167969 266.054688 110.878906 C 266.132812 110.449219 266.394531 110.207031 266.714844 110.082031 C 267.21875 109.878906 267.828125 109.882812 268.320312 109.910156 C 269.332031 109.972656 270.308594 110.367188 271.261719 110.886719 C 272.8125 111.726562 274.285156 112.886719 275.675781 113.722656 Z M 277.527344 114.871094 " fill-opacity="1" fill-rule="evenodd"/></g><path fill="#d8990b" d="M 256.828125 148.378906 C 257.265625 148.378906 257.683594 148.457031 258.085938 148.609375 C 258.488281 148.765625 258.84375 148.984375 259.152344 149.265625 C 259.460938 149.550781 259.699219 149.875 259.863281 150.246094 C 260.03125 150.617188 260.113281 151.003906 260.113281 151.402344 C 260.113281 151.804688 260.03125 152.191406 259.863281 152.5625 C 259.699219 152.929688 259.460938 153.257812 259.152344 153.542969 C 258.84375 153.824219 258.488281 154.042969 258.085938 154.195312 C 257.683594 154.351562 257.265625 154.425781 256.828125 154.425781 C 256.394531 154.425781 255.976562 154.351562 255.574219 154.195312 C 255.171875 154.042969 254.816406 153.824219 254.507812 153.542969 C 254.199219 153.257812 253.960938 152.929688 253.796875 152.5625 C 253.628906 152.191406 253.546875 151.804688 253.546875 151.402344 C 253.546875 151.003906 253.628906 150.617188 253.796875 150.246094 C 253.960938 149.875 254.199219 149.550781 254.507812 149.265625 C 254.816406 148.984375 255.171875 148.765625 255.574219 148.609375 C 255.976562 148.457031 256.394531 148.378906 256.828125 148.378906 Z M 256.828125 148.378906 " fill-opacity="1" fill-rule="nonzero"/><path fill="#d8990b" d="M 252.832031 151.402344 C 252.816406 152.472656 253.292969 153.445312 254.0625 154.144531 C 254.773438 154.792969 255.75 155.195312 256.828125 155.210938 C 257.917969 155.226562 258.910156 154.832031 259.648438 154.199219 C 260.457031 153.503906 260.953125 152.507812 260.972656 151.402344 C 260.988281 150.289062 260.492188 149.28125 259.695312 148.554688 C 258.957031 147.882812 257.945312 147.46875 256.828125 147.453125 C 255.703125 147.433594 254.679688 147.84375 253.917969 148.5 C 253.074219 149.222656 252.5625 150.257812 252.542969 151.402344 Z M 254.546875 151.402344 C 254.539062 150.835938 254.785156 150.316406 255.195312 149.945312 C 255.617188 149.5625 256.191406 149.320312 256.828125 149.308594 C 257.476562 149.300781 258.074219 149.515625 258.511719 149.890625 C 258.953125 150.269531 259.25 150.804688 259.257812 151.402344 C 259.265625 152.015625 259 152.570312 258.558594 152.96875 C 258.113281 153.375 257.503906 153.632812 256.828125 153.644531 C 256.144531 153.652344 255.515625 153.421875 255.050781 153.023438 C 254.578125 152.617188 254.265625 152.046875 254.257812 151.402344 Z M 254.546875 151.402344 " fill-opacity="1" fill-rule="evenodd"/><g fill="#ae7b37" fill-opacity="1"><g transform="translate(11.485795, 188.647849)"><g><path d="M 7.261719 0.25 C 8.9375 0.25 11.789062 0.1875 13.28125 0 C 14.023438 -0.125 14.707031 -0.621094 14.707031 -1.550781 C 14.519531 -3.847656 14.769531 -6.390625 15.203125 -8.253906 C 15.886719 -10.054688 17.808594 -11.109375 20.417969 -11.171875 L 24.824219 -11.171875 C 27.429688 -11.109375 29.414062 -10.175781 30.035156 -8.253906 C 30.46875 -6.269531 30.71875 -3.785156 30.59375 -1.550781 C 30.53125 -0.621094 31.214844 -0.125 31.957031 0 C 33.386719 0.1875 36.300781 0.25 37.480469 0.25 C 38.597656 0.25 41.761719 0.1875 43.066406 0.0625 C 44.121094 -0.0625 44.742188 -0.808594 44.433594 -1.863281 C 41.082031 -16.691406 35.308594 -32.765625 30.59375 -42.382812 C 30.28125 -42.941406 29.726562 -43.316406 29.042969 -43.4375 C 27.179688 -43.6875 24.265625 -43.6875 22.589844 -43.6875 C 20.914062 -43.6875 17.996094 -43.6875 16.195312 -43.4375 C 15.515625 -43.316406 14.957031 -42.941406 14.707031 -42.382812 C 9.929688 -32.703125 4.15625 -16.753906 0.808594 -1.863281 C 0.496094 -0.867188 1.117188 -0.125 2.234375 0 C 3.476562 0.125 5.832031 0.25 7.261719 0.25 Z M 21.65625 -16.570312 C 19.175781 -16.691406 18.121094 -17.746094 18.679688 -19.609375 C 19.300781 -23.023438 20.230469 -26.746094 21.347656 -30.28125 C 22.09375 -32.457031 23.085938 -32.457031 23.890625 -30.28125 C 24.945312 -26.746094 26 -23.023438 26.558594 -19.609375 C 27.179688 -17.808594 26.0625 -16.691406 23.582031 -16.570312 Z M 21.65625 -16.570312 "/></g></g></g><g fill="#ae7b37" fill-opacity="1"><g transform="translate(58.149712, 188.647849)"><g><path d="M 19.917969 0.25 C 25.195312 0.25 34.875 0.25 39.09375 0 C 40.027344 -0.0625 40.585938 -0.683594 40.523438 -1.550781 C 40.398438 -4.652344 40.027344 -12.96875 39.652344 -16.132812 C 39.53125 -17.871094 37.667969 -18.121094 36.859375 -16.691406 C 33.945312 -11.730469 30.71875 -9.867188 23.644531 -9.867188 C 17.375 -9.867188 14.023438 -12.164062 13.960938 -17.066406 C 13.960938 -26.375 15.515625 -33.570312 17.1875 -41.515625 C 17.4375 -42.507812 16.632812 -43.316406 15.574219 -43.4375 C 14.085938 -43.625 12.410156 -43.6875 10.859375 -43.6875 C 8.5625 -43.6875 6.824219 -43.6875 4.652344 -43.4375 C 3.722656 -43.316406 2.980469 -42.878906 2.917969 -41.949219 C 2.109375 -31.710938 1.613281 -14.894531 1.488281 -1.675781 C 1.488281 -0.683594 2.234375 -0.0625 3.226562 0 C 6.144531 0.1875 15.453125 0.25 19.917969 0.25 Z M 19.917969 0.25 "/></g></g></g><g fill="#ae7b37" fill-opacity="1"><g transform="translate(101.152506, 188.647849)"><g><path d="M 19.917969 0.25 C 25.195312 0.25 34.875 0.25 39.09375 0 C 40.027344 -0.0625 40.585938 -0.683594 40.523438 -1.550781 C 40.398438 -4.652344 40.027344 -12.96875 39.652344 -16.132812 C 39.53125 -17.871094 37.667969 -18.121094 36.859375 -16.691406 C 33.945312 -11.730469 30.71875 -9.867188 23.644531 -9.867188 C 17.375 -9.867188 14.023438 -12.164062 13.960938 -17.066406 C 13.960938 -26.375 15.515625 -33.570312 17.1875 -41.515625 C 17.4375 -42.507812 16.632812 -43.316406 15.574219 -43.4375 C 14.085938 -43.625 12.410156 -43.6875 10.859375 -43.6875 C 8.5625 -43.6875 6.824219 -43.6875 4.652344 -43.4375 C 3.722656 -43.316406 2.980469 -42.878906 2.917969 -41.949219 C 2.109375 -31.710938 1.613281 -14.894531 1.488281 -1.675781 C 1.488281 -0.683594 2.234375 -0.0625 3.226562 0 C 6.144531 0.1875 15.453125 0.25 19.917969 0.25 Z M 19.917969 0.25 "/></g></g></g><g fill="#ae7b37" fill-opacity="1"><g transform="translate(144.155305, 188.647849)"><g><path d="M 20.601562 0.25 C 21.84375 0.25 24.761719 0.1875 26.125 0 C 26.996094 -0.125 27.800781 -0.746094 27.738281 -1.675781 C 27.492188 -6.019531 26.933594 -11.109375 26 -17.6875 C 25.878906 -18.429688 26 -18.925781 26.746094 -19.113281 C 33.820312 -20.914062 39.777344 -32.515625 40.273438 -41.453125 C 40.335938 -42.507812 39.714844 -43.316406 38.597656 -43.4375 C 37.046875 -43.6875 34.875 -43.6875 33.570312 -43.6875 C 32.269531 -43.6875 29.726562 -43.6875 28.171875 -43.4375 C 27.242188 -43.253906 26.621094 -42.695312 26.621094 -41.761719 C 26.1875 -35.1875 23.457031 -24.882812 20.476562 -24.824219 C 17.5 -24.824219 14.957031 -34.9375 14.335938 -41.761719 C 14.273438 -42.695312 13.652344 -43.316406 12.722656 -43.4375 C 11.109375 -43.6875 8.5 -43.6875 7.261719 -43.6875 C 5.957031 -43.6875 3.847656 -43.625 2.296875 -43.4375 C 1.179688 -43.253906 0.558594 -42.507812 0.621094 -41.453125 C 1.117188 -32.515625 7.199219 -21.160156 14.273438 -19.175781 C 14.957031 -18.925781 15.140625 -18.492188 15.015625 -17.746094 C 14.085938 -11.171875 13.464844 -5.957031 13.15625 -1.675781 C 13.09375 -0.808594 13.839844 -0.125 14.769531 0 C 16.257812 0.1875 19.238281 0.25 20.601562 0.25 Z M 20.601562 0.25 "/></g></g></g><g fill="#ae7b37" fill-opacity="1"><g transform="translate(186.537557, 188.647849)"><g><path d="M 20.355469 0.25 C 25.378906 0.25 34.75 0.308594 39.15625 0 C 40.027344 -0.0625 40.707031 -0.683594 40.648438 -1.550781 C 40.523438 -4.40625 40.148438 -13.03125 39.964844 -15.636719 C 39.902344 -17.5 38.101562 -17.871094 37.171875 -16.320312 C 34.378906 -11.789062 30.71875 -9.679688 23.828125 -9.679688 C 19.175781 -9.679688 17.933594 -11.355469 20.976562 -13.777344 C 25.878906 -19.363281 32.394531 -27.863281 36.613281 -33.136719 C 38.289062 -34.6875 39.03125 -36.117188 38.972656 -38.039062 C 38.910156 -39.46875 38.847656 -40.585938 38.722656 -41.886719 C 38.660156 -42.820312 37.976562 -43.375 36.984375 -43.4375 C 34.128906 -43.625 25.257812 -43.6875 20.914062 -43.6875 C 16.257812 -43.6875 9.121094 -43.6875 5.027344 -43.4375 C 4.15625 -43.375 3.476562 -42.757812 3.351562 -41.824219 C 3.164062 -39.40625 2.855469 -31.835938 2.792969 -29.726562 C 2.792969 -28.109375 4.34375 -27.613281 5.335938 -28.980469 C 7.757812 -32.207031 11.542969 -34.070312 17.746094 -34.070312 C 20.914062 -34.070312 23.828125 -32.765625 19.917969 -29.785156 C 14.769531 -24.015625 8.5625 -16.195312 4.035156 -10.796875 C 2.234375 -9.121094 1.242188 -8.003906 1.179688 -5.894531 C 1.179688 -4.21875 1.179688 -3.351562 1.117188 -1.675781 C 1.117188 -0.746094 1.863281 -0.0625 2.917969 0 C 6.082031 0.1875 15.699219 0.25 20.355469 0.25 Z M 20.355469 0.25 "/></g></g></g><g fill="#e6cfc8" fill-opacity="1"><g transform="translate(8.28528, 186.322542)"><g><path d="M 7.261719 0.25 C 8.9375 0.25 11.789062 0.1875 13.28125 0 C 14.023438 -0.125 14.707031 -0.621094 14.707031 -1.550781 C 14.519531 -3.847656 14.769531 -6.390625 15.203125 -8.253906 C 15.886719 -10.054688 17.808594 -11.109375 20.417969 -11.171875 L 24.824219 -11.171875 C 27.429688 -11.109375 29.414062 -10.175781 30.035156 -8.253906 C 30.46875 -6.269531 30.71875 -3.785156 30.59375 -1.550781 C 30.53125 -0.621094 31.214844 -0.125 31.957031 0 C 33.386719 0.1875 36.300781 0.25 37.480469 0.25 C 38.597656 0.25 41.761719 0.1875 43.066406 0.0625 C 44.121094 -0.0625 44.742188 -0.808594 44.433594 -1.863281 C 41.082031 -16.691406 35.308594 -32.765625 30.59375 -42.382812 C 30.28125 -42.941406 29.726562 -43.316406 29.042969 -43.4375 C 27.179688 -43.6875 24.265625 -43.6875 22.589844 -43.6875 C 20.914062 -43.6875 17.996094 -43.6875 16.195312 -43.4375 C 15.515625 -43.316406 14.957031 -42.941406 14.707031 -42.382812 C 9.929688 -32.703125 4.15625 -16.753906 0.808594 -1.863281 C 0.496094 -0.867188 1.117188 -0.125 2.234375 0 C 3.476562 0.125 5.832031 0.25 7.261719 0.25 Z M 21.65625 -16.570312 C 19.175781 -16.691406 18.121094 -17.746094 18.679688 -19.609375 C 19.300781 -23.023438 20.230469 -26.746094 21.347656 -30.28125 C 22.09375 -32.457031 23.085938 -32.457031 23.890625 -30.28125 C 24.945312 -26.746094 26 -23.023438 26.558594 -19.609375 C 27.179688 -17.808594 26.0625 -16.691406 23.582031 -16.570312 Z M 21.65625 -16.570312 "/></g></g></g><g fill="#e6cfc8" fill-opacity="1"><g transform="translate(54.949197, 186.322542)"><g><path d="M 19.917969 0.25 C 25.195312 0.25 34.875 0.25 39.09375 0 C 40.027344 -0.0625 40.585938 -0.683594 40.523438 -1.550781 C 40.398438 -4.652344 40.027344 -12.96875 39.652344 -16.132812 C 39.53125 -17.871094 37.667969 -18.121094 36.859375 -16.691406 C 33.945312 -11.730469 30.71875 -9.867188 23.644531 -9.867188 C 17.375 -9.867188 14.023438 -12.164062 13.960938 -17.066406 C 13.960938 -26.375 15.515625 -33.570312 17.1875 -41.515625 C 17.4375 -42.507812 16.632812 -43.316406 15.574219 -43.4375 C 14.085938 -43.625 12.410156 -43.6875 10.859375 -43.6875 C 8.5625 -43.6875 6.824219 -43.6875 4.652344 -43.4375 C 3.722656 -43.316406 2.980469 -42.878906 2.917969 -41.949219 C 2.109375 -31.710938 1.613281 -14.894531 1.488281 -1.675781 C 1.488281 -0.683594 2.234375 -0.0625 3.226562 0 C 6.144531 0.1875 15.453125 0.25 19.917969 0.25 Z M 19.917969 0.25 "/></g></g></g><g fill="#e6cfc8" fill-opacity="1"><g transform="translate(97.951991, 186.322542)"><g><path d="M 19.917969 0.25 C 25.195312 0.25 34.875 0.25 39.09375 0 C 40.027344 -0.0625 40.585938 -0.683594 40.523438 -1.550781 C 40.398438 -4.652344 40.027344 -12.96875 39.652344 -16.132812 C 39.53125 -17.871094 37.667969 -18.121094 36.859375 -16.691406 C 33.945312 -11.730469 30.71875 -9.867188 23.644531 -9.867188 C 17.375 -9.867188 14.023438 -12.164062 13.960938 -17.066406 C 13.960938 -26.375 15.515625 -33.570312 17.1875 -41.515625 C 17.4375 -42.507812 16.632812 -43.316406 15.574219 -43.4375 C 14.085938 -43.625 12.410156 -43.6875 10.859375 -43.6875 C 8.5625 -43.6875 6.824219 -43.6875 4.652344 -43.4375 C 3.722656 -43.316406 2.980469 -42.878906 2.917969 -41.949219 C 2.109375 -31.710938 1.613281 -14.894531 1.488281 -1.675781 C 1.488281 -0.683594 2.234375 -0.0625 3.226562 0 C 6.144531 0.1875 15.453125 0.25 19.917969 0.25 Z M 19.917969 0.25 "/></g></g></g><g fill="#e6cfc8" fill-opacity="1"><g transform="translate(140.95479, 186.322542)"><g><path d="M 20.601562 0.25 C 21.84375 0.25 24.761719 0.1875 26.125 0 C 26.996094 -0.125 27.800781 -0.746094 27.738281 -1.675781 C 27.492188 -6.019531 26.933594 -11.109375 26 -17.6875 C 25.878906 -18.429688 26 -18.925781 26.746094 -19.113281 C 33.820312 -20.914062 39.777344 -32.515625 40.273438 -41.453125 C 40.335938 -42.507812 39.714844 -43.316406 38.597656 -43.4375 C 37.046875 -43.6875 34.875 -43.6875 33.570312 -43.6875 C 32.269531 -43.6875 29.726562 -43.6875 28.171875 -43.4375 C 27.242188 -43.253906 26.621094 -42.695312 26.621094 -41.761719 C 26.1875 -35.1875 23.457031 -24.882812 20.476562 -24.824219 C 17.5 -24.824219 14.957031 -34.9375 14.335938 -41.761719 C 14.273438 -42.695312 13.652344 -43.316406 12.722656 -43.4375 C 11.109375 -43.6875 8.5 -43.6875 7.261719 -43.6875 C 5.957031 -43.6875 3.847656 -43.625 2.296875 -43.4375 C 1.179688 -43.253906 0.558594 -42.507812 0.621094 -41.453125 C 1.117188 -32.515625 7.199219 -21.160156 14.273438 -19.175781 C 14.957031 -18.925781 15.140625 -18.492188 15.015625 -17.746094 C 14.085938 -11.171875 13.464844 -5.957031 13.15625 -1.675781 C 13.09375 -0.808594 13.839844 -0.125 14.769531 0 C 16.257812 0.1875 19.238281 0.25 20.601562 0.25 Z M 20.601562 0.25 "/></g></g></g><g fill="#e6cfc8" fill-opacity="1"><g transform="translate(183.337042, 186.322542)"><g><path d="M 20.355469 0.25 C 25.378906 0.25 34.75 0.308594 39.15625 0 C 40.027344 -0.0625 40.707031 -0.683594 40.648438 -1.550781 C 40.523438 -4.40625 40.148438 -13.03125 39.964844 -15.636719 C 39.902344 -17.5 38.101562 -17.871094 37.171875 -16.320312 C 34.378906 -11.789062 30.71875 -9.679688 23.828125 -9.679688 C 19.175781 -9.679688 17.933594 -11.355469 20.976562 -13.777344 C 25.878906 -19.363281 32.394531 -27.863281 36.613281 -33.136719 C 38.289062 -34.6875 39.03125 -36.117188 38.972656 -38.039062 C 38.910156 -39.46875 38.847656 -40.585938 38.722656 -41.886719 C 38.660156 -42.820312 37.976562 -43.375 36.984375 -43.4375 C 34.128906 -43.625 25.257812 -43.6875 20.914062 -43.6875 C 16.257812 -43.6875 9.121094 -43.6875 5.027344 -43.4375 C 4.15625 -43.375 3.476562 -42.757812 3.351562 -41.824219 C 3.164062 -39.40625 2.855469 -31.835938 2.792969 -29.726562 C 2.792969 -28.109375 4.34375 -27.613281 5.335938 -28.980469 C 7.757812 -32.207031 11.542969 -34.070312 17.746094 -34.070312 C 20.914062 -34.070312 23.828125 -32.765625 19.917969 -29.785156 C 14.769531 -24.015625 8.5625 -16.195312 4.035156 -10.796875 C 2.234375 -9.121094 1.242188 -8.003906 1.179688 -5.894531 C 1.179688 -4.21875 1.179688 -3.351562 1.117188 -1.675781 C 1.117188 -0.746094 1.863281 -0.0625 2.917969 0 C 6.082031 0.1875 15.699219 0.25 20.355469 0.25 Z M 20.355469 0.25 "/></g></g></g><g clip-path="url(#7999b647b0)"><g clip-path="url(#60b44ec154)"><g clip-path="url(#b2f01dfa0f)"><path fill="#e1ad37" d="M 234.9375 130.152344 C 235.011719 130.335938 234.4375 130.664062 234.320312 130.742188 C 233.511719 131.285156 232.65625 131.808594 231.785156 132.25 C 231.046875 132.625 230.328125 133.199219 229.542969 133.480469 C 227.171875 134.328125 221.445312 133.960938 221.527344 130.519531 C 221.597656 127.628906 226.730469 128.046875 228.480469 128.210938 C 229.171875 128.277344 229.785156 128.382812 230.449219 128.59375 C 231.382812 128.894531 232.335938 129.160156 233.28125 129.441406 C 233.578125 129.53125 233.941406 129.53125 234.21875 129.671875 C 234.363281 129.746094 234.765625 129.957031 234.6875 129.8125 C 234.625 129.695312 233.9375 129.488281 233.8125 129.433594 C 233.074219 129.121094 232.355469 128.703125 231.65625 128.300781 C 231.027344 127.9375 230.445312 127.496094 229.847656 127.078125 C 227.949219 125.742188 223.511719 121.453125 226.253906 118.839844 C 227.308594 117.835938 228.746094 118.703125 229.65625 119.421875 C 231.773438 121.089844 232.671875 124.183594 233.828125 126.492188 C 234.144531 127.121094 234.414062 127.757812 234.746094 128.375 C 234.910156 128.675781 235.027344 129.011719 235.1875 129.304688 C 235.226562 129.378906 235.257812 129.542969 235.257812 129.542969 C 235.257812 129.542969 235.160156 129.398438 235.132812 129.3125 C 235.007812 128.925781 234.765625 128.519531 234.753906 128.09375 C 234.722656 127.109375 234.632812 126.058594 234.609375 125.042969 C 234.59375 124.335938 234.675781 123.667969 234.78125 122.972656 C 235.148438 120.519531 236.644531 114.898438 240.238281 116.285156 C 241.363281 116.714844 241.539062 117.917969 241.6875 118.96875 C 242.132812 122.105469 239.761719 124.738281 237.914062 126.980469 C 237.328125 127.691406 236.8125 128.601562 236.121094 129.199219 C 235.832031 129.445312 235.664062 129.84375 235.382812 130.109375 C 235.355469 130.136719 235.285156 130.183594 235.285156 130.183594 L 235.398438 130.023438 C 235.582031 129.761719 235.929688 129.527344 236.171875 129.328125 C 236.667969 128.917969 237.238281 128.484375 237.820312 128.203125 C 240.0625 127.113281 243.730469 123.863281 246.191406 126.179688 C 248.230469 128.089844 246.691406 130.75 244.535156 131.585938 C 242.566406 132.351562 237.121094 131.855469 235.234375 130.527344 C 235.136719 130.460938 235.414062 130.679688 235.519531 130.730469 C 235.765625 130.847656 236.03125 130.964844 236.28125 131.070312 C 237.074219 131.410156 237.84375 131.753906 238.597656 132.175781 C 240.5625 133.28125 242.898438 135.015625 243.316406 137.394531 C 243.460938 138.226562 243.660156 139.382812 242.90625 140.011719 C 242.152344 140.632812 240.929688 140.230469 240.207031 139.78125 C 237.953125 138.378906 237.328125 136.136719 236.3125 133.808594 C 235.992188 133.082031 235.789062 132.332031 235.476562 131.605469 C 235.441406 131.519531 235.035156 130.808594 235.144531 130.65625 C 235.25 130.503906 235.261719 131.007812 235.292969 131.1875 C 235.34375 131.484375 235.371094 131.789062 235.421875 132.089844 C 235.570312 132.941406 235.550781 133.746094 235.554688 134.609375 C 235.574219 136.792969 234.863281 139.671875 233.148438 141.15625 C 232.464844 141.75 231.546875 142.371094 230.585938 142.164062 C 228.496094 141.71875 228.222656 139.890625 228.390625 138.101562 C 228.65625 135.246094 233.355469 132.402344 234.9375 130.152344 Z M 234.9375 130.152344 " fill-opacity="1" fill-rule="evenodd"/></g></g></g><g clip-path="url(#ca35cbfbac)"><g clip-path="url(#fc451f8021)"><g clip-path="url(#4cde6c639c)"><path fill="#e1ad37" d="M 229.613281 127.703125 L 229.597656 127.703125 C 229.253906 127.636719 228.90625 127.589844 228.542969 127.554688 C 227.277344 127.4375 224.347656 127.222656 222.582031 128.042969 C 221.566406 128.519531 220.890625 129.300781 220.859375 130.503906 C 220.816406 132.242188 221.949219 133.375 223.550781 133.984375 C 225.546875 134.746094 228.277344 134.652344 229.769531 134.121094 C 230.042969 134.023438 230.304688 133.898438 230.566406 133.753906 C 230.605469 133.730469 230.648438 133.710938 230.6875 133.6875 C 230.230469 134.125 229.796875 134.574219 229.414062 135.027344 C 228.578125 136.015625 227.988281 137.039062 227.894531 138.054688 C 227.78125 139.265625 227.875 140.488281 228.46875 141.375 C 228.875 141.980469 229.507812 142.449219 230.480469 142.660156 C 230.957031 142.761719 231.429688 142.703125 231.878906 142.546875 C 232.472656 142.332031 233.027344 141.933594 233.480469 141.539062 C 234.230469 140.894531 234.808594 140 235.226562 139.007812 C 235.820312 137.589844 236.082031 135.96875 236.074219 134.605469 L 236.074219 134.585938 C 236.585938 135.8125 237.039062 137 237.71875 138.039062 C 238.265625 138.882812 238.957031 139.628906 239.925781 140.234375 C 240.425781 140.546875 241.132812 140.832031 241.800781 140.863281 C 242.332031 140.886719 242.839844 140.761719 243.246094 140.421875 C 243.65625 140.082031 243.867188 139.632812 243.949219 139.136719 C 244.046875 138.53125 243.941406 137.851562 243.84375 137.300781 C 243.660156 136.246094 243.140625 135.304688 242.4375 134.476562 C 241.757812 133.679688 240.902344 132.992188 240.039062 132.417969 C 241.902344 132.59375 243.742188 132.496094 244.738281 132.109375 C 245.964844 131.636719 247.007812 130.636719 247.460938 129.496094 C 247.941406 128.285156 247.800781 126.914062 246.582031 125.765625 C 245.675781 124.914062 244.636719 124.691406 243.550781 124.835938 C 241.847656 125.0625 240.011719 126.289062 238.53125 127.15625 C 239.628906 125.832031 240.863281 124.375 241.613281 122.769531 C 242.175781 121.558594 242.472656 120.265625 242.277344 118.882812 C 242.179688 118.179688 242.054688 117.417969 241.710938 116.816406 C 241.441406 116.339844 241.046875 115.953125 240.453125 115.722656 C 238.671875 115.035156 237.308594 115.753906 236.304688 117.078125 C 235.054688 118.722656 234.402344 121.371094 234.175781 122.882812 C 234.109375 123.316406 234.054688 123.738281 234.023438 124.167969 C 234 124.460938 233.992188 124.753906 233.996094 125.058594 L 234.015625 125.433594 C 233.464844 124.226562 232.941406 122.890625 232.265625 121.683594 C 231.671875 120.617188 230.964844 119.648438 230.046875 118.925781 C 229.421875 118.429688 228.570312 117.898438 227.738281 117.777344 C 227.066406 117.683594 226.398438 117.828125 225.816406 118.378906 C 224.46875 119.664062 224.511719 121.277344 225.25 122.851562 C 226.1875 124.851562 228.292969 126.773438 229.476562 127.605469 Z M 236.015625 131.554688 L 236.066406 131.578125 C 236.535156 131.777344 236.996094 131.976562 237.449219 132.195312 C 237.746094 132.339844 238.039062 132.488281 238.332031 132.652344 C 239.453125 133.28125 240.703125 134.121094 241.613281 135.183594 C 242.191406 135.859375 242.632812 136.621094 242.785156 137.484375 C 242.863281 137.929688 242.96875 138.476562 242.890625 138.964844 C 242.851562 139.207031 242.761719 139.433594 242.5625 139.597656 C 242.304688 139.8125 241.960938 139.824219 241.625 139.769531 C 241.210938 139.703125 240.796875 139.523438 240.488281 139.332031 C 239.660156 138.816406 239.074219 138.179688 238.601562 137.460938 C 237.851562 136.3125 237.390625 134.96875 236.792969 133.597656 Z M 236.019531 130.351562 L 236.0625 130.371094 L 236.273438 130.464844 C 237.210938 130.867188 238.527344 131.140625 239.855469 131.28125 C 241.613281 131.472656 243.394531 131.429688 244.332031 131.0625 C 245.265625 130.699219 246.066406 129.949219 246.410156 129.078125 C 246.730469 128.269531 246.621094 127.359375 245.804688 126.59375 C 244.957031 125.796875 243.933594 125.824219 242.898438 126.15625 C 241.152344 126.710938 239.371094 128.089844 238.074219 128.722656 C 237.863281 128.824219 237.652344 128.949219 237.453125 129.085938 C 237.132812 129.300781 236.824219 129.542969 236.539062 129.777344 C 236.421875 129.875 236.28125 129.976562 236.148438 130.089844 C 236.097656 130.160156 236.050781 130.230469 235.996094 130.296875 L 235.972656 130.328125 Z M 234.441406 131.484375 C 233.203125 132.765625 231.414062 134.1875 230.171875 135.664062 C 229.484375 136.484375 228.964844 137.308594 228.886719 138.148438 C 228.8125 138.957031 228.828125 139.777344 229.105469 140.445312 C 229.359375 141.042969 229.84375 141.492188 230.6875 141.671875 C 231.0625 141.75 231.421875 141.65625 231.757812 141.5 C 232.148438 141.316406 232.507812 141.039062 232.816406 140.773438 C 233.609375 140.085938 234.160156 139.070312 234.519531 137.976562 C 234.886719 136.855469 235.050781 135.652344 235.039062 134.613281 C 235.035156 134.105469 235.042969 133.613281 235.015625 133.121094 C 235 132.808594 234.96875 132.496094 234.910156 132.179688 L 234.800781 131.398438 C 234.78125 131.359375 234.765625 131.320312 234.746094 131.28125 L 234.703125 131.3125 C 234.617188 131.371094 234.53125 131.425781 234.441406 131.484375 Z M 235.652344 128.839844 L 235.4375 128.390625 C 235.402344 128.289062 235.371094 128.183594 235.367188 128.074219 L 235.222656 125.027344 C 235.214844 124.699219 235.230469 124.378906 235.257812 124.058594 C 235.289062 123.726562 235.335938 123.398438 235.382812 123.0625 C 235.585938 121.699219 236.140625 119.292969 237.265625 117.808594 C 237.9375 116.921875 238.832031 116.386719 240.023438 116.84375 C 240.417969 116.996094 240.636719 117.289062 240.78125 117.628906 C 240.960938 118.066406 241.027344 118.578125 241.097656 119.050781 C 241.261719 120.195312 241.003906 121.265625 240.539062 122.269531 C 239.792969 123.867188 238.535156 125.304688 237.460938 126.609375 C 237.054688 127.105469 236.679688 127.691406 236.257812 128.207031 C 236.09375 128.40625 235.925781 128.59375 235.738281 128.757812 C 235.707031 128.78125 235.679688 128.808594 235.652344 128.839844 Z M 233.847656 130.234375 C 233.480469 130.480469 233.105469 130.71875 232.726562 130.949219 C 232.316406 131.195312 231.898438 131.425781 231.480469 131.640625 C 230.957031 131.90625 230.445312 132.269531 229.910156 132.5625 C 229.714844 132.671875 229.515625 132.769531 229.3125 132.839844 C 228.042969 133.296875 225.726562 133.367188 224.03125 132.726562 C 222.988281 132.335938 222.167969 131.664062 222.195312 130.535156 C 222.214844 129.652344 222.941406 129.25 223.800781 129.015625 C 225.371094 128.59375 227.445312 128.777344 228.417969 128.867188 C 228.742188 128.898438 229.050781 128.9375 229.351562 128.996094 C 229.648438 129.050781 229.945312 129.125 230.25 129.222656 L 233.09375 130.070312 Z M 234.316406 128.910156 L 234.320312 128.925781 C 234.203125 128.886719 234.109375 128.851562 234.066406 128.832031 C 233.785156 128.714844 233.507812 128.582031 233.234375 128.4375 C 232.808594 128.214844 232.390625 127.972656 231.980469 127.738281 C 231.742188 127.601562 231.511719 127.453125 231.28125 127.296875 C 230.925781 127.054688 230.574219 126.796875 230.21875 126.550781 C 229.160156 125.804688 227.253906 124.097656 226.410156 122.308594 C 225.910156 121.253906 225.789062 120.160156 226.691406 119.300781 C 227.035156 118.972656 227.441406 118.976562 227.835938 119.09375 C 228.363281 119.253906 228.867188 119.605469 229.265625 119.914062 C 230.054688 120.539062 230.65625 121.378906 231.171875 122.296875 C 231.988281 123.753906 232.585938 125.402344 233.273438 126.773438 L 234.199219 128.667969 Z M 234.316406 128.910156 " fill-opacity="1" fill-rule="evenodd"/></g></g></g><g clip-path="url(#ff3580fc15)"><g clip-path="url(#39e6a1db8c)"><g clip-path="url(#68a493f5f6)"><path fill="#e1ad37" d="M 261.03125 118.515625 C 261.078125 118.652344 260.636719 118.933594 260.550781 118.996094 C 259.925781 119.449219 259.273438 119.886719 258.609375 120.261719 C 258.046875 120.582031 257.488281 121.054688 256.894531 121.304688 C 255.105469 122.054688 250.878906 122.007812 251.082031 119.351562 C 251.253906 117.121094 255.039062 117.234375 256.328125 117.289062 C 256.835938 117.308594 257.289062 117.367188 257.769531 117.5 C 258.449219 117.691406 259.144531 117.859375 259.832031 118.039062 C 260.050781 118.09375 260.320312 118.078125 260.515625 118.175781 C 260.621094 118.226562 260.914062 118.371094 260.859375 118.265625 C 260.820312 118.175781 260.316406 118.042969 260.226562 118.007812 C 259.691406 117.796875 259.175781 117.503906 258.675781 117.222656 C 258.222656 116.972656 257.8125 116.65625 257.386719 116.359375 C 256.035156 115.40625 252.925781 112.285156 255.066406 110.160156 C 255.886719 109.34375 256.917969 109.949219 257.5625 110.464844 C 259.058594 111.664062 259.597656 114.011719 260.359375 115.742188 C 260.566406 116.214844 260.742188 116.691406 260.960938 117.15625 C 261.070312 117.378906 261.144531 117.632812 261.25 117.851562 C 261.277344 117.90625 261.292969 118.035156 261.292969 118.035156 C 261.292969 118.035156 261.226562 117.925781 261.210938 117.863281 C 261.132812 117.566406 260.96875 117.265625 260.976562 116.9375 C 260.996094 116.179688 260.972656 115.375 261 114.59375 C 261.015625 114.050781 261.105469 113.53125 261.210938 112.988281 C 261.582031 111.085938 262.925781 106.691406 265.53125 107.609375 C 266.347656 107.898438 266.425781 108.816406 266.492188 109.617188 C 266.691406 112.019531 264.828125 114.144531 263.367188 115.949219 C 262.902344 116.523438 262.480469 117.242188 261.945312 117.730469 C 261.722656 117.933594 261.578125 118.25 261.363281 118.464844 C 261.339844 118.488281 261.285156 118.523438 261.285156 118.523438 L 261.375 118.398438 C 261.523438 118.191406 261.792969 117.992188 261.976562 117.832031 C 262.363281 117.496094 262.800781 117.136719 263.246094 116.894531 C 264.953125 115.964844 267.804688 113.308594 269.53125 114.988281 C 270.960938 116.378906 269.710938 118.488281 268.082031 119.222656 C 266.589844 119.894531 262.578125 119.738281 261.234375 118.792969 C 261.167969 118.746094 261.363281 118.902344 261.4375 118.9375 C 261.613281 119.015625 261.804688 119.097656 261.988281 119.167969 C 262.5625 119.394531 263.117188 119.628906 263.660156 119.925781 C 265.066406 120.695312 266.726562 121.933594 266.9375 123.75 C 267.011719 124.386719 267.109375 125.269531 266.523438 125.78125 C 265.941406 126.292969 265.054688 126.035156 264.535156 125.71875 C 262.925781 124.730469 262.554688 123.027344 261.898438 121.277344 C 261.691406 120.730469 261.570312 120.160156 261.371094 119.613281 C 261.347656 119.546875 261.078125 119.019531 261.164062 118.894531 C 261.246094 118.773438 261.234375 119.160156 261.25 119.300781 C 261.277344 119.527344 261.285156 119.761719 261.308594 119.988281 C 261.386719 120.640625 261.335938 121.261719 261.304688 121.925781 C 261.226562 123.605469 260.582031 125.855469 259.25 127.070312 C 258.71875 127.554688 258.015625 128.070312 257.308594 127.953125 C 255.78125 127.695312 255.65625 126.296875 255.851562 124.910156 C 256.167969 122.699219 259.765625 120.316406 261.03125 118.515625 Z M 261.03125 118.515625 " fill-opacity="1" fill-rule="evenodd"/></g></g></g><g clip-path="url(#eaf3eecfef)"><g clip-path="url(#9b2b7ef4ff)"><g clip-path="url(#c257853abd)"><path fill="#e1ad37" d="M 256.699219 116.648438 C 256.585938 116.640625 256.472656 116.632812 256.355469 116.628906 C 255.386719 116.585938 253.125 116.546875 251.761719 117.308594 C 251.003906 117.730469 250.488281 118.371094 250.414062 119.300781 C 250.300781 120.769531 251.179688 121.660156 252.453125 122.09375 C 253.871094 122.570312 255.804688 122.429688 256.984375 121.996094 C 256.859375 122.136719 256.738281 122.273438 256.625 122.410156 C 255.953125 123.21875 255.472656 124.042969 255.359375 124.839844 C 255.222656 125.78125 255.246094 126.726562 255.632812 127.402344 C 255.929688 127.921875 256.425781 128.316406 257.226562 128.449219 C 257.613281 128.515625 258 128.445312 258.371094 128.285156 C 258.816406 128.09375 259.242188 127.765625 259.59375 127.445312 C 260.3125 126.792969 260.855469 125.863281 261.222656 124.867188 C 261.511719 124.082031 261.695312 123.257812 261.777344 122.5 C 262.027344 123.203125 262.277344 123.878906 262.628906 124.480469 C 263.019531 125.144531 263.527344 125.722656 264.257812 126.171875 C 264.648438 126.414062 265.214844 126.621094 265.757812 126.605469 C 266.160156 126.597656 266.550781 126.472656 266.878906 126.183594 C 267.199219 125.902344 267.378906 125.546875 267.464844 125.15625 C 267.574219 124.667969 267.523438 124.125 267.472656 123.6875 C 267.378906 122.863281 267.027344 122.144531 266.535156 121.519531 C 266.132812 121.011719 265.632812 120.566406 265.105469 120.1875 C 266.382812 120.210938 267.605469 120.050781 268.3125 119.734375 C 269.429688 119.234375 270.386719 118.164062 270.648438 117.046875 C 270.847656 116.195312 270.675781 115.3125 269.925781 114.582031 C 269.214844 113.886719 268.351562 113.753906 267.433594 113.960938 C 266.507812 114.167969 265.507812 114.769531 264.601562 115.359375 C 265.269531 114.519531 265.9375 113.625 266.40625 112.675781 C 266.894531 111.695312 267.175781 110.65625 267.085938 109.570312 C 267.042969 109.019531 266.976562 108.429688 266.75 107.96875 C 266.546875 107.550781 266.230469 107.21875 265.730469 107.042969 C 264.355469 106.558594 263.238281 107.195312 262.398438 108.339844 C 261.421875 109.667969 260.839844 111.707031 260.609375 112.871094 C 260.542969 113.210938 260.484375 113.539062 260.441406 113.871094 C 260.429688 113.972656 260.417969 114.074219 260.410156 114.175781 C 260.074219 113.28125 259.726562 112.34375 259.253906 111.535156 C 258.898438 110.929688 258.476562 110.390625 257.957031 109.972656 C 257.46875 109.578125 256.785156 109.171875 256.109375 109.128906 C 255.601562 109.097656 255.085938 109.242188 254.617188 109.707031 C 253.570312 110.746094 253.507812 111.972656 253.949219 113.15625 C 254.476562 114.578125 255.789062 115.929688 256.699219 116.648438 Z M 261.960938 119.75 C 262.183594 119.835938 262.398438 119.925781 262.613281 120.023438 C 262.878906 120.140625 263.140625 120.265625 263.394531 120.402344 C 264.1875 120.835938 265.070312 121.421875 265.683594 122.191406 C 266.054688 122.660156 266.328125 123.195312 266.402344 123.8125 C 266.433594 124.097656 266.480469 124.441406 266.441406 124.765625 C 266.417969 124.996094 266.355469 125.21875 266.171875 125.378906 C 266.003906 125.527344 265.789062 125.550781 265.585938 125.53125 C 265.300781 125.503906 265.019531 125.390625 264.816406 125.265625 C 264.242188 124.914062 263.847656 124.460938 263.542969 123.941406 C 263.046875 123.101562 262.769531 122.101562 262.386719 121.089844 Z M 262.015625 118.585938 L 262.359375 118.269531 C 262.578125 118.078125 262.8125 117.878906 263.054688 117.703125 C 263.207031 117.589844 263.367188 117.488281 263.523438 117.402344 C 264.484375 116.875 265.816406 115.78125 267.101562 115.261719 C 267.84375 114.964844 268.570312 114.847656 269.136719 115.394531 C 269.675781 115.921875 269.679688 116.585938 269.414062 117.183594 C 269.117188 117.832031 268.523438 118.410156 267.851562 118.714844 C 267.164062 119.023438 265.894531 119.125 264.644531 119.058594 C 263.699219 119.011719 262.753906 118.871094 262.089844 118.617188 Z M 260.523438 119.855469 L 260.710938 119.722656 L 260.761719 119.6875 L 260.792969 120.046875 C 260.820312 120.289062 260.832031 120.523438 260.832031 120.761719 C 260.828125 121.136719 260.804688 121.511719 260.789062 121.902344 C 260.753906 122.699219 260.582031 123.636719 260.257812 124.515625 C 259.953125 125.351562 259.511719 126.140625 258.90625 126.691406 C 258.679688 126.902344 258.414062 127.125 258.125 127.277344 C 257.890625 127.40625 257.644531 127.496094 257.394531 127.453125 C 256.832031 127.359375 256.53125 127.058594 256.394531 126.648438 C 256.234375 126.167969 256.265625 125.574219 256.347656 124.980469 C 256.4375 124.34375 256.851562 123.695312 257.390625 123.042969 C 258.304688 121.933594 259.570312 120.839844 260.523438 119.855469 Z M 261.652344 117.203125 L 261.625 117.140625 C 261.609375 117.078125 261.59375 117.015625 261.597656 116.953125 L 261.613281 114.613281 C 261.621094 114.363281 261.644531 114.117188 261.679688 113.871094 C 261.714844 113.617188 261.761719 113.367188 261.8125 113.105469 C 262.011719 112.070312 262.507812 110.242188 263.375 109.054688 C 263.878906 108.367188 264.507812 107.886719 265.332031 108.175781 C 265.558594 108.257812 265.664062 108.4375 265.734375 108.644531 C 265.84375 108.957031 265.867188 109.324219 265.894531 109.667969 C 265.96875 110.535156 265.730469 111.363281 265.34375 112.148438 C 264.730469 113.398438 263.75 114.542969 262.910156 115.582031 C 262.589844 115.980469 262.289062 116.449219 261.953125 116.863281 C 261.859375 116.984375 261.757812 117.097656 261.652344 117.203125 Z M 259.796875 118.691406 C 259.609375 118.824219 259.417969 118.957031 259.222656 119.085938 C 258.910156 119.289062 258.59375 119.488281 258.273438 119.667969 C 257.875 119.894531 257.480469 120.195312 257.074219 120.445312 C 256.929688 120.53125 256.78125 120.613281 256.632812 120.675781 C 255.714844 121.066406 254.070312 121.214844 252.882812 120.816406 C 252.214844 120.59375 251.691406 120.171875 251.75 119.402344 C 251.796875 118.785156 252.292969 118.46875 252.871094 118.265625 C 254.035156 117.859375 255.582031 117.917969 256.300781 117.945312 C 256.53125 117.957031 256.746094 117.972656 256.960938 118.003906 C 257.171875 118.03125 257.378906 118.074219 257.589844 118.132812 L 259.667969 118.671875 Z M 260.378906 117.367188 C 260.210938 117.296875 260.046875 117.222656 259.886719 117.140625 C 259.582031 116.988281 259.285156 116.820312 258.992188 116.65625 C 258.828125 116.566406 258.667969 116.464844 258.511719 116.359375 C 258.257812 116.1875 258.011719 116.003906 257.757812 115.828125 C 257.007812 115.300781 255.652344 114.050781 255.148438 112.707031 C 254.878906 111.992188 254.878906 111.242188 255.515625 110.609375 C 255.726562 110.398438 255.96875 110.367188 256.199219 110.421875 C 256.5625 110.507812 256.902344 110.746094 257.167969 110.957031 C 257.707031 111.390625 258.101562 112 258.433594 112.664062 C 258.972656 113.746094 259.339844 114.976562 259.789062 115.992188 Z M 260.378906 117.367188 " fill-opacity="1" fill-rule="evenodd"/></g></g></g><g clip-path="url(#ea0b584fbe)"><g clip-path="url(#60d75063b9)"><g clip-path="url(#e26012d572)"><path fill="#ae7b37" d="M 235.566406 128.011719 C 235.808594 128.183594 236.015625 128.390625 236.179688 128.636719 C 236.34375 128.878906 236.457031 129.140625 236.519531 129.421875 C 236.578125 129.703125 236.585938 129.980469 236.53125 130.253906 C 236.480469 130.527344 236.375 130.777344 236.214844 131 C 236.058594 131.226562 235.859375 131.410156 235.621094 131.550781 C 235.378906 131.695312 235.117188 131.785156 234.835938 131.820312 C 234.550781 131.859375 234.265625 131.839844 233.976562 131.769531 C 233.691406 131.695312 233.425781 131.574219 233.183594 131.402344 C 232.9375 131.230469 232.734375 131.023438 232.566406 130.777344 C 232.402344 130.535156 232.289062 130.269531 232.226562 129.992188 C 232.167969 129.710938 232.164062 129.433594 232.214844 129.160156 C 232.269531 128.886719 232.375 128.636719 232.53125 128.414062 C 232.6875 128.1875 232.886719 128.003906 233.128906 127.863281 C 233.367188 127.71875 233.628906 127.628906 233.914062 127.59375 C 234.199219 127.554688 234.484375 127.570312 234.769531 127.644531 C 235.054688 127.71875 235.320312 127.839844 235.566406 128.011719 Z M 235.566406 128.011719 " fill-opacity="1" fill-rule="nonzero"/></g></g></g><g clip-path="url(#e4bdb99748)"><g clip-path="url(#b543d613bf)"><g clip-path="url(#7c2bc5bb7f)"><path fill="#ae7b37" d="M 232.132812 128.132812 C 231.703125 128.726562 231.585938 129.457031 231.738281 130.152344 C 231.882812 130.796875 232.273438 131.410156 232.875 131.84375 C 233.476562 132.28125 234.1875 132.449219 234.851562 132.386719 C 235.582031 132.3125 236.253906 131.949219 236.695312 131.339844 C 237.144531 130.71875 237.265625 129.960938 237.101562 129.238281 C 236.953125 128.570312 236.550781 127.9375 235.929688 127.488281 C 235.304688 127.035156 234.570312 126.863281 233.882812 126.929688 C 233.125 127.003906 232.429688 127.382812 231.96875 128.019531 Z M 233.09375 128.808594 C 233.3125 128.484375 233.65625 128.292969 234.03125 128.246094 C 234.417969 128.195312 234.835938 128.285156 235.199219 128.53125 C 235.566406 128.78125 235.816406 129.136719 235.914062 129.519531 C 236.011719 129.910156 235.96875 130.324219 235.734375 130.664062 C 235.5 131.007812 235.128906 131.214844 234.726562 131.265625 C 234.316406 131.320312 233.875 131.222656 233.492188 130.960938 C 233.101562 130.699219 232.839844 130.320312 232.738281 129.914062 C 232.632812 129.5 232.683594 129.058594 232.929688 128.691406 Z M 233.09375 128.808594 " fill-opacity="1" fill-rule="evenodd"/></g></g></g></svg>