<svg xmlns="http://www.w3.org/2000/svg" xmlns:xlink="http://www.w3.org/1999/xlink" width="500" zoomAndPan="magnify" viewBox="0 0 375 374.999991" height="500" preserveAspectRatio="xMidYMid meet" version="1.0"><defs><clipPath id="26d2fc4784"><path d="M 20 73.023438 L 356 73.023438 L 356 125 L 20 125 Z M 20 73.023438 " clip-rule="nonzero"/></clipPath></defs><path fill="#e7773c" d="M 265.839844 315.996094 C 265.003906 315.996094 264.207031 315.832031 263.441406 315.5 C 262.679688 315.167969 262.011719 314.695312 261.445312 314.085938 L 87.371094 127.234375 C 87.101562 126.945312 86.863281 126.632812 86.65625 126.300781 C 86.449219 125.964844 86.277344 125.613281 86.136719 125.242188 C 86 124.871094 85.898438 124.492188 85.835938 124.105469 C 85.773438 123.714844 85.75 123.324219 85.761719 122.929688 C 85.777344 122.535156 85.828125 122.148438 85.917969 121.761719 C 86.007812 121.378906 86.136719 121.007812 86.300781 120.648438 C 86.464844 120.289062 86.660156 119.949219 86.890625 119.632812 C 87.121094 119.3125 87.378906 119.015625 87.667969 118.746094 C 87.957031 118.480469 88.269531 118.242188 88.605469 118.035156 C 88.941406 117.828125 89.292969 117.652344 89.660156 117.515625 C 90.03125 117.378906 90.410156 117.277344 90.796875 117.214844 C 91.1875 117.152344 91.578125 117.125 91.972656 117.140625 C 92.367188 117.152344 92.753906 117.207031 93.140625 117.296875 C 93.523438 117.386719 93.894531 117.515625 94.253906 117.679688 C 94.613281 117.839844 94.949219 118.039062 95.269531 118.269531 C 95.589844 118.5 95.882812 118.757812 96.152344 119.046875 L 270.230469 305.898438 C 270.628906 306.324219 270.957031 306.800781 271.214844 307.324219 C 271.476562 307.847656 271.65625 308.398438 271.753906 308.976562 C 271.851562 309.550781 271.867188 310.128906 271.796875 310.710938 C 271.726562 311.292969 271.574219 311.851562 271.34375 312.386719 C 271.109375 312.921875 270.804688 313.414062 270.425781 313.859375 C 270.050781 314.308594 269.617188 314.691406 269.128906 315.011719 C 268.640625 315.332031 268.117188 315.578125 267.554688 315.746094 C 266.996094 315.914062 266.421875 315.996094 265.839844 315.996094 Z M 265.839844 315.996094 " fill-opacity="1" fill-rule="nonzero"/><path fill="#e7773c" d="M 91.761719 315.996094 C 92.59375 315.996094 93.390625 315.832031 94.15625 315.5 C 94.921875 315.167969 95.585938 314.695312 96.152344 314.085938 L 270.230469 127.234375 C 270.496094 126.945312 270.734375 126.632812 270.941406 126.300781 C 271.148438 125.964844 271.324219 125.613281 271.460938 125.242188 C 271.597656 124.871094 271.699219 124.492188 271.761719 124.105469 C 271.824219 123.714844 271.851562 123.324219 271.835938 122.929688 C 271.824219 122.535156 271.769531 122.148438 271.679688 121.761719 C 271.589844 121.378906 271.460938 121.007812 271.296875 120.648438 C 271.136719 120.289062 270.9375 119.949219 270.707031 119.632812 C 270.476562 119.3125 270.21875 119.015625 269.929688 118.75 C 269.640625 118.480469 269.328125 118.242188 268.996094 118.035156 C 268.660156 117.828125 268.308594 117.652344 267.9375 117.515625 C 267.566406 117.378906 267.1875 117.277344 266.800781 117.214844 C 266.410156 117.152344 266.019531 117.125 265.625 117.140625 C 265.230469 117.152344 264.84375 117.207031 264.460938 117.296875 C 264.074219 117.386719 263.703125 117.515625 263.347656 117.679688 C 262.988281 117.839844 262.648438 118.039062 262.328125 118.269531 C 262.007812 118.5 261.714844 118.757812 261.445312 119.046875 L 87.371094 305.898438 C 86.972656 306.324219 86.640625 306.800781 86.382812 307.324219 C 86.125 307.847656 85.945312 308.398438 85.84375 308.976562 C 85.746094 309.550781 85.730469 310.128906 85.800781 310.710938 C 85.871094 311.292969 86.023438 311.851562 86.257812 312.386719 C 86.488281 312.921875 86.792969 313.414062 87.171875 313.859375 C 87.546875 314.308594 87.980469 314.691406 88.46875 315.011719 C 88.957031 315.332031 89.484375 315.578125 90.042969 315.746094 C 90.601562 315.914062 91.175781 315.996094 91.761719 315.996094 Z M 91.761719 315.996094 " fill-opacity="1" fill-rule="nonzero"/><path fill="#f27d3f" d="M 355.640625 111.007812 C 355.640625 125.152344 280.550781 136.617188 187.921875 136.617188 C 95.292969 136.617188 20.199219 125.152344 20.199219 111.007812 C 20.199219 109.183594 18.410156 98.304688 20.789062 96.585938 C 36.835938 84.996094 107.246094 85.402344 187.921875 85.402344 C 267.597656 85.402344 336.78125 83.445312 353.875 94.820312 C 356.65625 96.667969 355.640625 109.03125 355.640625 111.007812 Z M 355.640625 111.007812 " fill-opacity="1" fill-rule="nonzero"/><g clip-path="url(#26d2fc4784)"><path fill="#ffeecc" d="M 355.640625 98.644531 C 355.640625 99.066406 355.574219 99.484375 355.4375 99.902344 C 355.304688 100.320312 355.101562 100.738281 354.832031 101.15625 C 354.566406 101.574219 354.230469 101.988281 353.824219 102.402344 C 353.421875 102.816406 352.953125 103.230469 352.417969 103.640625 C 351.882812 104.054688 351.28125 104.460938 350.613281 104.867188 C 349.949219 105.273438 349.214844 105.679688 348.417969 106.078125 C 347.621094 106.480469 346.761719 106.878906 345.835938 107.273438 C 344.914062 107.667969 343.925781 108.058594 342.875 108.445312 C 341.824219 108.832031 340.710938 109.214844 339.539062 109.59375 C 338.363281 109.972656 337.132812 110.347656 335.835938 110.71875 C 334.542969 111.085938 333.191406 111.453125 331.78125 111.8125 C 330.367188 112.171875 328.898438 112.523438 327.375 112.871094 C 325.851562 113.222656 324.269531 113.5625 322.636719 113.902344 C 321 114.238281 319.3125 114.566406 317.570312 114.890625 C 315.828125 115.214844 314.035156 115.53125 312.195312 115.84375 C 310.351562 116.152344 308.457031 116.457031 306.515625 116.753906 C 304.578125 117.050781 302.589844 117.339844 300.554688 117.621094 C 298.519531 117.902344 296.445312 118.175781 294.320312 118.441406 C 292.199219 118.707031 290.035156 118.964844 287.832031 119.214844 C 285.628906 119.464844 283.382812 119.707031 281.101562 119.9375 C 278.820312 120.171875 276.5 120.394531 274.144531 120.609375 C 271.792969 120.824219 269.40625 121.03125 266.984375 121.230469 C 264.5625 121.425781 262.113281 121.617188 259.628906 121.796875 C 257.148438 121.972656 254.640625 122.144531 252.105469 122.304688 C 249.570312 122.464844 247.007812 122.617188 244.425781 122.757812 C 241.839844 122.898438 239.234375 123.03125 236.609375 123.152344 C 233.980469 123.273438 231.335938 123.382812 228.671875 123.484375 C 226.011719 123.589844 223.332031 123.679688 220.640625 123.761719 C 217.949219 123.84375 215.246094 123.914062 212.53125 123.976562 C 209.816406 124.039062 207.09375 124.089844 204.359375 124.128906 C 201.628906 124.171875 198.890625 124.203125 196.152344 124.222656 C 193.410156 124.242188 190.664062 124.253906 187.921875 124.253906 C 185.175781 124.253906 182.433594 124.242188 179.691406 124.222656 C 176.949219 124.203125 174.214844 124.171875 171.480469 124.128906 C 168.75 124.089844 166.027344 124.039062 163.3125 123.976562 C 160.597656 123.914062 157.890625 123.84375 155.199219 123.761719 C 152.507812 123.679688 149.832031 123.589844 147.167969 123.484375 C 144.503906 123.382812 141.859375 123.273438 139.234375 123.152344 C 136.605469 123.03125 134 122.898438 131.417969 122.757812 C 128.832031 122.617188 126.273438 122.464844 123.738281 122.304688 C 121.199219 122.144531 118.691406 121.972656 116.210938 121.796875 C 113.730469 121.617188 111.277344 121.425781 108.859375 121.230469 C 106.4375 121.03125 104.050781 120.824219 101.695312 120.609375 C 99.339844 120.394531 97.023438 120.171875 94.738281 119.9375 C 92.457031 119.707031 90.214844 119.464844 88.007812 119.214844 C 85.804688 118.964844 83.640625 118.707031 81.519531 118.441406 C 79.398438 118.175781 77.320312 117.902344 75.285156 117.621094 C 73.253906 117.339844 71.265625 117.050781 69.324219 116.753906 C 67.382812 116.457031 65.492188 116.152344 63.648438 115.84375 C 61.804688 115.53125 60.011719 115.214844 58.269531 114.890625 C 56.53125 114.566406 54.839844 114.238281 53.207031 113.902344 C 51.570312 113.5625 49.992188 113.222656 48.464844 112.871094 C 46.941406 112.523438 45.472656 112.171875 44.0625 111.8125 C 42.652344 111.453125 41.296875 111.085938 40.003906 110.71875 C 38.710938 110.347656 37.476562 109.972656 36.304688 109.59375 C 35.128906 109.214844 34.015625 108.832031 32.96875 108.445312 C 31.917969 108.058594 30.929688 107.667969 30.003906 107.273438 C 29.078125 106.878906 28.21875 106.480469 27.421875 106.078125 C 26.625 105.679688 25.894531 105.273438 25.226562 104.867188 C 24.558594 104.460938 23.957031 104.054688 23.421875 103.640625 C 22.886719 103.230469 22.417969 102.816406 22.015625 102.402344 C 21.613281 101.988281 21.277344 101.574219 21.007812 101.15625 C 20.738281 100.738281 20.535156 100.320312 20.402344 99.902344 C 20.265625 99.484375 20.199219 99.066406 20.199219 98.644531 C 20.199219 98.226562 20.265625 97.808594 20.402344 97.390625 C 20.535156 96.972656 20.738281 96.554688 21.007812 96.136719 C 21.277344 95.71875 21.613281 95.304688 22.015625 94.890625 C 22.417969 94.472656 22.886719 94.0625 23.421875 93.652344 C 23.957031 93.238281 24.558594 92.832031 25.226562 92.425781 C 25.894531 92.019531 26.625 91.613281 27.421875 91.210938 C 28.21875 90.8125 29.078125 90.414062 30.003906 90.019531 C 30.929688 89.625 31.917969 89.234375 32.96875 88.847656 C 34.015625 88.460938 35.128906 88.078125 36.304688 87.699219 C 37.476562 87.320312 38.710938 86.945312 40.003906 86.574219 C 41.296875 86.207031 42.652344 85.839844 44.0625 85.480469 C 45.472656 85.121094 46.941406 84.769531 48.464844 84.417969 C 49.992188 84.070312 51.570312 83.730469 53.207031 83.390625 C 54.839844 83.054688 56.53125 82.726562 58.269531 82.402344 C 60.011719 82.078125 61.804688 81.761719 63.648438 81.449219 C 65.492188 81.140625 67.382812 80.835938 69.324219 80.539062 C 71.265625 80.242188 73.253906 79.953125 75.285156 79.671875 C 77.320312 79.390625 79.398438 79.117188 81.519531 78.851562 C 83.640625 78.585938 85.804688 78.328125 88.007812 78.078125 C 90.214844 77.828125 92.457031 77.585938 94.738281 77.355469 C 97.023438 77.121094 99.339844 76.898438 101.695312 76.683594 C 104.050781 76.464844 106.4375 76.261719 108.859375 76.0625 C 111.277344 75.863281 113.730469 75.675781 116.210938 75.496094 C 118.691406 75.316406 121.199219 75.148438 123.738281 74.988281 C 126.273438 74.828125 128.832031 74.675781 131.417969 74.535156 C 134 74.394531 136.605469 74.261719 139.234375 74.140625 C 141.859375 74.019531 144.503906 73.90625 147.167969 73.804688 C 149.832031 73.703125 152.507812 73.613281 155.199219 73.53125 C 157.890625 73.449219 160.597656 73.378906 163.3125 73.316406 C 166.027344 73.253906 168.75 73.203125 171.480469 73.164062 C 174.214844 73.121094 176.949219 73.089844 179.691406 73.070312 C 182.433594 73.050781 185.175781 73.039062 187.921875 73.039062 C 190.664062 73.039062 193.410156 73.050781 196.152344 73.070312 C 198.890625 73.089844 201.628906 73.121094 204.359375 73.164062 C 207.09375 73.203125 209.816406 73.253906 212.53125 73.316406 C 215.246094 73.378906 217.949219 73.449219 220.640625 73.53125 C 223.332031 73.613281 226.011719 73.703125 228.671875 73.804688 C 231.335938 73.90625 233.980469 74.019531 236.609375 74.140625 C 239.234375 74.261719 241.839844 74.394531 244.425781 74.535156 C 247.007812 74.675781 249.570312 74.828125 252.105469 74.988281 C 254.640625 75.148438 257.148438 75.316406 259.628906 75.496094 C 262.113281 75.675781 264.5625 75.863281 266.984375 76.0625 C 269.40625 76.261719 271.792969 76.464844 274.144531 76.683594 C 276.5 76.898438 278.820312 77.121094 281.101562 77.355469 C 283.382812 77.585938 285.628906 77.828125 287.832031 78.078125 C 290.035156 78.328125 292.199219 78.585938 294.320312 78.851562 C 296.445312 79.117188 298.519531 79.390625 300.554688 79.671875 C 302.589844 79.953125 304.578125 80.242188 306.515625 80.539062 C 308.457031 80.835938 310.351562 81.140625 312.195312 81.449219 C 314.035156 81.761719 315.828125 82.078125 317.570312 82.402344 C 319.3125 82.726562 321 83.054688 322.636719 83.390625 C 324.269531 83.730469 325.851562 84.070312 327.375 84.417969 C 328.898438 84.769531 330.367188 85.121094 331.78125 85.480469 C 333.191406 85.839844 334.542969 86.207031 335.835938 86.574219 C 337.132812 86.945312 338.363281 87.320312 339.539062 87.699219 C 340.710938 88.078125 341.824219 88.460938 342.875 88.847656 C 343.925781 89.234375 344.914062 89.625 345.835938 90.019531 C 346.761719 90.414062 347.621094 90.8125 348.417969 91.210938 C 349.214844 91.613281 349.949219 92.019531 350.613281 92.425781 C 351.28125 92.832031 351.882812 93.238281 352.417969 93.652344 C 352.953125 94.0625 353.421875 94.472656 353.824219 94.890625 C 354.230469 95.304688 354.566406 95.71875 354.832031 96.136719 C 355.101562 96.554688 355.304688 96.972656 355.4375 97.390625 C 355.574219 97.808594 355.640625 98.226562 355.640625 98.644531 Z M 355.640625 98.644531 " fill-opacity="1" fill-rule="nonzero"/></g></svg>